<svg xmlns="http://www.w3.org/2000/svg" width="21" height="19" viewBox="0 0 21 19"><g fill="none" fill-rule="evenodd"><path d="M-1.041-1H22v23.041H-1.041z"/><g fill-rule="nonzero"><path fill="#69C7F1" d="M19.12 4.76h-4.8V1.88a.96.96 0 0 0-.96-.96H7.6a.96.96 0 0 0-.96.96v2.88h-4.8a.96.96 0 0 0-.96.96v11.52c0 .53.43.96.96.96h17.28c.53 0 .96-.43.96-.96V5.72a.96.96 0 0 0-.96-.96zM8.56 2.84h3.84v1.92H8.56V2.84zm9.6 13.44H2.8v-9.6h15.36v9.6z"/><path fill="#B973FF" d="M11.617 10.52H9.344A2.875 2.875 0 0 0 6.64 8.6a2.873 2.873 0 0 0-2.703 1.92H6.64v1.92H3.937a2.87 2.87 0 0 0 2.703 1.92 2.868 2.868 0 0 0 2.703-1.92h2.273a2.87 2.87 0 0 0 2.703 1.92 2.868 2.868 0 0 0 2.703-1.92H14.32v-1.92h2.703A2.874 2.874 0 0 0 14.32 8.6c-1.25 0-2.306.804-2.703 1.92z"/></g></g></svg>