<svg xmlns="http://www.w3.org/2000/svg" width="98" height="98" viewBox="0 0 98 98">
  <g fill="none" fill-rule="evenodd">
    <path fill="#FFF" d="M5.62084063,85.8490305 L5.62084063,97.4847645 L0,97.4847645 L0,67.5152355 L11.3704028,67.5152355 C17.1628722,67.5152355 20.3809107,71.0789474 20.3809107,76.7894737 C20.3809107,81.1689751 18.2355517,84.3891967 14.502627,85.2049861 L20.8957968,97.4847645 L14.7171629,97.4847645 L9.01050788,85.8490305 L5.62084063,85.8490305 Z M5.62084063,81.4695291 L10.2119089,81.4695291 C13.2154116,81.4695291 14.4597198,80.267313 14.4597198,77.6052632 L14.4597198,75.9736842 C14.4597198,73.3116343 13.2154116,72.1094183 10.2119089,72.1094183 L5.62084063,72.1094183 L5.62084063,81.4695291 Z M44.7950963,97.4847645 L25.8730298,97.4847645 L25.8730298,67.5152355 L44.7950963,67.5152355 L44.7950963,72.1523546 L31.4938704,72.1523546 L31.4938704,79.966759 L44.3231173,79.966759 L44.3231173,84.6038781 L31.4938704,84.6038781 L31.4938704,92.8476454 L44.7950963,92.8476454 L44.7950963,97.4847645 Z M57.1094571,97.4847645 L51.4886165,97.4847645 L51.4886165,67.5152355 L62.8590193,67.5152355 C68.6514886,67.5152355 71.8695271,71.0789474 71.8695271,76.7894737 C71.8695271,82.4570637 68.6514886,86.0637119 62.8590193,86.0637119 L57.1094571,86.0637119 L57.1094571,97.4847645 Z M57.1094571,72.1094183 L57.1094571,81.4695291 L61.7005254,81.4695291 C64.704028,81.4695291 65.9483363,80.267313 65.9483363,77.6052632 L65.9483363,75.9736842 C65.9483363,73.3116343 64.704028,72.1094183 61.7005254,72.1094183 L57.1094571,72.1094183 Z M86.6725044,98 C78.8633975,98 75.3450088,92.2894737 75.3450088,82.5 C75.3450088,72.7105263 78.8633975,67 86.6725044,67 C94.4816112,67 98,72.7105263 98,82.5 C98,92.2894737 94.4816112,98 86.6725044,98 Z M86.6725044,93.4058172 C90.6628722,93.4058172 92.0359019,90.2285319 92.0359019,85.033241 L92.0359019,79.9238227 C92.0359019,74.7714681 90.6628722,71.5941828 86.6725044,71.5941828 C82.6821366,71.5941828 81.3091068,74.7714681 81.3091068,79.9238227 L81.3091068,85.0761773 C81.3091068,90.2285319 82.6821366,93.4058172 86.6725044,93.4058172 Z"/>
    <rect width="98" height="32" fill="#73FFE1"/>
    <path fill="#000" d="M6,24.04 L6,7.288 L12.096,7.288 C16.464,7.288 19.32,10.096 19.32,15.664 C19.32,21.232 16.464,24.04 12.096,24.04 L6,24.04 Z M9.168,21.232 L12.096,21.232 C14.448,21.232 15.96,19.84 15.96,16.984 L15.96,14.344 C15.96,11.488 14.448,10.096 12.096,10.096 L9.168,10.096 L9.168,21.232 Z M33.576,24.04 L22.536,24.04 L22.536,7.288 L33.576,7.288 L33.576,10.096 L25.704,10.096 L25.704,14.032 L32.664,14.032 L32.664,16.84 L25.704,16.84 L25.704,21.232 L33.576,21.232 L33.576,24.04 Z M42.144,24.328 C39.288,24.328 37.32,23.2 35.904,21.544 L38.04,19.48 C39.192,20.824 40.608,21.544 42.336,21.544 C44.28,21.544 45.288,20.608 45.288,19.192 C45.288,18.064 44.76,17.368 43.008,17.056 L41.424,16.816 C38.04,16.288 36.408,14.68 36.408,11.944 C36.408,8.944 38.736,7 42.48,7 C45,7 46.872,7.864 48.216,9.472 L46.056,11.512 C45.24,10.48 44.088,9.784 42.312,9.784 C40.512,9.784 39.576,10.504 39.576,11.752 C39.576,13.024 40.296,13.552 41.904,13.84 L43.464,14.128 C46.848,14.728 48.432,16.24 48.432,19 C48.432,22.168 46.152,24.328 42.144,24.328 Z M58.512,24.04 L50.904,24.04 L50.904,21.496 L53.112,21.496 L53.112,9.832 L50.904,9.832 L50.904,7.288 L58.512,7.288 L58.512,9.832 L56.28,9.832 L56.28,21.496 L58.512,21.496 L58.512,24.04 Z M72.432,24.04 L72.432,21.448 L72.336,21.448 C72.048,23.08 70.464,24.328 67.944,24.328 C64.008,24.328 61.032,21.328 61.032,15.712 C61.032,10.096 64.032,7 68.496,7 C71.472,7 73.632,8.368 74.832,10.816 L72.264,12.328 C71.664,10.888 70.488,9.808 68.496,9.808 C66.024,9.808 64.392,11.368 64.392,14.32 L64.392,17.008 C64.392,19.936 66.024,21.52 68.544,21.52 C70.512,21.52 72.12,20.56 72.12,18.664 L72.12,17.584 L68.832,17.584 L68.832,14.92 L75.168,14.92 L75.168,24.04 L72.432,24.04 Z M88.68,24.04 L83.64,15.448 L81.912,11.968 L81.84,11.968 L81.84,24.04 L78.84,24.04 L78.84,7.288 L82.32,7.288 L87.36,15.88 L89.088,19.36 L89.16,19.36 L89.16,7.288 L92.16,7.288 L92.16,24.04 L88.68,24.04 Z"/>
    <rect width="98" height="32" y="32" fill="#B973FF"/>
    <path fill="#000" d="M10.2,55.44 C7.82,55.44 6.18,54.5 5,53.12 L6.78,51.4 C7.74,52.52 8.92,53.12 10.36,53.12 C11.98,53.12 12.82,52.34 12.82,51.16 C12.82,50.22 12.38,49.64 10.92,49.38 L9.6,49.18 C6.78,48.74 5.42,47.4 5.42,45.12 C5.42,42.62 7.36,41 10.48,41 C12.58,41 14.14,41.72 15.26,43.06 L13.46,44.76 C12.78,43.9 11.82,43.32 10.34,43.32 C8.84,43.32 8.06,43.92 8.06,44.96 C8.06,46.02 8.66,46.46 10,46.7 L11.3,46.94 C14.12,47.44 15.44,48.7 15.44,51 C15.44,53.64 13.54,55.44 10.2,55.44 Z M24.08,55.2 L21.42,55.2 L21.42,49.72 L16.64,41.24 L19.6,41.24 L22.82,47.14 L22.86,47.14 L26,41.24 L28.88,41.24 L24.08,49.7 L24.08,55.2 Z M35.06,55.44 C32.68,55.44 31.04,54.5 29.86,53.12 L31.64,51.4 C32.6,52.52 33.78,53.12 35.22,53.12 C36.84,53.12 37.68,52.34 37.68,51.16 C37.68,50.22 37.24,49.64 35.78,49.38 L34.46,49.18 C31.64,48.74 30.28,47.4 30.28,45.12 C30.28,42.62 32.22,41 35.34,41 C37.44,41 39,41.72 40.12,43.06 L38.32,44.76 C37.64,43.9 36.68,43.32 35.2,43.32 C33.7,43.32 32.92,43.92 32.92,44.96 C32.92,46.02 33.52,46.46 34.86,46.7 L36.16,46.94 C38.98,47.44 40.3,48.7 40.3,51 C40.3,53.64 38.4,55.44 35.06,55.44 Z M52.38,43.58 L48.42,43.58 L48.42,55.2 L45.78,55.2 L45.78,43.58 L41.82,43.58 L41.82,41.24 L52.38,41.24 L52.38,43.58 Z M63.74,55.2 L54.54,55.2 L54.54,41.24 L63.74,41.24 L63.74,43.58 L57.18,43.58 L57.18,46.86 L62.98,46.86 L62.98,49.2 L57.18,49.2 L57.18,52.86 L63.74,52.86 L63.74,55.2 Z M77.1,55.2 L77.1,45.28 L77.02,45.28 L75.96,47.4 L73.06,52.68 L70.2,47.42 L69.1,45.18 L69.04,45.18 L69.04,55.2 L66.54,55.2 L66.54,41.24 L69.46,41.24 L73.04,48.06 L73.1,48.06 L76.66,41.24 L79.6,41.24 L79.6,55.2 L77.1,55.2 Z M87.22,55.44 C84.84,55.44 83.2,54.5 82.02,53.12 L83.8,51.4 C84.76,52.52 85.94,53.12 87.38,53.12 C89,53.12 89.84,52.34 89.84,51.16 C89.84,50.22 89.4,49.64 87.94,49.38 L86.62,49.18 C83.8,48.74 82.44,47.4 82.44,45.12 C82.44,42.62 84.38,41 87.5,41 C89.6,41 91.16,41.72 92.28,43.06 L90.48,44.76 C89.8,43.9 88.84,43.32 87.36,43.32 C85.86,43.32 85.08,43.92 85.08,44.96 C85.08,46.02 85.68,46.46 87.02,46.7 L88.32,46.94 C91.14,47.44 92.46,48.7 92.46,51 C92.46,53.64 90.56,55.44 87.22,55.44 Z"/>
  </g>
</svg>
