<svg height="121" viewBox="0 0 120 121" width="120" xmlns="http://www.w3.org/2000/svg"><g fill="none" fill-rule="evenodd"><path d="m0 31 60 30v60l-60-30z" fill="#73ffe1"/><path d="m18.942 90.471v-37.692l11.718 5.859c9.774 4.887 14.526 13.905 14.526 26.109s-4.752 16.47-14.526 11.583zm6.966-2.187 4.266 2.133c5.184 2.592 7.614.297 7.614-6.129v-6.534c0-6.372-2.43-11.097-7.614-13.689l-4.266-2.133z" fill="#000"/><path d="m.02 31.018 59.981-31.022 59.996 31.022-59.996 29.989z" fill="#b973ff"/><path d="m80.742 39.933c9.206-4.633 9.347-9.652 2.161-13.328-5.89-2.973-13.127-3.358-20.94-.712l-4.669 1.632c-4.833 1.753-7.872 1.802-10.991.256-3.693-1.818-3.578-3.842.383-5.917 3.741-1.927 8.24-2.528 12.894-2.246l-.717-4.512c-6.308-.471-12.94.615-18.771 3.613-7.956 4.216-8.202 9.011-.252 12.92 5.66 2.82 12.704 3.671 20.703.718l4.62-1.7c4.777-1.744 7.88-1.767 10.965-.2 3.71 1.898 3.393 4.174-.926 6.373-3.681 1.906-8.423 2.81-14.43 2.562l.401 4.522c6.392.423 13.234-.69 19.569-3.981zm-20.742 21.067 60-30v60l-60 30z" fill="#000"/><path d="m86.394 83.169v14.634l-7.074 3.537v-37.692l14.31-7.155c7.29-3.645 11.34-1.188 11.34 5.994 0 5.508-2.7 10.908-7.398 14.283l8.046 11.421-7.776 3.888-7.182-11.043zm0-5.508 5.778-2.889c3.78-1.89 5.346-4.185 5.346-7.533v-2.052c0-3.348-1.566-4.077-5.346-2.187l-5.778 2.889z" fill="#fff"/></g></svg>