<svg height="60" viewBox="0 0 180 60" width="180" xmlns="http://www.w3.org/2000/svg"><g fill="none" fill-rule="evenodd"><path d="m0 0h60v60h-60z" fill="#73ffe1"/><path d="m17 48.692v-37.692h11.718c9.774 0 14.526 6.642 14.526 18.846s-4.752 18.846-14.526 18.846zm6.966-5.67h4.266c5.184 0 7.614-3.51 7.614-9.936v-6.534c0-6.372-2.43-9.882-7.614-9.882h-4.266z" fill="#000"/><g transform="translate(60)"><path d="m0 0h60v60h-60z" fill="#b973ff"/><path d="m29.878 49.988c-6.426 0-11.016-2.43-13.878-6.102l4.266-4.428c2.808 3.24 6.102 4.752 9.828 4.752 4.32 0 6.696-2.052 6.696-5.67 0-2.97-1.566-4.428-5.67-5.076l-3.996-.648c-6.966-1.188-9.666-5.4-9.666-10.638 0-7.182 5.022-11.178 13.23-11.178 5.886 0 10.206 1.998 12.798 5.238l-4.158 4.428c-1.998-2.376-4.806-3.888-8.586-3.888-4.05 0-6.156 1.728-6.156 5.076 0 2.862 1.566 4.266 5.724 4.968l3.942.702c6.48 1.188 9.666 4.914 9.666 10.53 0 7.02-4.914 11.934-14.04 11.934z" fill="#000"/></g><g transform="translate(120)"><path d="m0 0h60v60h-60z" fill="#fff"/><path d="m24.074 34.058v14.634h-7.074v-37.692h14.31c7.29 0 11.34 4.482 11.34 11.664 0 5.508-2.7 9.558-7.398 10.584l8.046 15.444h-7.776l-7.182-14.634zm0-5.508h5.778c3.78 0 5.346-1.512 5.346-4.86v-2.052c0-3.348-1.566-4.86-5.346-4.86h-5.778z" fill="#000"/></g></g></svg>