<svg xmlns="http://www.w3.org/2000/svg" width="96" height="96" viewBox="0 0 96 96">
  <g fill="none" fill-rule="evenodd">
    <path fill="#FFF" d="M7.24,84.56 L7.24,95.4 L2,95.4 L2,67.48 L12.6,67.48 C18,67.48 21,70.8 21,76.12 C21,80.2 19,83.2 15.52,83.96 L21.48,95.4 L15.72,95.4 L10.4,84.56 L7.24,84.56 Z M7.24,80.48 L11.52,80.48 C14.32,80.48 15.48,79.36 15.48,76.88 L15.48,75.36 C15.48,72.88 14.32,71.76 11.52,71.76 L7.24,71.76 L7.24,80.48 Z M43.76,95.4 L26.12,95.4 L26.12,67.48 L43.76,67.48 L43.76,71.8 L31.36,71.8 L31.36,79.08 L43.32,79.08 L43.32,83.4 L31.36,83.4 L31.36,91.08 L43.76,91.08 L43.76,95.4 Z M55.24,95.4 L50,95.4 L50,67.48 L60.6,67.48 C66,67.48 69,70.8 69,76.12 C69,81.4 66,84.76 60.6,84.76 L55.24,84.76 L55.24,95.4 Z M55.24,71.76 L55.24,80.48 L59.52,80.48 C62.32,80.48 63.48,79.36 63.48,76.88 L63.48,75.36 C63.48,72.88 62.32,71.76 59.52,71.76 L55.24,71.76 Z M82.8,95.88 C75.52,95.88 72.24,90.56 72.24,81.44 C72.24,72.32 75.52,67 82.8,67 C90.08,67 93.36,72.32 93.36,81.44 C93.36,90.56 90.08,95.88 82.8,95.88 Z M82.8,91.6 C86.52,91.6 87.8,88.64 87.8,83.8 L87.8,79.04 C87.8,74.24 86.52,71.28 82.8,71.28 C79.08,71.28 77.8,74.24 77.8,79.04 L77.8,83.84 C77.8,88.64 79.08,91.6 82.8,91.6 Z"/>
    <rect width="96" height="32" fill="#73FFE1"/>
    <path fill="#000" d="M5.42,25 L5.42,8.248 L11.516,8.248 C15.884,8.248 18.74,11.056 18.74,16.624 C18.74,22.192 15.884,25 11.516,25 L5.42,25 Z M8.588,22.192 L11.516,22.192 C13.868,22.192 15.38,20.8 15.38,17.944 L15.38,15.304 C15.38,12.448 13.868,11.056 11.516,11.056 L8.588,11.056 L8.588,22.192 Z M32.996,25 L21.956,25 L21.956,8.248 L32.996,8.248 L32.996,11.056 L25.124,11.056 L25.124,14.992 L32.084,14.992 L32.084,17.8 L25.124,17.8 L25.124,22.192 L32.996,22.192 L32.996,25 Z M41.564,25.288 C38.708,25.288 36.74,24.16 35.324,22.504 L37.46,20.44 C38.612,21.784 40.028,22.504 41.756,22.504 C43.7,22.504 44.708,21.568 44.708,20.152 C44.708,19.024 44.18,18.328 42.428,18.016 L40.844,17.776 C37.46,17.248 35.828,15.64 35.828,12.904 C35.828,9.904 38.156,7.96 41.9,7.96 C44.42,7.96 46.292,8.824 47.636,10.432 L45.476,12.472 C44.66,11.44 43.508,10.744 41.732,10.744 C39.932,10.744 38.996,11.464 38.996,12.712 C38.996,13.984 39.716,14.512 41.324,14.8 L42.884,15.088 C46.268,15.688 47.852,17.2 47.852,19.96 C47.852,23.128 45.572,25.288 41.564,25.288 Z M57.932,25 L50.324,25 L50.324,22.456 L52.532,22.456 L52.532,10.792 L50.324,10.792 L50.324,8.248 L57.932,8.248 L57.932,10.792 L55.7,10.792 L55.7,22.456 L57.932,22.456 L57.932,25 Z M71.852,25 L71.852,22.408 L71.756,22.408 C71.468,24.04 69.884,25.288 67.364,25.288 C63.428,25.288 60.452,22.288 60.452,16.672 C60.452,11.056 63.452,7.96 67.916,7.96 C70.892,7.96 73.052,9.328 74.252,11.776 L71.684,13.288 C71.084,11.848 69.908,10.768 67.916,10.768 C65.444,10.768 63.812,12.328 63.812,15.28 L63.812,17.968 C63.812,20.896 65.444,22.48 67.964,22.48 C69.932,22.48 71.54,21.52 71.54,19.624 L71.54,18.544 L68.252,18.544 L68.252,15.88 L74.588,15.88 L74.588,25 L71.852,25 Z M88.1,25 L83.06,16.408 L81.332,12.928 L81.26,12.928 L81.26,25 L78.26,25 L78.26,8.248 L81.74,8.248 L86.78,16.84 L88.508,20.32 L88.58,20.32 L88.58,8.248 L91.58,8.248 L91.58,25 L88.1,25 Z"/>
    <rect width="96" height="32" y="32" fill="#B973FF"/>
    <path fill="#000" d="M9.176,57.288 C6.32,57.288 4.352,56.16 2.936,54.504 L5.072,52.44 C6.224,53.784 7.64,54.504 9.368,54.504 C11.312,54.504 12.32,53.568 12.32,52.152 C12.32,51.024 11.792,50.328 10.04,50.016 L8.456,49.776 C5.072,49.248 3.44,47.64 3.44,44.904 C3.44,41.904 5.768,39.96 9.512,39.96 C12.032,39.96 13.904,40.824 15.248,42.432 L13.088,44.472 C12.272,43.44 11.12,42.744 9.344,42.744 C7.544,42.744 6.608,43.464 6.608,44.712 C6.608,45.984 7.328,46.512 8.936,46.8 L10.496,47.088 C13.88,47.688 15.464,49.2 15.464,51.96 C15.464,55.128 13.184,57.288 9.176,57.288 Z M25.832,57 L22.64,57 L22.64,50.424 L16.904,40.248 L20.456,40.248 L24.32,47.328 L24.368,47.328 L28.136,40.248 L31.592,40.248 L25.832,50.4 L25.832,57 Z M39.008,57.288 C36.152,57.288 34.184,56.16 32.768,54.504 L34.904,52.44 C36.056,53.784 37.472,54.504 39.2,54.504 C41.144,54.504 42.152,53.568 42.152,52.152 C42.152,51.024 41.624,50.328 39.872,50.016 L38.288,49.776 C34.904,49.248 33.272,47.64 33.272,44.904 C33.272,41.904 35.6,39.96 39.344,39.96 C41.864,39.96 43.736,40.824 45.08,42.432 L42.92,44.472 C42.104,43.44 40.952,42.744 39.176,42.744 C37.376,42.744 36.44,43.464 36.44,44.712 C36.44,45.984 37.16,46.512 38.768,46.8 L40.328,47.088 C43.712,47.688 45.296,49.2 45.296,51.96 C45.296,55.128 43.016,57.288 39.008,57.288 Z M59.792,43.056 L55.04,43.056 L55.04,57 L51.872,57 L51.872,43.056 L47.12,43.056 L47.12,40.248 L59.792,40.248 L59.792,43.056 Z M73.424,57 L62.384,57 L62.384,40.248 L73.424,40.248 L73.424,43.056 L65.552,43.056 L65.552,46.992 L72.512,46.992 L72.512,49.8 L65.552,49.8 L65.552,54.192 L73.424,54.192 L73.424,57 Z M89.456,57 L89.456,45.096 L89.36,45.096 L88.088,47.64 L84.608,53.976 L81.176,47.664 L79.856,44.976 L79.784,44.976 L79.784,57 L76.784,57 L76.784,40.248 L80.288,40.248 L84.584,48.432 L84.656,48.432 L88.928,40.248 L92.456,40.248 L92.456,57 L89.456,57 Z"/>
  </g>
</svg>
