<svg xmlns="http://www.w3.org/2000/svg" width="97" height="97" viewBox="0 0 97 97"><g fill="none" fill-rule="evenodd" transform="translate(-1)"><path fill="#FFF" d="M6.462 84.618V96H.96V66.684h11.13c5.67 0 8.82 3.486 8.82 9.072 0 4.284-2.1 7.434-5.754 8.232L21.414 96h-6.048L9.78 84.618H6.462zm0-4.284h4.494c2.94 0 4.158-1.176 4.158-3.78v-1.596c0-2.604-1.218-3.78-4.158-3.78H6.462v9.156zM44.808 96H26.286V66.684h18.522v4.536h-13.02v7.644h12.558V83.4H31.788v8.064h13.02V96zm12.054 0H51.36V66.684h11.13c5.67 0 8.82 3.486 8.82 9.072 0 5.544-3.15 9.072-8.82 9.072h-5.628V96zm0-24.822v9.156h4.494c2.94 0 4.158-1.176 4.158-3.78v-1.596c0-2.604-1.218-3.78-4.158-3.78h-4.494zM85.8 96.504c-7.644 0-11.088-5.586-11.088-15.162S78.156 66.18 85.8 66.18c7.644 0 11.088 5.586 11.088 15.162S93.444 96.504 85.8 96.504zm0-4.494c3.906 0 5.25-3.108 5.25-8.19v-4.998c0-5.04-1.344-8.148-5.25-8.148-3.906 0-5.25 3.108-5.25 8.148v5.04c0 5.04 1.344 8.148 5.25 8.148z"/><path fill="#73FFE1" d="M1 0H97V32H1z"/><path fill="#000" d="M6.42 25V8.248h6.096c4.368 0 7.224 2.808 7.224 8.376S16.884 25 12.516 25H6.42zm3.168-2.808h2.928c2.352 0 3.864-1.392 3.864-4.248v-2.64c0-2.856-1.512-4.248-3.864-4.248H9.588v11.136zM33.996 25h-11.04V8.248h11.04v2.808h-7.872v3.936h6.96V17.8h-6.96v4.392h7.872V25zm8.568.288c-2.856 0-4.824-1.128-6.24-2.784l2.136-2.064c1.152 1.344 2.568 2.064 4.296 2.064 1.944 0 2.952-.936 2.952-2.352 0-1.128-.528-1.824-2.28-2.136l-1.584-.24c-3.384-.528-5.016-2.136-5.016-4.872 0-3 2.328-4.944 6.072-4.944 2.52 0 4.392.864 5.736 2.472l-2.16 2.04c-.816-1.032-1.968-1.728-3.744-1.728-1.8 0-2.736.72-2.736 1.968 0 1.272.72 1.8 2.328 2.088l1.56.288c3.384.6 4.968 2.112 4.968 4.872 0 3.168-2.28 5.328-6.288 5.328zM58.932 25h-7.608v-2.544h2.208V10.792h-2.208V8.248h7.608v2.544H56.7v11.664h2.232V25zm13.92 0v-2.592h-.096c-.288 1.632-1.872 2.88-4.392 2.88-3.936 0-6.912-3-6.912-8.616s3-8.712 7.464-8.712c2.976 0 5.136 1.368 6.336 3.816l-2.568 1.512c-.6-1.44-1.776-2.52-3.768-2.52-2.472 0-4.104 1.56-4.104 4.512v2.688c0 2.928 1.632 4.512 4.152 4.512 1.968 0 3.576-.96 3.576-2.856v-1.08h-3.288V15.88h6.336V25h-2.736zM89.1 25l-5.04-8.592-1.728-3.48h-.072V25h-3V8.248h3.48l5.04 8.592 1.728 3.48h.072V8.248h3V25H89.1z"/><path fill="#B973FF" d="M1 32H97V64H1z"/><path fill="#000" d="M10.36 56.24c-2.38 0-4.02-.94-5.2-2.32l1.78-1.72c.96 1.12 2.14 1.72 3.58 1.72 1.62 0 2.46-.78 2.46-1.96 0-.94-.44-1.52-1.9-1.78l-1.32-.2c-2.82-.44-4.18-1.78-4.18-4.06 0-2.5 1.94-4.12 5.06-4.12 2.1 0 3.66.72 4.78 2.06l-1.8 1.7c-.68-.86-1.64-1.44-3.12-1.44-1.5 0-2.28.6-2.28 1.64 0 1.06.6 1.5 1.94 1.74l1.3.24c2.82.5 4.14 1.76 4.14 4.06 0 2.64-1.9 4.44-5.24 4.44zM24.24 56h-2.66v-5.48l-4.78-8.48h2.96l3.22 5.9h.04l3.14-5.9h2.88l-4.8 8.46V56zm10.98.24c-2.38 0-4.02-.94-5.2-2.32l1.78-1.72c.96 1.12 2.14 1.72 3.58 1.72 1.62 0 2.46-.78 2.46-1.96 0-.94-.44-1.52-1.9-1.78l-1.32-.2c-2.82-.44-4.18-1.78-4.18-4.06 0-2.5 1.94-4.12 5.06-4.12 2.1 0 3.66.72 4.78 2.06l-1.8 1.7c-.68-.86-1.64-1.44-3.12-1.44-1.5 0-2.28.6-2.28 1.64 0 1.06.6 1.5 1.94 1.74l1.3.24c2.82.5 4.14 1.76 4.14 4.06 0 2.64-1.9 4.44-5.24 4.44zm17.32-11.86h-3.96V56h-2.64V44.38h-3.96v-2.34h10.56v2.34zM63.9 56h-9.2V42.04h9.2v2.34h-6.56v3.28h5.8V50h-5.8v3.66h6.56V56zm13.36 0v-9.92h-.08l-1.06 2.12-2.9 5.28-2.86-5.26-1.1-2.24h-.06V56h-2.5V42.04h2.92l3.58 6.82h.06l3.56-6.82h2.94V56h-2.5zm10.12.24c-2.38 0-4.02-.94-5.2-2.32l1.78-1.72c.96 1.12 2.14 1.72 3.58 1.72 1.62 0 2.46-.78 2.46-1.96 0-.94-.44-1.52-1.9-1.78l-1.32-.2c-2.82-.44-4.18-1.78-4.18-4.06 0-2.5 1.94-4.12 5.06-4.12 2.1 0 3.66.72 4.78 2.06l-1.8 1.7c-.68-.86-1.64-1.44-3.12-1.44-1.5 0-2.28.6-2.28 1.64 0 1.06.6 1.5 1.94 1.74l1.3.24c2.82.5 4.14 1.76 4.14 4.06 0 2.64-1.9 4.44-5.24 4.44z"/></g></svg>