<svg xmlns="http://www.w3.org/2000/svg" width="143" height="36" viewBox="0 0 143 36"><g fill="none" fill-rule="evenodd"><g transform="translate(93)"><path fill="#B973FF" d="M0 30H50V36H0z"/><path fill="#73FFE1" d="M0 0H50V6H0z"/></g><path fill="#F4F5F8" d="M95.868 19.729v6.005H93V10.266h5.801c2.956 0 4.597 1.84 4.597 4.787 0 2.26-1.094 3.922-2.999 4.343l3.262 6.338h-3.152l-2.912-6.005h-1.73zm0-2.26h2.342c1.533 0 2.167-.621 2.167-1.995v-.842c0-1.374-.634-1.995-2.167-1.995h-2.342v4.831zm19.987 8.265H106.2V10.266h9.654v2.393h-6.787v4.034h6.546v2.393h-6.546v4.255h6.787v2.393zm6.282 0h-2.867V10.266h5.8c2.956 0 4.598 1.84 4.598 4.787 0 2.925-1.642 4.786-4.597 4.786h-2.934v5.895zm0-13.097v4.831h2.343c1.532 0 2.167-.62 2.167-1.994v-.842c0-1.374-.635-1.995-2.167-1.995h-2.343zM137.221 26c-3.985 0-5.78-2.947-5.78-8s1.795-8 5.78-8c3.984 0 5.779 2.947 5.779 8s-1.795 8-5.78 8zm0-2.371c2.036 0 2.736-1.64 2.736-4.322V16.67c0-2.659-.7-4.299-2.736-4.299-2.036 0-2.737 1.64-2.737 4.3v2.659c0 2.659.7 4.299 2.737 4.299z"/><path fill="#73FFE1" d="M1 17.04V.288h6.096c4.368 0 7.224 2.808 7.224 8.376s-2.856 8.376-7.224 8.376H1zm3.168-2.808h2.928c2.352 0 3.864-1.392 3.864-4.248v-2.64c0-2.856-1.512-4.248-3.864-4.248H4.168v11.136zm24.408 2.808h-11.04V.288h11.04v2.808h-7.872v3.936h6.96V9.84h-6.96v4.392h7.872v2.808zm8.568.288c-2.856 0-4.824-1.128-6.24-2.784l2.136-2.064c1.152 1.344 2.568 2.064 4.296 2.064 1.944 0 2.952-.936 2.952-2.352 0-1.128-.528-1.824-2.28-2.136l-1.584-.24c-3.384-.528-5.016-2.136-5.016-4.872 0-3 2.328-4.944 6.072-4.944 2.52 0 4.392.864 5.736 2.472l-2.16 2.04c-.816-1.032-1.968-1.728-3.744-1.728-1.8 0-2.736.72-2.736 1.968 0 1.272.72 1.8 2.328 2.088l1.56.288c3.384.6 4.968 2.112 4.968 4.872 0 3.168-2.28 5.328-6.288 5.328zm16.368-.288h-7.608v-2.544h2.208V2.832h-2.208V.288h7.608v2.544H51.28v11.664h2.232v2.544zm13.92 0v-2.592h-.096c-.288 1.632-1.872 2.88-4.392 2.88-3.936 0-6.912-3-6.912-8.616S59.032 0 63.496 0c2.976 0 5.136 1.368 6.336 3.816l-2.568 1.512c-.6-1.44-1.776-2.52-3.768-2.52-2.472 0-4.104 1.56-4.104 4.512v2.688c0 2.928 1.632 4.512 4.152 4.512 1.968 0 3.576-.96 3.576-2.856v-1.08h-3.288V7.92h6.336v9.12h-2.736zm16.248 0l-5.04-8.592-1.728-3.48h-.072V17.04h-3V.288h3.48l5.04 8.592 1.728 3.48h.072V.288h3V17.04h-3.48z"/><path fill="#B973FF" d="M5.2 35.44c-2.38 0-4.02-.94-5.2-2.32l1.78-1.72c.96 1.12 2.14 1.72 3.58 1.72 1.62 0 2.46-.78 2.46-1.96 0-.94-.44-1.52-1.9-1.78l-1.32-.2C1.78 28.74.42 27.4.42 25.12c0-2.5 1.94-4.12 5.06-4.12 2.1 0 3.66.72 4.78 2.06l-1.8 1.7c-.68-.86-1.64-1.44-3.12-1.44-1.5 0-2.28.6-2.28 1.64 0 1.06.6 1.5 1.94 1.74l1.3.24c2.82.5 4.14 1.76 4.14 4.06 0 2.64-1.9 4.44-5.24 4.44zm13.88-.24h-2.66v-5.48l-4.78-8.48h2.96l3.22 5.9h.04l3.14-5.9h2.88l-4.8 8.46v5.5zm10.98.24c-2.38 0-4.02-.94-5.2-2.32l1.78-1.72c.96 1.12 2.14 1.72 3.58 1.72 1.62 0 2.46-.78 2.46-1.96 0-.94-.44-1.52-1.9-1.78l-1.32-.2c-2.82-.44-4.18-1.78-4.18-4.06 0-2.5 1.94-4.12 5.06-4.12 2.1 0 3.66.72 4.78 2.06l-1.8 1.7c-.68-.86-1.64-1.44-3.12-1.44-1.5 0-2.28.6-2.28 1.64 0 1.06.6 1.5 1.94 1.74l1.3.24c2.82.5 4.14 1.76 4.14 4.06 0 2.64-1.9 4.44-5.24 4.44zm17.32-11.86h-3.96V35.2h-2.64V23.58h-3.96v-2.34h10.56v2.34zM58.74 35.2h-9.2V21.24h9.2v2.34h-6.56v3.28h5.8v2.34h-5.8v3.66h6.56v2.34zm13.36 0v-9.92h-.08l-1.06 2.12-2.9 5.28-2.86-5.26-1.1-2.24h-.06V35.2h-2.5V21.24h2.92l3.58 6.82h.06l3.56-6.82h2.94V35.2h-2.5zm10.12.24c-2.38 0-4.02-.94-5.2-2.32l1.78-1.72c.96 1.12 2.14 1.72 3.58 1.72 1.62 0 2.46-.78 2.46-1.96 0-.94-.44-1.52-1.9-1.78l-1.32-.2c-2.82-.44-4.18-1.78-4.18-4.06 0-2.5 1.94-4.12 5.06-4.12 2.1 0 3.66.72 4.78 2.06l-1.8 1.7c-.68-.86-1.64-1.44-3.12-1.44-1.5 0-2.28.6-2.28 1.64 0 1.06.6 1.5 1.94 1.74l1.3.24c2.82.5 4.14 1.76 4.14 4.06 0 2.64-1.9 4.44-5.24 4.44z"/></g></svg>