<svg xmlns="http://www.w3.org/2000/svg" width="21" height="19" viewBox="0 0 21 19"><g fill="none" fill-rule="evenodd" transform="translate(-2 -1)"><path d="M0.959 0H24V23.041H0.959z"/><g fill-rule="nonzero"><path fill="#69C7F1" d="M21.12 5.76h-4.8V2.88a.96.96 0 0 0-.96-.96H9.6a.96.96 0 0 0-.96.96v2.88h-4.8a.96.96 0 0 0-.96.96v11.52c0 .53.43.96.96.96h17.28c.53 0 .96-.43.96-.96V6.72a.96.96 0 0 0-.96-.96zM10.56 3.84h3.84v1.92h-3.84V3.84zm9.6 13.44H4.8v-9.6h15.36v9.6z"/><path fill="#B973FF" d="M13.617 11.52h-2.273A2.875 2.875 0 0 0 8.64 9.6a2.873 2.873 0 0 0-2.703 1.92H8.64v1.92H5.937a2.87 2.87 0 0 0 2.703 1.92 2.868 2.868 0 0 0 2.703-1.92h2.273a2.87 2.87 0 0 0 2.703 1.92 2.868 2.868 0 0 0 2.703-1.92H16.32v-1.92h2.703A2.874 2.874 0 0 0 16.32 9.6c-1.25 0-2.306.804-2.703 1.92z"/></g></g></svg>