<svg xmlns="http://www.w3.org/2000/svg" width="96" height="78" viewBox="0 0 96 78"><defs><linearGradient id="a" x1="50%" x2="50%" y1="0%" y2="100%"><stop offset="0%" stop-color="#F5FAFD"/><stop offset="100%" stop-color="#C5ECFF"/></linearGradient></defs><g fill="none" fill-rule="evenodd" transform="translate(1)"><path fill="url(#a)" d="M89 42C89 19.017 69.972 0 47 0 23.027 0 4 19.017 4 42c0 6.727 1.361 12.656 4 18h77c2.639-5.344 4-11.273 4-18"/><path d="M8.12 59.514c6.705 14.707 21.585 24.944 38.878 24.944S79.17 74.221 85.876 59.514H8.119z"/><path stroke="#008BCC" stroke-linecap="round" stroke-linejoin="round" stroke-width="1.27" d="M5.384 59.514h83.228m-88.03 0H3.25m87.496 0h2.668"/><path fill="#FFF" d="M47.432 51.382L80.816 51.382 80.816 19.45 47.432 19.45z"/><path fill="#F0F0F0" d="M47.432 22.296L80.816 22.296 80.816 19.45 47.432 19.45z"/><path d="M47.432 51.382L80.816 51.382 80.816 19.45 47.432 19.45z"/><path fill="#35C4A5" d="M49.367 46.716c0 .975.793 1.765 1.77 1.765h25.666c.978 0 1.77-.79 1.77-1.765V37.01a.883.883 0 0 0-.885-.882h-8.113a.736.736 0 0 1-.737-.736v-7.205a.884.884 0 0 0-.885-.883H51.137c-.977 0-1.77.79-1.77 1.765v17.647z"/><path fill="#66EED1" d="M68.838 28.187a.884.884 0 0 0-.885-.883H51.137c-.978 0-1.77.79-1.77 1.765v17.647c0 .597.299 1.122.754 1.441l18.717-18.66v-1.31z"/><path stroke="#6BC2E0" stroke-linecap="round" stroke-linejoin="round" stroke-width=".526" d="M68.838 29.07h9.735m-9.735 3.528h9.735m-6.195-5.293v8.823m3.54-8.823v8.823"/><path fill="#008BCC" d="M51.137 27.305c-.978 0-1.77.79-1.77 1.764v2.647h19.47v-3.53a.884.884 0 0 0-.884-.881H51.137z"/><path fill="#FF6242" d="M53.792 29.51a.883.883 0 0 1-.885.882.883.883 0 1 1 0-1.764c.49 0 .885.395.885.882"/><path fill="#FFE600" d="M57.775 29.51a.883.883 0 0 1-.885.882.883.883 0 1 1 0-1.764c.49 0 .885.395.885.882"/><path fill="#6DD627" d="M61.315 29.51a.883.883 0 0 1-.885.882.883.883 0 1 1 0-1.764c.489 0 .885.395.885.882"/><path fill="#DAEDF7" d="M81.458 16.895H46.791a1.28 1.28 0 0 0-1.284 1.277 1.28 1.28 0 0 0 1.284 1.277h34.667a1.28 1.28 0 0 0 1.285-1.277c0-.705-.575-1.277-1.285-1.277"/><path fill="#FFF" d="M46.79 18.172h34.67c.474 0 .888.257 1.111.64.11-.189.172-.406.172-.64a1.28 1.28 0 0 0-1.284-1.277H46.791a1.28 1.28 0 0 0-1.284 1.277c0 .234.062.451.172.64a1.284 1.284 0 0 1 1.112-.64"/><path d="M81.458 16.895H46.791a1.28 1.28 0 0 0-1.284 1.277 1.28 1.28 0 0 0 1.284 1.277h34.667a1.28 1.28 0 0 0 1.285-1.277c0-.705-.575-1.277-1.285-1.277z"/><path fill="#DAEDF7" d="M81.458 51.383H46.791a1.28 1.28 0 0 0-1.284 1.277 1.28 1.28 0 0 0 1.284 1.277h34.667c.71 0 1.285-.572 1.285-1.277a1.28 1.28 0 0 0-1.285-1.277"/><path fill="#FFF" d="M46.79 52.66h34.67c.474 0 .888.257 1.111.64a1.28 1.28 0 0 0-1.112-1.916H46.791a1.28 1.28 0 0 0-1.112 1.915 1.284 1.284 0 0 1 1.112-.639"/><path d="M81.458 51.383H46.791a1.28 1.28 0 0 0-1.284 1.277 1.28 1.28 0 0 0 1.284 1.277h34.667c.71 0 1.285-.572 1.285-1.277a1.28 1.28 0 0 0-1.285-1.277z"/><path stroke="#008BCC" stroke-linecap="round" stroke-linejoin="round" stroke-width="1.27" d="M57.063 16.895L64.124 11.147 71.187 16.895"/><path fill="#F0F0F0" d="M66.051 11.147a1.923 1.923 0 0 1-1.927 1.917 1.92 1.92 0 0 1-1.925-1.917 1.92 1.92 0 0 1 1.925-1.915c1.064 0 1.927.857 1.927 1.915"/><path fill="#FFF" d="M64.125 10.935c.756 0 1.41.433 1.725 1.064a1.9 1.9 0 0 0 .202-.852 1.92 1.92 0 0 0-1.927-1.915 1.92 1.92 0 0 0-1.926 1.915c0 .306.073.596.201.852a1.925 1.925 0 0 1 1.725-1.064"/><g><path fill="#FFCEBF" d="M47.162 39.424l5.432-13.054"/><path stroke="#1A1816" stroke-linecap="round" stroke-linejoin="round" stroke-width="1.27" d="M46 40.652l9.386-10.574"/></g><g transform="translate(19 29)"><path fill="#020202" d="M24.778 46.197c0 1.01-5.494 1.831-12.271 1.831-6.778 0-12.27-.82-12.27-1.83 0-1.012 5.492-1.833 12.27-1.833 6.777 0 12.27.82 12.27 1.832" opacity=".15"/><path fill="#FFD0A9" d="M6.092 22.993L8.19 45.587 16.78 45.587 18.974 22.993z"/><path stroke="#FFF" stroke-linecap="round" stroke-linejoin="round" stroke-width="1.27" d="M12.485 26.887v17.688"/><path fill="#0C4560" d="M12.507 45.587c0-2.022-1.649-3.662-3.681-3.662h-.614a3.683 3.683 0 0 0-3.19 1.83 1.219 1.219 0 0 0 1.064 1.832h6.421zm0 0a3.671 3.671 0 0 1 3.68-3.662h.614c1.363 0 2.553.735 3.189 1.83a1.219 1.219 0 0 1-1.063 1.832h-6.42z"/><path fill="#006898" d="M5.736 21.119L6.372 33.99 18.643 33.99 19.233 21.119 19.255 18.99 5.758 18.99z"/><path fill="#4ACFFF" d="M23.55 11.408C23.55 5.34 18.606.422 12.507.422 6.407.422 1.463 5.34 1.44 11.408v3.051h4.318v9.155l5.521.61 1.228-3.661 1.227 3.662 5.521-.61V12.627h4.295v-1.22z"/><path fill="#83DEFF" d="M23.55 11.408C23.55 5.34 18.606.422 12.505.422 6.407.422 1.463 5.34 1.44 11.408v2.43C1.463 7.768 6.407 2.85 12.505 2.85c5.26 0 9.652 3.66 10.765 8.557h.28z"/><path fill="#FFF" d="M16.216 1.057l-3.73 12.182-3.302-9.875-.725-2.174a10.92 10.92 0 0 1 4.05-.768c1.313 0 2.54.208 3.707.635"/><path stroke="#F0F0F0" stroke-linecap="round" stroke-linejoin="round" d="M16.057 1.428l-3.548 10.931-3.325-8.995-.513-1.729c1.252-.5 2.414-1.213 3.838-1.213 1.313 0 2.382.579 3.548 1.006z"/><path fill="#FFD0A9" d="M1.44 11.42v12.499c0 1.185.98 2.137 2.17 2.137s2.148-.952 2.148-2.137l-.022-12.5H1.44z"/><path d="M5.732 11.42a3.644 3.644 0 0 0-.65-1.685c-.33-.463-.552-1.233-.552-2.001"/><path stroke="#3CBEED" stroke-linecap="round" stroke-linejoin="round" d="M12.485 12.5v8.058"/><path d="M19.261 11.403a3.642 3.642 0 0 1 .648-1.668c.332-.464.552-1.232.552-2"/><path fill="#3CBEED" d="M7.724 8.918l.22-3.296-2.392.146-.172-2.734a10.481 10.481 0 0 1 3.08-1.843l4.025 12.047-4.761-4.32z"/><path fill="#3CBEED" d="M19.258 2.729l-.147 2.307-.05.744-2.393-.146.234 3.296-4.417 4.308 3.73-12.181c1.104.39 2.135.952 3.043 1.672z"/><path d="M12.298 0.422L10.177 6.335 8.459 1.191"/><path d="M16.216 1.057l-1.72 5.615-1.312-3.796-.883-2.454h.208c1.301 0 2.553.218 3.707.635z"/><path fill="#FFD0A9" d="M23.522 11.236c.045.682.573 1.387 1.25 1.387.678 0 1.227-.545 1.227-1.22 0-1.174.962-2.132 2.147-2.132 1.187 0 2.148.958 2.148 2.137 0 3.028-2.472 5.488-5.522 5.488-2.702 0-5.021-1.722-5.513-4.273-.063-.327-.091-.875-.091-1.22l4.354-.167z"/><path fill="#FFD0A9" d="M29.51 13.207l-1.825-.747a1.856 1.856 0 0 1-1.016-2.425l.213-.516a1.872 1.872 0 0 1 2.438-1.01l1.825.748c.546.222.805.843.58 1.385l-.822 1.988c-.224.542-.847.8-1.392.577"/></g><g><path fill="#804BB5" d="M35 11c-.99-.631-2.16-.903-3-1-2.325-.09-3.917.317-5 1-3.284 1.75-5 4.88-5 8v11c0 .737.288 1.025 1 1 2.056-.201 3.073-1.586 3-4v-5c.327-2.008 1.618-3.308 3-3h4c1.382-.308 2.673.992 3 3v5c-.074 2.414.944 3.799 3 4 .712.025 1-.263 1-1V19c0-3.146-1.745-6.265-5-8"/><path fill="#B973FF" d="M35 11c-.99-.615-2.16-.9-3-1-2.325-.094-3.917.33-5 1-3.284 1.866-5 5.13-5 8v4c0-3.31 1.716-6.573 5-8 1.083-1.11 2.675-1.535 5-1 .84-.34 2.01-.055 3 1 3.255 1.411 5 4.663 5 8v-4c0-2.897-1.745-6.15-5-8"/><path fill="#FFD0A9" d="M27 18c-.603-.142-1.383.28-2 1l-1 3c-2.63.142-2.486 3.833 0 4 .848 2.82 3.65 5 7 5s6.153-2.18 7-5c2.485-.167 2.63-3.858 0-4l-1-3c-.639-.723-1.416-1.142-2-1h-8z"/><g fill="#FFC147"><path d="M27.5 24.75a.75.75 0 1 1-1.499.002.75.75 0 0 1 1.499-.003m8.5 0a.75.75 0 1 1-1.499.003.75.75 0 0 1 1.499-.003"/></g><path stroke="#494035" stroke-linecap="round" stroke-linejoin="round" d="M28.5 27c1.514.696 3.486.696 5 0"/><g stroke="#494035" stroke-linecap="round" stroke-linejoin="round"><path d="M27.535 22.562a.87.87 0 0 1 1.226 0m4.682 0a.872.872 0 0 1 1.227 0"/></g><path fill="#804BB5" d="M37.632 17.134v1.83c0 .675-.55 1.221-1.226 1.221h-9.818a1.224 1.224 0 0 1-1.227-1.22v-1.831"/></g></g></svg>