<svg height="72" viewBox="0 0 94 72" width="94" xmlns="http://www.w3.org/2000/svg" xmlns:xlink="http://www.w3.org/1999/xlink"><linearGradient id="a" x1="50%" x2="50%" y1="0%" y2="100%"><stop offset="0" stop-color="#f5fafd"/><stop offset="1" stop-color="#c5ecff"/></linearGradient><g fill="none" fill-rule="evenodd"><path d="m89.675 43c0-23.448-19.11-42.458-42.68-42.458-23.573 0-42.683 19.01-42.683 42.458a42.106 42.106 0 0 0 3.803 17.514h77.756a42.09 42.09 0 0 0 3.804-17.514" fill="url(#a)"/><path d="m8.116 60.514c6.706 14.707 21.586 24.944 38.878 24.944s32.172-10.237 38.878-24.944z"/><path d="m68.595 60.441h5.081v-6.323h-5.081zm-25.406 0h5.081v-6.323h-5.081z" fill="#d18660"/><path d="m58.198 35.836c-9.135 0-16.539 7.365-16.539 16.452v1.062c0 .586.478 1.061 1.067 1.061h5.335v5.838h20.274v-5.838h5.335c.589 0 1.067-.475 1.067-1.061v-1.062c0-9.087-7.404-16.452-16.539-16.452" fill="#f0f0f0"/><path d="m58.198 35.836c-9.135 0-16.539 7.365-16.539 16.452v1.062c0 .19.05.367.138.521 1.05-8.079 7.993-14.32 16.401-14.32s15.35 6.241 16.401 14.32a1.05 1.05 0 0 0 .138-.521v-1.062c0-9.087-7.404-16.452-16.539-16.452" fill="#fff"/><path d="m58.198 35.836c-9.135 0-16.539 7.365-16.539 16.452v1.062c0 .586.478 1.061 1.067 1.061h5.335v5.838h20.274v-5.838h5.335c.589 0 1.067-.475 1.067-1.061v-1.062c0-9.087-7.404-16.452-16.539-16.452z"/><path d="m61.933 38.489-3.735 3.716-3.735-3.716v-5.837h7.47z" fill="#d18660"/><path d="m54.463 36.352c1.185.35 2.436.545 3.735.545s2.55-.194 3.735-.545v-3.7h-7.47z" fill="#bd704a"/><path d="m61.933 38.489-3.735 3.716-3.735-3.716v-5.837h7.47zm-13.872 13.471v3.716m20.274-3.715v3.715"/><path d="m58.198 42.205c3.739 2.322 2.558 1.6 3.408 2.124.5.308 1.159.16 1.473-.334 1.725-2.713 2.587-6.565 2.587-6.565l-3.733-2.656c-.566 2.845-1.494 5.499-3.735 7.43" fill="#fff"/><path d="m58.198 42.205c3.739 2.322 2.558 1.6 3.408 2.124.5.308 1.159.16 1.473-.334 1.725-2.713 2.587-6.565 2.587-6.565l-3.733-2.656c-.566 2.845-1.494 5.499-3.735 7.43z"/><path d="m58.198 42.205c-3.739 2.322-2.558 1.6-3.408 2.124-.5.308-1.159.16-1.473-.334-1.725-2.713-2.587-6.565-2.587-6.565l3.733-2.656c.566 2.845 1.494 5.499 3.735 7.43" fill="#fff"/><path d="m58.198 42.205c-3.739 2.322-2.558 1.6-3.408 2.124-.5.308-1.159.16-1.473-.334-1.725-2.713-2.587-6.565-2.587-6.565l3.733-2.656c.566 2.845 1.494 5.499 3.735 7.43z"/><path d="m58.198 41.79c-.992-.542-4.027-1.883-5.873-2.22-.565-.104-1.135.238-1.28.791-.363 1.39-.324 3.43.041 5.659a1.15 1.15 0 0 0 1.6.86c1.863-.833 4.583-2.117 5.512-2.822zm0 0c.992-.542 4.027-1.883 5.873-2.22.565-.104 1.135.238 1.28.791.363 1.39.324 3.43-.041 5.659a1.15 1.15 0 0 1 -1.6.86c-1.863-.833-4.583-2.117-5.512-2.822z" fill="#c08df2"/><path d="m54.463 43.266h7.47" stroke="#9164be" stroke-linecap="round" stroke-linejoin="round" stroke-width="1.27"/><path d="m59.265 45.389h-2.134a.532.532 0 0 1 -.534-.53v-3.185c0-.293.24-.53.534-.53h2.134c.295 0 .534.237.534.53v3.184c0 .293-.24.53-.534.53" fill="#ab77de"/><path d="m58.198 45.389v14.86"/><path d="m5.38 60.514h83.228m-88.03 0h2.668m87.496 0h2.668" stroke="#008bcc" stroke-linecap="round" stroke-linejoin="round"/><path d="m45.927 67.352c0 .586-.478 1.061-1.067 1.061h-26.142a1.065 1.065 0 0 1 -1.067-1.061v-1.592c0-.586.478-1.062 1.067-1.062h26.142c.59 0 1.067.476 1.067 1.062z" fill="#66eed1"/><path d="m43.793 60.983c0 .586-.478 1.062-1.067 1.062h-21.874a1.065 1.065 0 0 1 -1.067-1.062v-1.592c0-.586.478-1.061 1.067-1.061h21.874c.59 0 1.067.475 1.067 1.061z" fill="#006898"/><path d="m43.793 54.614c0 .586-.478 1.062-1.067 1.062h-20.806a1.065 1.065 0 0 1 -1.067-1.062v-3.184c0-.586.478-1.061 1.067-1.061h20.807c.59 0 1.067.475 1.067 1.061v3.184z" fill="#804bb5"/><path d="m43.793 46.654c0 .586-.478 1.061-1.067 1.061h-20.806a1.065 1.065 0 0 1 -1.067-1.061v-3.185c0-.586.478-1.061 1.067-1.061h20.807c.59 0 1.067.475 1.067 1.061v3.185z" fill="#00b8f0"/><path d="m16.584 69.475c0 .88 6.688 1.592 14.938 1.592s14.939-.712 14.939-1.592-6.688-1.592-14.939-1.592c-8.25 0-14.938.712-14.938 1.592" fill="#020202" opacity=".15"/><path d="m44.86 66.821h-26.142a1.065 1.065 0 0 1 -1.067-1.061v1.592c0 .586.478 1.061 1.067 1.061h26.142c.59 0 1.067-.475 1.067-1.061v-1.592c0 .586-.478 1.061-1.067 1.061" fill="#35c4a5"/><path d="m42.726 58.33h-21.874c-.589 0-1.067.475-1.067 1.061v1.592c0-.586.478-1.061 1.067-1.061h21.874c.59 0 1.067.475 1.067 1.061v-1.592c0-.586-.478-1.061-1.067-1.061" fill="#0db2e5"/><path d="m42.726 50.369h-20.806c-.589 0-1.067.475-1.067 1.061v2.123c0-.586.478-1.061 1.067-1.061h20.807c.59 0 1.067.475 1.067 1.061v-2.123c0-.586-.478-1.061-1.067-1.061" fill="#66eed1"/><path d="m42.726 42.408h-20.806c-.589 0-1.067.475-1.067 1.061v2.123c0-.586.478-1.061 1.067-1.061h20.807c.59 0 1.067.475 1.067 1.061v-2.122c0-.586-.478-1.061-1.067-1.061" fill="#4acfff"/><path d="m43.793 46.654c0 .586-.478 1.061-1.067 1.061h-20.806a1.065 1.065 0 0 1 -1.067-1.061v-3.185c0-.586.478-1.061 1.067-1.061h20.807c.59 0 1.067.475 1.067 1.061v3.185z"/><path d="m43.793 63.637c0 .586-.478 1.061-1.067 1.061h-21.874a1.065 1.065 0 0 1 -1.067-1.061v-.53c0-.587.478-1.062 1.067-1.062h21.874c.59 0 1.067.475 1.067 1.061v.53z" fill="#b973ff"/><path d="m42.726 57.268c0 .586-.478 1.062-1.067 1.062h-20.807a1.065 1.065 0 0 1 -1.067-1.062v-.53c0-.587.478-1.062 1.067-1.062h20.808c.59 0 1.067.475 1.067 1.061v.531z" fill="#35c4a5"/><path d="m41.66 49.307c0 .586-.479 1.062-1.068 1.062h-19.74a1.065 1.065 0 0 1 -1.067-1.062v-.53c0-.586.478-1.062 1.067-1.062h19.74c.59 0 1.067.476 1.067 1.062v.53z" fill="#00dfeb"/><path d="m40.059 41.346c0 .586-.478 1.062-1.067 1.062h-19.74a1.065 1.065 0 0 1 -1.067-1.062v-.53c0-.586.478-1.062 1.067-1.062h19.74c.589 0 1.067.476 1.067 1.062z" fill="#804bb5"/><path d="m21.92 64.698v3.715m2.667-18.044v5.307"/><path d="m24.054 47.715h2.134v-5.307h-2.134zm5.335 0h2.134v-5.307h-2.134z" fill="#fff"/><path d="m68.868 21.506v-2.653c0-5.863-4.777-10.615-10.67-10.615s-10.67 4.752-10.67 10.615v2.653a2.13 2.13 0 0 0 -2.134 2.123 2.13 2.13 0 0 0 2.134 2.123c.045 0 .086-.01.131-.013.768 5.111 5.187 9.035 10.539 9.035s9.77-3.924 10.539-9.035c.045.002.086.013.131.013a2.13 2.13 0 0 0 2.134-2.123 2.13 2.13 0 0 0 -2.134-2.123" fill="#d18660"/><path d="m68.868 21.506v-2.653c0-5.863-4.777-10.615-10.67-10.615s-10.67 4.752-10.67 10.615v2.653a2.13 2.13 0 0 0 -2.134 2.123 2.13 2.13 0 0 0 2.134 2.123c.045 0 .086-.01.131-.013.768 5.111 5.187 9.035 10.539 9.035s9.77-3.924 10.539-9.035c.045.002.086.013.131.013a2.13 2.13 0 0 0 2.134-2.123 2.13 2.13 0 0 0 -2.134-2.123z"/><path d="m53.396 26.017a1.33 1.33 0 0 1 -1.333 1.327 1.33 1.33 0 0 1 -1.334-1.327 1.33 1.33 0 0 1 1.334-1.326 1.33 1.33 0 0 1 1.333 1.326m9.604 0a1.33 1.33 0 0 0 1.333 1.327 1.33 1.33 0 0 0 1.334-1.327 1.33 1.33 0 0 0 -1.334-1.326 1.33 1.33 0 0 0 -1.333 1.326" fill="#bd704a"/><path d="m54.988 28.713c1.944 1.703 4.476 1.703 6.42 0" stroke="#723d3d" stroke-linecap="round" stroke-linejoin="round" stroke-width="1.27"/><path d="m67.906 11.23c.275-.772.39-1.46.431-1.98a.53.53 0 0 0 -.214-.469.536.536 0 0 0 -.514-.067 2.17 2.17 0 0 1 -1.408.055 6.484 6.484 0 0 1 -1.163-.454 11.728 11.728 0 0 0 -7.795-2.162c-6.152.49-10.782 5.828-10.782 11.968v3.916l.59.293c.71.354 1.544-.16 1.544-.95v-.404c0-3.474 1.87-6.505 4.656-8.177.786 1.369 2.7 2.339 4.947 2.339.885 0 1.707-.164 2.443-.43.477.88 1.468 1.491 2.626 1.491 1.015 0 1.909-.467 2.436-1.175a9.475 9.475 0 0 1 2.098 5.952v.404c0 .79.835 1.304 1.544.95l.59-.293v-4.245c0-2.433-.75-4.692-2.029-6.562" fill="#724f3d"/><path d="m46.46 20.368c0-6.14 4.63-11.479 10.783-11.967 2.922-.234 5.63.612 7.795 2.16.32.162.707.326 1.163.454.887.25 1.53-.065 1.867-.306a7.712 7.712 0 0 0 .267-1.457.531.531 0 0 0 -.728-.537c-.355.14-.831.217-1.406.054a6.569 6.569 0 0 1 -1.163-.453 11.716 11.716 0 0 0 -7.795-2.162c-6.152.488-10.782 5.827-10.782 11.966v2.248z" fill="#a86c4e"/><path d="m67.906 11.23c.275-.772.39-1.46.431-1.98a.53.53 0 0 0 -.214-.469.536.536 0 0 0 -.514-.067 2.17 2.17 0 0 1 -1.408.055 6.484 6.484 0 0 1 -1.163-.454 11.728 11.728 0 0 0 -7.795-2.162c-6.152.49-10.782 5.828-10.782 11.968v3.916l.59.293c.71.354 1.544-.16 1.544-.95v-.404c0-3.474 1.87-6.505 4.656-8.177.786 1.369 2.7 2.339 4.947 2.339.885 0 1.707-.164 2.443-.43.477.88 1.468 1.491 2.626 1.491 1.015 0 1.909-.467 2.436-1.175a9.475 9.475 0 0 1 2.098 5.952v.404c0 .79.835 1.304 1.544.95l.59-.293v-4.245c0-2.433-.75-4.692-2.029-6.562z"/><path d="m57.131 20.976h2.134" stroke="#0db2e5" stroke-linecap="round" stroke-linejoin="round" stroke-width="1.27"/><path d="m65.667 24.69h-4.267a2.13 2.13 0 0 1 -2.134-2.122v-2.123c0-.293.24-.53.534-.53h6.4c.294 0 .533.237.533.53v3.184c0 .586-.478 1.062-1.067 1.062" fill="#00b8f0"/><path d="m60.736 24.576 4.017-4.662h-4.955a.533.533 0 0 0 -.533.53v2.123c0 .942.62 1.73 1.471 2.009" fill="#4acfff"/><path d="m54.997 24.69h-4.268a1.065 1.065 0 0 1 -1.067-1.06v-3.185c0-.293.239-.53.533-.53h6.402c.295 0 .534.237.534.53v2.123a2.13 2.13 0 0 1 -2.134 2.123" fill="#00b8f0"/><path d="m50.197 19.914a.532.532 0 0 0 -.533.53v3.185c0 .586.478 1.062 1.067 1.062h.228l4.117-4.777z" fill="#4acfff"/><g stroke-linecap="round" stroke-linejoin="round" stroke-width="1.27"><path d="m54.997 24.69h-4.268a1.065 1.065 0 0 1 -1.067-1.06v-3.185c0-.293.239-.53.533-.53h6.402c.295 0 .534.237.534.53v2.123a2.13 2.13 0 0 1 -2.134 2.123zm6.402 0h4.268c.59 0 1.067-.475 1.067-1.06v-3.185a.532.532 0 0 0 -.533-.53h-6.402a.532.532 0 0 0 -.534.53v2.123a2.13 2.13 0 0 0 2.134 2.123z" stroke="#0db2e5"/><path d="m64.609 22.568c-.33-.624-.911-1.065-1.605-1.065-.693 0-1.275.44-1.605 1.065m-6.402 0c-.33-.624-.911-1.065-1.605-1.065-.695 0-1.275.44-1.605 1.065" stroke="#4c3327"/></g></g></svg>