<svg height="69" viewBox="0 0 94 69" width="94" xmlns="http://www.w3.org/2000/svg" xmlns:xlink="http://www.w3.org/1999/xlink"><linearGradient id="a" x1="50%" x2="50%" y1="0%" y2="100%"><stop offset="0" stop-color="#f5fafd"/><stop offset="1" stop-color="#c5ecff"/></linearGradient><g fill="none" fill-rule="evenodd"><path d="m89.732 42.968c0-23.727-19.13-42.963-42.727-42.963-23.598 0-42.728 19.236-42.728 42.963 0 6.321 1.369 12.318 3.807 17.722h77.841a42.995 42.995 0 0 0 3.807-17.722" fill="url(#a)"/><path d="m8.084 60.69c6.714 14.883 21.61 25.241 38.92 25.241 17.312 0 32.207-10.358 38.921-25.24h-77.84z"/><path d="m5.346 60.69h83.318m-88.125 0h2.67m87.591 0h2.67" stroke="#008bcc" stroke-linecap="round" stroke-linejoin="round"/><path d="m58.328 29.972a3.213 3.213 0 0 1 3.204-3.222h-23.714c-2.123 0-3.845 1.731-3.845 3.866v36.09h21.15a3.213 3.213 0 0 0 3.205-3.223v-33.513z" fill="#1786ba"/><path d="m61.839 67.35c0 .89-8.461 1.61-18.9 1.61s-18.9-.72-18.9-1.61 8.461-1.612 18.9-1.612 18.9.722 18.9 1.611" fill="#020202" opacity=".15"/><path d="m37.818 30.616h20.51v-.644a3.213 3.213 0 0 1 3.204-3.222h-23.714c-2.123 0-3.845 1.731-3.845 3.866v3.867c0-2.135 1.722-3.867 3.845-3.867" fill="#1da1de"/><path d="m64.737 29.972a3.213 3.213 0 0 0 -3.84-3.161c-1.522.294-2.57 1.722-2.57 3.28v3.103h5.341c.59 0 1.069-.481 1.069-1.074z" fill="#0c4560"/><path d="m35.987 39.638c0 .713-.574 1.29-1.282 1.29h-6.409a1.285 1.285 0 0 1 -1.282-1.29c0-.712.574-1.288 1.282-1.288h6.41c.707 0 1.28.576 1.28 1.288" fill="#87898c"/><path d="m35.987 42.216c0 .712-.574 1.289-1.282 1.289h-6.409a1.285 1.285 0 0 1 -1.282-1.289c0-.712.574-1.289 1.282-1.289h6.41c.707 0 1.28.577 1.28 1.29" fill="#87898c"/><path d="m34.705 43.505a3.213 3.213 0 0 1 -3.204 3.222 3.213 3.213 0 0 1 -3.205-3.222h6.41z" fill="#65686d"/><path d="m62.814 55.398-9.614-9.96h9.614zm-16.187-11.36 17.557 18.188c.668.693 1.834.217 1.834-.748v-18.188c0-.593-.478-1.074-1.068-1.074h-17.557c-.943 0-1.424 1.142-.766 1.823z" fill="#00dba8"/><path d="m62.814 55.398-9.614-9.96h9.614zm-16.187-11.36 17.557 18.188c.668.693 1.834.217 1.834-.748v-18.188c0-.593-.478-1.074-1.068-1.074h-17.557c-.943 0-1.424 1.142-.766 1.823z"/><path d="m52.508 60.26c.493 0 .701.59.353.94a3.22 3.22 0 0 0 -.942 2.283 3.213 3.213 0 0 0 3.204 3.222h-24.236c-1.55 0-2.97-1.053-3.262-2.584-.393-2.06 1.165-3.86 3.143-3.86h21.74z" fill="#1da1de"/><path d="m39.1 26.75c0-4.577-3.048-7.734-7.599-7.734s-7.783 3.25-7.783 7.826c0 4.021 4.487 8.285 4.487 11.508h6.409c0-2.302 4.486-7.28 4.486-11.6" fill="#ffe600"/><path d="m31.5 22.883c3.828 0 6.582 2.236 7.367 5.667a7.82 7.82 0 0 0 .233-1.8c0-4.577-3.048-7.734-7.6-7.734-4.55 0-7.781 3.25-7.781 7.826 0 .577.099 1.16.258 1.743.84-3.423 3.716-5.702 7.523-5.702" fill="#fff48c"/><g stroke-linecap="round" stroke-linejoin="round"><path d="m30.768 37.35-2.852-8.604a1.473 1.473 0 0 1 .575-1.685 1.455 1.455 0 0 1 1.841.183 1.516 1.516 0 0 0 2.154 0 1.455 1.455 0 0 1 1.841-.183c.548.367.783 1.058.575 1.685l-2.852 8.604" stroke="#e6cf00"/><path d="m75.632 20.627v-.967m2.04 1.817.68-.683m.164 2.733h.961m-1.806 2.051.68.683m-2.72.167v.966m-2.039-1.816-.679.683m-.165-2.734h-.961m1.805-2.05-.679-.683" stroke="#00aed9"/><path d="m21.293 55.364v-5.154m-2.563 2.578h5.127" stroke="#00dba8"/><path d="m26.232 14.172v-2.578m-1.282 1.289h2.564" stroke="#00aed9"/><path d="m62.173 22.56v-2.577m-1.282 1.289h2.564" stroke="#00dba8"/><path d="m10.254 34.757a.62.62 0 0 0 .544.912h5.177a.616.616 0 0 0 .528-.302.624.624 0 0 0 .015-.61l-2.588-4.88a.615.615 0 0 0 -1.087 0z" stroke="#b973ff"/><path d="m50.073 22.895c-5.852-1.776-9.166-7.985-7.4-13.87 1.412-4.707 6.352-7.373 11.034-5.953 3.746 1.136 5.867 5.11 4.736 8.877-.903 3.013-4.065 4.718-7.061 3.81-2.398-.727-3.755-3.27-3.032-5.681a3.625 3.625 0 0 1 4.52-2.44 2.921 2.921 0 0 1 1.94 3.638 2.32 2.32 0 0 1 -2.892 1.56" stroke="#4acfff"/><path d="m71.806 42.86v-1.178c0-.712.573-1.288 1.281-1.288h1.062c.708 0 1.282-.577 1.282-1.29v-1.067c0-.712.574-1.289 1.282-1.289h1.062c.708 0 1.281-.578 1.281-1.289v-1.067c0-.712.574-1.29 1.282-1.29h1.062c.708 0 1.282-.577 1.282-1.288v-1.068" stroke="#804bb5"/><path d="m41.664 34.483h12.176m-14.74 3.866h14.74" stroke="#4acfff"/><path d="m37.818 46.083h5.768m-5.768 3.867h9.614m-9.614 3.866h14.1" stroke="#fff"/></g></g></svg>