<svg xmlns="http://www.w3.org/2000/svg" width="95" height="72" viewBox="0 0 95 72">
  <defs>
    <linearGradient id="illustration-ds-a" x1="50%" x2="50%" y1="0%" y2="100%">
      <stop offset="0%" stop-color="#F5FAFD"/>
      <stop offset="100%" stop-color="#C5ECFF"/>
    </linearGradient>
  </defs>
  <g fill="none" fill-rule="evenodd" transform="translate(1)">
    <path fill="url(#illustration-ds-a)" d="M90.0892795,42.9660778 C90.0892795,19.2376333 70.9592114,0.00311481481 47.3620068,0.00311481481 C23.7648023,0.00311481481 4.63473409,19.2376333 4.63473409,42.9660778 C4.63473409,49.2870037 6.003075,55.2835593 8.44173409,60.6883 L86.2822795,60.6883 C88.7198705,55.2835593 90.0892795,49.2870037 90.0892795,42.9660778"/>
    <path d="M8.44162727,60.6883 C15.15515,75.5706704 30.0509455,85.9290407 47.3619,85.9290407 C64.6728545,85.9290407 79.56865,75.5706704 86.2821727,60.6883 L8.44162727,60.6883 Z"/>
    <path stroke="#008BCC" stroke-linecap="round" stroke-linejoin="round" d="M5.168825,60.6883 L88.4870068,60.6883"/>
    <path stroke="#008BCC" stroke-linecap="round" stroke-linejoin="round" d="M0.362006818,60.6883 L3.03246136,60.6883"/>
    <path stroke="#008BCC" stroke-linecap="round" stroke-linejoin="round" d="M90.6233705,60.6883 L93.293825,60.6883"/>
    <path fill="#35C4A5" d="M44.9674636,35.9127407 L39.7333727,35.9127407 C39.1437364,35.9127407 38.6651909,36.3939259 38.6651909,36.9868148 L38.6651909,40.3594074 L46.0356455,40.3594074 L46.0356455,36.9868148 C46.0356455,36.3939259 45.5571,35.9127407 44.9674636,35.9127407"/>
    <path d="M44.9674636,35.9127407 L39.7333727,35.9127407 C39.1437364,35.9127407 38.6651909,36.3939259 38.6651909,36.9868148 L38.6651909,40.3594074 L46.0356455,40.3594074 L46.0356455,36.9868148 C46.0356455,36.3939259 45.5571,35.9127407 44.9674636,35.9127407 Z"/>
    <path fill="#66EED1" d="M47.915325,52.216863 L20.5698705,52.216863 C19.9802341,52.216863 19.5016886,51.7356778 19.5016886,51.1427889 L19.5016886,41.4331593 C19.5016886,40.8402704 19.9802341,40.3590852 20.5698705,40.3590852 L47.915325,40.3590852 C48.5049614,40.3590852 48.9835068,40.8402704 48.9835068,41.4331593 L48.9835068,51.1427889 C48.9835068,51.7356778 48.5049614,52.216863 47.915325,52.216863"/>
    <path fill="#55DEC1" d="M47.915325,40.3590852 L20.5698705,40.3590852 C19.9802341,40.3590852 19.5016886,40.8402704 19.5016886,41.4331593 L19.5016886,43.3235296 L48.9835068,43.3235296 L48.9835068,41.4331593 C48.9835068,40.8402704 48.5049614,40.3590852 47.915325,40.3590852"/>
    <path fill="#35C4A5" d="M28.7527841,35.9127407 L23.5186932,35.9127407 C22.9279886,35.9127407 22.4505114,36.3939259 22.4505114,36.9868148 L22.4505114,40.3594074 L29.8209659,40.3594074 L29.8209659,36.9868148 C29.8209659,36.3939259 29.3424205,35.9127407 28.7527841,35.9127407"/>
    <path d="M28.7527841,35.9127407 L23.5186932,35.9127407 C22.9279886,35.9127407 22.4505114,36.3939259 22.4505114,36.9868148 L22.4505114,40.3594074 L29.8209659,40.3594074 L29.8209659,36.9868148 C29.8209659,36.3939259 29.3424205,35.9127407 28.7527841,35.9127407 Z"/>
    <path fill="#020202" d="M77.3445886,70.0995519 C77.3445886,69.0770333 67.4446795,68.2467741 55.233225,68.2467741 C43.0217705,68.2467741 33.1218614,69.0770333 33.1218614,70.0995519 C33.1218614,71.1231444 43.0217705,71.9523296 55.233225,71.9523296 C67.4446795,71.9523296 77.3445886,71.1231444 77.3445886,70.0995519" opacity=".15"/>
    <path fill="#B973FF" d="M47.915325,64.0747481 L20.5698705,64.0747481 C19.9802341,64.0747481 19.5016886,63.593563 19.5016886,63.0006741 L19.5016886,53.2910444 C19.5016886,52.6981556 19.9802341,52.2169704 20.5698705,52.2169704 L47.915325,52.2169704 C48.5049614,52.2169704 48.9835068,52.6981556 48.9835068,53.2910444 L48.9835068,63.0006741 C48.9835068,63.593563 48.5049614,64.0747481 47.915325,64.0747481"/>
    <path d="M47.915325,64.0747481 L20.5698705,64.0747481 C19.9802341,64.0747481 19.5016886,63.593563 19.5016886,63.0006741 L19.5016886,53.2910444 C19.5016886,52.6981556 19.9802341,52.2169704 20.5698705,52.2169704 L47.915325,52.2169704 C48.5049614,52.2169704 48.9835068,52.6981556 48.9835068,53.2910444 L48.9835068,63.0006741 C48.9835068,63.593563 48.5049614,64.0747481 47.915325,64.0747481 Z"/>
    <path fill="#008BCC" d="M59.5261409,48.9899148 L37.5579136,32.6167296 C37.0847091,32.2633593 36.9843,31.5899148 37.3368,31.1141 L43.0868227,23.3131 C43.4371864,22.8372852 44.1069364,22.7373963 44.5801409,23.0907667 L66.5483682,39.4639519 C67.0226409,39.8173222 67.1219818,40.4896926 66.77055,40.9665815 L61.0205273,48.7665074 C60.6690955,49.2433963 60.0004136,49.3432852 59.5261409,48.9899148"/>
    <path fill="#05A6F2" d="M65.6399864,42.5008963 L66.6750545,41.0960074 C66.8694636,40.8328593 66.9517136,40.5031185 66.9036455,40.1787481 C66.8555773,39.8554519 66.6825318,39.5633037 66.4197591,39.3678222 L44.7089636,23.1868963 C44.4472591,22.9914148 44.1193273,22.9087111 43.7978045,22.9570444 C43.4752136,23.0053778 43.1846682,23.1804519 42.9913273,23.4425259 L41.9551909,24.8474148 L65.6399864,42.5008963 Z"/>
    <path d="M59.5261409,48.9899148 L37.5579136,32.6167296 C37.0847091,32.2633593 36.9843,31.5899148 37.3368,31.1141 L43.0868227,23.3131 C43.4371864,22.8372852 44.1069364,22.7373963 44.5801409,23.0907667 L66.5483682,39.4639519 C67.0226409,39.8173222 67.1219818,40.4896926 66.77055,40.9665815 L61.0205273,48.7665074 C60.6690955,49.2433963 60.0004136,49.3432852 59.5261409,48.9899148 Z"/>
    <path fill="#05A6F2" d="M53.7872273,24.4173556 L49.5828636,21.2832074 C49.1085909,20.929837 48.4399091,21.0297259 48.0884773,21.5066148 L46.0909773,24.2165037 L52.0119091,28.6288 L54.0094091,25.9199852 C54.3608409,25.4430963 54.2615,24.7707259 53.7872273,24.4173556"/>
    <path d="M53.7872273,24.4173556 L49.5828636,21.2832074 C49.1085909,20.929837 48.4399091,21.0297259 48.0884773,21.5066148 L46.0909773,24.2165037 L52.0119091,28.6288 L54.0094091,25.9199852 C54.3608409,25.4430963 54.2615,24.7707259 53.7872273,24.4173556 Z"/>
    <path fill="#05A6F2" d="M62.6091273,30.9924074 L66.8134909,34.1265556 C67.2877636,34.4799259 67.3871045,35.1522963 67.0356727,35.6291852 L65.0381727,38.338 L59.1172409,33.9246296 L61.1147409,31.2158148 C61.4661727,30.7389259 62.1348545,30.639037 62.6091273,30.9924074"/>
    <path d="M62.6091273,30.9924074 L66.8134909,34.1265556 C67.2877636,34.4799259 67.3871045,35.1522963 67.0356727,35.6291852 L65.0381727,38.338 L59.1172409,33.9246296 L61.1147409,31.2158148 C61.4661727,30.7389259 62.1348545,30.639037 62.6091273,30.9924074 Z"/>
    <path fill="#73FFE1" d="M74.1264773,69.2625259 L35.7253409,69.2625259 C35.1357045,69.2625259 34.6571591,68.7813407 34.6571591,68.1884519 L34.6571591,48.1032667 C34.6571591,47.5103778 35.1357045,47.0291926 35.7253409,47.0291926 L74.1264773,47.0291926 C74.7171818,47.0291926 75.1946591,47.5103778 75.1946591,48.1032667 L75.1946591,68.1884519 C75.1946591,68.7813407 74.7171818,69.2625259 74.1264773,69.2625259"/>
    <path d="M74.1264773,69.2625259 L35.7253409,69.2625259 C35.1357045,69.2625259 34.6571591,68.7813407 34.6571591,68.1884519 L34.6571591,48.1032667 C34.6571591,47.5103778 35.1357045,47.0291926 35.7253409,47.0291926 L74.1264773,47.0291926 C74.7171818,47.0291926 75.1946591,47.5103778 75.1946591,48.1032667 L75.1946591,68.1884519 C75.1946591,68.7813407 74.7171818,69.2625259 74.1264773,69.2625259 Z"/>
    <path fill="#35C4A5" d="M53.0836159,53.5138074 C53.0836159,55.0486593 51.8455932,56.292437 50.3202295,56.292437 C48.7927295,56.292437 47.555775,55.0486593 47.555775,53.5138074 C47.555775,51.9789556 48.7927295,50.7351778 50.3202295,50.7351778 C51.8455932,50.7351778 53.0836159,51.9789556 53.0836159,53.5138074"/>
    <path stroke="#2BAC90" stroke-linejoin="round" d="M53.0836159,53.5138074 C53.0836159,55.0486593 51.8455932,56.292437 50.3202295,56.292437 C48.7927295,56.292437 47.555775,55.0486593 47.555775,53.5138074 C47.555775,51.9789556 48.7927295,50.7351778 50.3202295,50.7351778 C51.8455932,50.7351778 53.0836159,51.9789556 53.0836159,53.5138074 Z"/>
    <path fill="#35C4A5" d="M43.8705477,53.5138074 C43.8705477,55.0486593 42.632525,56.292437 41.1071614,56.292437 C39.5796614,56.292437 38.3427068,55.0486593 38.3427068,53.5138074 C38.3427068,51.9789556 39.5796614,50.7351778 41.1071614,50.7351778 C42.632525,50.7351778 43.8705477,51.9789556 43.8705477,53.5138074"/>
    <path stroke="#2BAC90" stroke-linejoin="round" d="M43.8705477,53.5138074 C43.8705477,55.0486593 42.632525,56.292437 41.1071614,56.292437 C39.5796614,56.292437 38.3427068,55.0486593 38.3427068,53.5138074 C38.3427068,51.9789556 39.5796614,50.7351778 41.1071614,50.7351778 C42.632525,50.7351778 43.8705477,51.9789556 43.8705477,53.5138074 Z"/>
    <path fill="#35C4A5" d="M43.8705477,62.7776963 C43.8705477,64.3125481 42.632525,65.5563259 41.1071614,65.5563259 C39.5796614,65.5563259 38.3427068,64.3125481 38.3427068,62.7776963 C38.3427068,61.2428444 39.5796614,59.9990667 41.1071614,59.9990667 C42.632525,59.9990667 43.8705477,61.2428444 43.8705477,62.7776963"/>
    <path stroke="#2BAC90" stroke-linejoin="round" d="M43.8705477,62.7776963 C43.8705477,64.3125481 42.632525,65.5563259 41.1071614,65.5563259 C39.5796614,65.5563259 38.3427068,64.3125481 38.3427068,62.7776963 C38.3427068,61.2428444 39.5796614,59.9990667 41.1071614,59.9990667 C42.632525,59.9990667 43.8705477,61.2428444 43.8705477,62.7776963 Z"/>
    <path fill="#35C4A5" d="M62.2966841,53.5138074 C62.2966841,55.0486593 61.0586614,56.292437 59.5332977,56.292437 C58.0057977,56.292437 56.7688432,55.0486593 56.7688432,53.5138074 C56.7688432,51.9789556 58.0057977,50.7351778 59.5332977,50.7351778 C61.0586614,50.7351778 62.2966841,51.9789556 62.2966841,53.5138074"/>
    <path stroke="#2BAC90" stroke-linejoin="round" d="M62.2966841,53.5138074 C62.2966841,55.0486593 61.0586614,56.292437 59.5332977,56.292437 C58.0057977,56.292437 56.7688432,55.0486593 56.7688432,53.5138074 C56.7688432,51.9789556 58.0057977,50.7351778 59.5332977,50.7351778 C61.0586614,50.7351778 62.2966841,51.9789556 62.2966841,53.5138074 Z"/>
    <path fill="#35C4A5" d="M71.5097523,53.5138074 C71.5097523,55.0486593 70.2717295,56.292437 68.7463659,56.292437 C67.2188659,56.292437 65.9819114,55.0486593 65.9819114,53.5138074 C65.9819114,51.9789556 67.2188659,50.7351778 68.7463659,50.7351778 C70.2717295,50.7351778 71.5097523,51.9789556 71.5097523,53.5138074"/>
    <path stroke="#2BAC90" stroke-linejoin="round" d="M71.5097523,53.5138074 C71.5097523,55.0486593 70.2717295,56.292437 68.7463659,56.292437 C67.2188659,56.292437 65.9819114,55.0486593 65.9819114,53.5138074 C65.9819114,51.9789556 67.2188659,50.7351778 68.7463659,50.7351778 C70.2717295,50.7351778 71.5097523,51.9789556 71.5097523,53.5138074 Z"/>
    <path fill="#35C4A5" d="M53.0836159,62.7776963 C53.0836159,64.3125481 51.8455932,65.5563259 50.3202295,65.5563259 C48.7927295,65.5563259 47.555775,64.3125481 47.555775,62.7776963 C47.555775,61.2428444 48.7927295,59.9990667 50.3202295,59.9990667 C51.8455932,59.9990667 53.0836159,61.2428444 53.0836159,62.7776963"/>
    <path stroke="#2BAC90" stroke-linejoin="round" d="M53.0836159,62.7776963 C53.0836159,64.3125481 51.8455932,65.5563259 50.3202295,65.5563259 C48.7927295,65.5563259 47.555775,64.3125481 47.555775,62.7776963 C47.555775,61.2428444 48.7927295,59.9990667 50.3202295,59.9990667 C51.8455932,59.9990667 53.0836159,61.2428444 53.0836159,62.7776963 Z"/>
    <path fill="#35C4A5" d="M62.2966841,62.7776963 C62.2966841,64.3125481 61.0586614,65.5563259 59.5332977,65.5563259 C58.0057977,65.5563259 56.7688432,64.3125481 56.7688432,62.7776963 C56.7688432,61.2428444 58.0057977,59.9990667 59.5332977,59.9990667 C61.0586614,59.9990667 62.2966841,61.2428444 62.2966841,62.7776963"/>
    <path stroke="#2BAC90" stroke-linejoin="round" d="M62.2966841,62.7776963 C62.2966841,64.3125481 61.0586614,65.5563259 59.5332977,65.5563259 C58.0057977,65.5563259 56.7688432,64.3125481 56.7688432,62.7776963 C56.7688432,61.2428444 58.0057977,59.9990667 59.5332977,59.9990667 C61.0586614,59.9990667 62.2966841,61.2428444 62.2966841,62.7776963 Z"/>
    <path fill="#35C4A5" d="M71.5097523,62.7776963 C71.5097523,64.3125481 70.2717295,65.5563259 68.7463659,65.5563259 C67.2188659,65.5563259 65.9819114,64.3125481 65.9819114,62.7776963 C65.9819114,61.2428444 67.2188659,59.9990667 68.7463659,59.9990667 C70.2717295,59.9990667 71.5097523,61.2428444 71.5097523,62.7776963"/>
    <path stroke="#2BAC90" stroke-linejoin="round" d="M71.5097523,62.7776963 C71.5097523,64.3125481 70.2717295,65.5563259 68.7463659,65.5563259 C67.2188659,65.5563259 65.9819114,64.3125481 65.9819114,62.7776963 C65.9819114,61.2428444 67.2188659,59.9990667 68.7463659,59.9990667 C70.2717295,59.9990667 71.5097523,61.2428444 71.5097523,62.7776963 Z"/>
  </g>
</svg>
