<svg xmlns="http://www.w3.org/2000/svg" width="95" height="72" viewBox="0 0 95 72"><defs><linearGradient id="a" x1="50%" x2="50%" y1="0%" y2="100%"><stop offset="0%" stop-color="#F5FAFD"/><stop offset="100%" stop-color="#C5ECFF"/></linearGradient></defs><g fill="none" fill-rule="evenodd"><path fill="url(#a)" d="M90.09 42.966C90.09 19.238 70.96.003 47.361.003 23.765.003 4.635 19.238 4.635 42.966c0 6.321 1.368 12.318 3.807 17.722h77.84a42.995 42.995 0 0 0 3.807-17.722" transform="translate(1)"/><path d="M9.442 60.688C16.155 75.571 31.05 85.93 48.362 85.93c17.31 0 32.207-10.358 38.92-25.24H9.442z"/><path stroke="#008BCC" stroke-linecap="round" stroke-linejoin="round" d="M6.169 60.688h83.318m-88.125 0h2.67m87.591 0h2.67"/><path fill="#35C4A5" d="M45.967 35.913h-5.234c-.59 0-1.068.48-1.068 1.074v3.372h7.37v-3.372c0-.593-.478-1.074-1.068-1.074"/><path d="M45.967 35.913h-5.234c-.59 0-1.068.48-1.068 1.074v3.372h7.37v-3.372c0-.593-.478-1.074-1.068-1.074z"/><path fill="#66EED1" d="M48.915 52.217H21.57c-.59 0-1.068-.481-1.068-1.074v-9.71c0-.593.478-1.074 1.068-1.074h27.345c.59 0 1.069.481 1.069 1.074v9.71c0 .593-.479 1.074-1.069 1.074"/><path fill="#55DEC1" d="M48.915 40.36H21.57c-.59 0-1.068.48-1.068 1.073v1.89h29.482v-1.89c0-.593-.479-1.074-1.069-1.074"/><path fill="#35C4A5" d="M29.753 35.913h-5.234a1.07 1.07 0 0 0-1.068 1.074v3.372h7.37v-3.372c0-.593-.479-1.074-1.068-1.074"/><path d="M29.753 35.913h-5.234a1.07 1.07 0 0 0-1.068 1.074v3.372h7.37v-3.372c0-.593-.479-1.074-1.068-1.074z"/><path fill="#020202" d="M78.345 70.1c0-1.023-9.9-1.853-22.112-1.853-12.211 0-22.111.83-22.111 1.853 0 1.023 9.9 1.852 22.111 1.852 12.212 0 22.112-.829 22.112-1.852" opacity=".15"/><path fill="#B973FF" d="M48.915 64.075H21.57c-.59 0-1.068-.481-1.068-1.074v-9.71c0-.593.478-1.074 1.068-1.074h27.345c.59 0 1.069.481 1.069 1.074v9.71c0 .593-.479 1.074-1.069 1.074"/><path d="M48.915 64.075H21.57c-.59 0-1.068-.481-1.068-1.074v-9.71c0-.593.478-1.074 1.068-1.074h27.345c.59 0 1.069.481 1.069 1.074v9.71c0 .593-.479 1.074-1.069 1.074z"/><path fill="#008BCC" d="M60.526 48.99L38.558 32.617a1.078 1.078 0 0 1-.221-1.503l5.75-7.8a1.064 1.064 0 0 1 1.493-.223l21.968 16.373c.475.353.574 1.026.223 1.503l-5.75 7.8a1.064 1.064 0 0 1-1.495.223"/><path fill="#05A6F2" d="M66.64 42.5l1.035-1.404a1.238 1.238 0 0 0-.255-1.728L45.709 23.187a1.22 1.22 0 0 0-1.718.256l-1.036 1.404L66.64 42.501z"/><path d="M60.526 48.99L38.558 32.617a1.078 1.078 0 0 1-.221-1.503l5.75-7.8a1.064 1.064 0 0 1 1.493-.223l21.968 16.373c.475.353.574 1.026.223 1.503l-5.75 7.8a1.064 1.064 0 0 1-1.495.223z"/><path fill="#05A6F2" d="M54.787 24.417l-4.204-3.134a1.064 1.064 0 0 0-1.495.224l-1.997 2.71 5.92 4.412 1.998-2.709a1.078 1.078 0 0 0-.222-1.503"/><path d="M54.787 24.417l-4.204-3.134a1.064 1.064 0 0 0-1.495.224l-1.997 2.71 5.92 4.412 1.998-2.709a1.078 1.078 0 0 0-.222-1.503z"/><path fill="#05A6F2" d="M63.61 30.992l4.203 3.135c.475.353.574 1.025.223 1.502l-1.998 2.709-5.92-4.413 1.997-2.71a1.064 1.064 0 0 1 1.494-.223"/><path d="M63.61 30.992l4.203 3.135c.475.353.574 1.025.223 1.502l-1.998 2.709-5.92-4.413 1.997-2.71a1.064 1.064 0 0 1 1.494-.223z"/><path fill="#73FFE1" d="M75.126 69.263h-38.4c-.59 0-1.069-.482-1.069-1.075V48.103c0-.593.479-1.074 1.068-1.074h38.401c.591 0 1.069.481 1.069 1.074v20.085a1.07 1.07 0 0 1-1.069 1.075"/><path d="M75.126 69.263h-38.4c-.59 0-1.069-.482-1.069-1.075V48.103c0-.593.479-1.074 1.068-1.074h38.401c.591 0 1.069.481 1.069 1.074v20.085a1.07 1.07 0 0 1-1.069 1.075z"/><path fill="#35C4A5" d="M54.084 53.514a2.771 2.771 0 0 1-2.764 2.778 2.77 2.77 0 0 1-2.764-2.778 2.77 2.77 0 0 1 2.764-2.779 2.771 2.771 0 0 1 2.764 2.779"/><path stroke="#2BAC90" stroke-linejoin="round" d="M54.084 53.514a2.771 2.771 0 0 1-2.764 2.778 2.77 2.77 0 0 1-2.764-2.778 2.77 2.77 0 0 1 2.764-2.779 2.771 2.771 0 0 1 2.764 2.779z"/><path fill="#35C4A5" d="M44.87 53.514a2.771 2.771 0 0 1-2.763 2.778 2.77 2.77 0 0 1-2.764-2.778 2.77 2.77 0 0 1 2.764-2.779 2.771 2.771 0 0 1 2.764 2.779"/><path stroke="#2BAC90" stroke-linejoin="round" d="M44.87 53.514a2.771 2.771 0 0 1-2.763 2.778 2.77 2.77 0 0 1-2.764-2.778 2.77 2.77 0 0 1 2.764-2.779 2.771 2.771 0 0 1 2.764 2.779z"/><path fill="#35C4A5" d="M44.87 62.778a2.771 2.771 0 0 1-2.763 2.778 2.77 2.77 0 0 1-2.764-2.778 2.77 2.77 0 0 1 2.764-2.779 2.771 2.771 0 0 1 2.764 2.779"/><path stroke="#2BAC90" stroke-linejoin="round" d="M44.87 62.778a2.771 2.771 0 0 1-2.763 2.778 2.77 2.77 0 0 1-2.764-2.778 2.77 2.77 0 0 1 2.764-2.779 2.771 2.771 0 0 1 2.764 2.779z"/><path fill="#35C4A5" d="M63.297 53.514a2.771 2.771 0 0 1-2.764 2.778 2.77 2.77 0 0 1-2.764-2.778 2.77 2.77 0 0 1 2.764-2.779 2.771 2.771 0 0 1 2.764 2.779"/><path stroke="#2BAC90" stroke-linejoin="round" d="M63.297 53.514a2.771 2.771 0 0 1-2.764 2.778 2.77 2.77 0 0 1-2.764-2.778 2.77 2.77 0 0 1 2.764-2.779 2.771 2.771 0 0 1 2.764 2.779z"/><path fill="#35C4A5" d="M72.51 53.514a2.771 2.771 0 0 1-2.764 2.778 2.77 2.77 0 0 1-2.764-2.778 2.77 2.77 0 0 1 2.764-2.779 2.771 2.771 0 0 1 2.764 2.779"/><path stroke="#2BAC90" stroke-linejoin="round" d="M72.51 53.514a2.771 2.771 0 0 1-2.764 2.778 2.77 2.77 0 0 1-2.764-2.778 2.77 2.77 0 0 1 2.764-2.779 2.771 2.771 0 0 1 2.764 2.779z"/><path fill="#35C4A5" d="M54.084 62.778a2.771 2.771 0 0 1-2.764 2.778 2.77 2.77 0 0 1-2.764-2.778 2.77 2.77 0 0 1 2.764-2.779 2.771 2.771 0 0 1 2.764 2.779"/><path stroke="#2BAC90" stroke-linejoin="round" d="M54.084 62.778a2.771 2.771 0 0 1-2.764 2.778 2.77 2.77 0 0 1-2.764-2.778 2.77 2.77 0 0 1 2.764-2.779 2.771 2.771 0 0 1 2.764 2.779z"/><path fill="#35C4A5" d="M63.297 62.778a2.771 2.771 0 0 1-2.764 2.778 2.77 2.77 0 0 1-2.764-2.778 2.77 2.77 0 0 1 2.764-2.779 2.771 2.771 0 0 1 2.764 2.779"/><path stroke="#2BAC90" stroke-linejoin="round" d="M63.297 62.778a2.771 2.771 0 0 1-2.764 2.778 2.77 2.77 0 0 1-2.764-2.778 2.77 2.77 0 0 1 2.764-2.779 2.771 2.771 0 0 1 2.764 2.779z"/><path fill="#35C4A5" d="M72.51 62.778a2.771 2.771 0 0 1-2.764 2.778 2.77 2.77 0 0 1-2.764-2.778 2.77 2.77 0 0 1 2.764-2.779 2.771 2.771 0 0 1 2.764 2.779"/><path stroke="#2BAC90" stroke-linejoin="round" d="M72.51 62.778a2.771 2.771 0 0 1-2.764 2.778 2.77 2.77 0 0 1-2.764-2.778 2.77 2.77 0 0 1 2.764-2.779 2.771 2.771 0 0 1 2.764 2.779z"/></g></svg>