<svg xmlns="http://www.w3.org/2000/svg" width="94" height="69" viewBox="0 0 94 69"><defs><linearGradient id="a" x1="50%" x2="50%" y1="0%" y2="100%"><stop offset="0%" stop-color="#F5FAFD"/><stop offset="100%" stop-color="#C5ECFF"/></linearGradient></defs><g fill="none" fill-rule="evenodd"><path fill="url(#a)" d="M89.732 42.968c0-23.727-19.13-42.963-42.727-42.963-23.598 0-42.728 19.236-42.728 42.963 0 6.321 1.369 12.318 3.807 17.722h77.841a42.995 42.995 0 0 0 3.807-17.722"/><path d="M8.084 60.69c6.714 14.883 21.61 25.241 38.92 25.241 17.312 0 32.207-10.358 38.921-25.24H8.085z"/><path stroke="#008BCC" stroke-linecap="round" stroke-linejoin="round" d="M5.346 60.69h83.318m-88.125 0h2.67m87.591 0h2.67"/><path fill="#1786BA" d="M58.328 29.972a3.213 3.213 0 0 1 3.204-3.222H37.818c-2.123 0-3.845 1.731-3.845 3.866v36.09h21.15a3.213 3.213 0 0 0 3.205-3.223V29.97z"/><path fill="#020202" d="M61.839 67.35c0 .89-8.461 1.61-18.9 1.61-10.439 0-18.9-.72-18.9-1.61 0-.89 8.461-1.612 18.9-1.612 10.439 0 18.9.722 18.9 1.611" opacity=".15"/><path fill="#1DA1DE" d="M37.818 30.616h20.51v-.644a3.213 3.213 0 0 1 3.204-3.222H37.818c-2.123 0-3.845 1.731-3.845 3.866v3.867c0-2.135 1.722-3.867 3.845-3.867"/><path fill="#0C4560" d="M64.737 29.972a3.213 3.213 0 0 0-3.84-3.161c-1.522.294-2.57 1.722-2.57 3.28v3.103h5.341c.59 0 1.069-.481 1.069-1.074v-2.148z"/><path fill="#87898C" d="M35.987 39.638c0 .713-.574 1.29-1.282 1.29h-6.409a1.285 1.285 0 0 1-1.282-1.29c0-.712.574-1.288 1.282-1.288h6.41c.707 0 1.28.576 1.28 1.288"/><path fill="#87898C" d="M35.987 42.216c0 .712-.574 1.289-1.282 1.289h-6.409a1.285 1.285 0 0 1-1.282-1.289c0-.712.574-1.289 1.282-1.289h6.41c.707 0 1.28.577 1.28 1.29"/><path fill="#65686D" d="M34.705 43.505a3.213 3.213 0 0 1-3.204 3.222 3.213 3.213 0 0 1-3.205-3.222h6.41z"/><path fill="#00DBA8" d="M62.814 55.398l-9.614-9.96h9.614v9.96zm-16.187-11.36l17.557 18.188c.668.693 1.834.217 1.834-.748V43.29c0-.593-.478-1.074-1.068-1.074H47.393c-.943 0-1.424 1.142-.766 1.823z"/><path d="M62.814 55.398l-9.614-9.96h9.614v9.96zm-16.187-11.36l17.557 18.188c.668.693 1.834.217 1.834-.748V43.29c0-.593-.478-1.074-1.068-1.074H47.393c-.943 0-1.424 1.142-.766 1.823z"/><path fill="#1DA1DE" d="M52.508 60.26c.493 0 .701.59.353.94a3.22 3.22 0 0 0-.942 2.283 3.213 3.213 0 0 0 3.204 3.222H30.887c-1.55 0-2.97-1.053-3.262-2.584-.393-2.06 1.165-3.86 3.143-3.86h21.74z"/><path fill="#FFE600" d="M39.1 26.75c0-4.577-3.048-7.734-7.599-7.734s-7.783 3.25-7.783 7.826c0 4.021 4.487 8.285 4.487 11.508h6.409c0-2.302 4.486-7.28 4.486-11.6"/><path fill="#FFF48C" d="M31.5 22.883c3.828 0 6.582 2.236 7.367 5.667a7.82 7.82 0 0 0 .233-1.8c0-4.577-3.048-7.734-7.6-7.734-4.55 0-7.781 3.25-7.781 7.826 0 .577.099 1.16.258 1.743.84-3.423 3.716-5.702 7.523-5.702"/><path stroke="#E6CF00" stroke-linecap="round" stroke-linejoin="round" d="M30.768 37.35l-2.852-8.604a1.473 1.473 0 0 1 .575-1.685 1.455 1.455 0 0 1 1.841.183 1.516 1.516 0 0 0 2.154 0 1.455 1.455 0 0 1 1.841-.183c.548.367.783 1.058.575 1.685L32.05 37.35"/><path stroke="#00AED9" stroke-linecap="round" stroke-linejoin="round" d="M75.632 20.627v-.967m2.04 1.817l.68-.683m.164 2.733h.961m-1.806 2.051l.68.683m-2.72.167v.966m-2.039-1.816l-.679.683m-.165-2.734h-.961m1.805-2.05l-.679-.683"/><g stroke="#00DBA8" stroke-linecap="round" stroke-linejoin="round"><path d="M21.293 55.364V50.21m-2.563 2.578h5.127"/></g><g stroke="#00AED9" stroke-linecap="round" stroke-linejoin="round"><path d="M26.232 14.172v-2.578m-1.282 1.289h2.564"/></g><path stroke="#00DBA8" stroke-linecap="round" stroke-linejoin="round" d="M62.173 22.56v-2.577m-1.282 1.289h2.564"/><path stroke="#B973FF" stroke-linecap="round" stroke-linejoin="round" d="M10.254 34.757a.62.62 0 0 0 .544.912h5.177a.616.616 0 0 0 .528-.302.624.624 0 0 0 .015-.61l-2.588-4.88a.615.615 0 0 0-1.087 0l-2.589 4.88z"/><path stroke="#4ACFFF" stroke-linecap="round" stroke-linejoin="round" d="M50.073 22.895c-5.852-1.776-9.166-7.985-7.4-13.87 1.412-4.707 6.352-7.373 11.034-5.953 3.746 1.136 5.867 5.11 4.736 8.877-.903 3.013-4.065 4.718-7.061 3.81-2.398-.727-3.755-3.27-3.032-5.681a3.625 3.625 0 0 1 4.52-2.44 2.921 2.921 0 0 1 1.94 3.638 2.32 2.32 0 0 1-2.892 1.56"/><path stroke="#804BB5" stroke-linecap="round" stroke-linejoin="round" d="M71.806 42.86v-1.178c0-.712.573-1.288 1.281-1.288h1.062c.708 0 1.282-.577 1.282-1.29v-1.067c0-.712.574-1.289 1.282-1.289h1.062c.708 0 1.281-.578 1.281-1.289v-1.067c0-.712.574-1.29 1.282-1.29H81.4c.708 0 1.282-.577 1.282-1.288v-1.068"/><path stroke="#4ACFFF" stroke-linecap="round" stroke-linejoin="round" d="M41.664 34.483H53.84m-14.74 3.866h14.74"/><path stroke="#FFF" stroke-linecap="round" stroke-linejoin="round" d="M37.818 46.083h5.768m-5.768 3.867h9.614m-9.614 3.866h14.1"/></g></svg>