<svg xmlns="http://www.w3.org/2000/svg" width="96" height="78" viewBox="0 0 96 78"><defs><linearGradient id="a" x1="50%" x2="50%" y1="0%" y2="100%"><stop offset="0%" stop-color="#F5FAFD"/><stop offset="100%" stop-color="#C5ECFF"/></linearGradient></defs><g fill="none" fill-rule="evenodd"><path fill="url(#a)" d="M89 42C89 19.017 69.972 0 47 0 23.027 0 4 19.017 4 42c0 6.727 1.361 12.656 4 18h77c2.639-5.344 4-11.273 4-18" transform="translate(1)"/><path d="M9.12 59.514c6.705 14.707 21.585 24.944 38.878 24.944S80.17 74.221 86.876 59.514H9.119z"/><path stroke="#008BCC" stroke-linecap="round" stroke-linejoin="round" stroke-width="1.27" d="M6.384 59.514h83.228m-88.03 0H4.25m87.496 0h2.668"/><path fill="#FFF" d="M48.432 51.382h33.384V19.45H48.432z"/><path fill="#F0F0F0" d="M48.432 22.296h33.384V19.45H48.432z"/><path d="M48.432 51.382h33.384V19.45H48.432z"/><path fill="#35C4A5" d="M50.367 46.716c0 .975.793 1.765 1.77 1.765h25.666c.978 0 1.77-.79 1.77-1.765V37.01a.883.883 0 0 0-.885-.882h-8.113a.736.736 0 0 1-.737-.736v-7.205a.884.884 0 0 0-.885-.883H52.137c-.977 0-1.77.79-1.77 1.765v17.647z"/><path fill="#66EED1" d="M69.838 28.187a.884.884 0 0 0-.885-.883H52.137c-.978 0-1.77.79-1.77 1.765v17.647c0 .597.299 1.122.754 1.441l18.717-18.66v-1.31z"/><path stroke="#6BC2E0" stroke-linecap="round" stroke-linejoin="round" stroke-width=".526" d="M69.838 29.07h9.735m-9.735 3.528h9.735m-6.195-5.293v8.823m3.54-8.823v8.823"/><path fill="#008BCC" d="M52.137 27.305c-.978 0-1.77.79-1.77 1.764v2.647h19.47v-3.53a.884.884 0 0 0-.884-.881H52.137z"/><path fill="#FF6242" d="M54.792 29.51a.883.883 0 0 1-.885.882.883.883 0 1 1 0-1.764c.49 0 .885.395.885.882"/><path fill="#FFE600" d="M58.775 29.51a.883.883 0 0 1-.885.882.883.883 0 1 1 0-1.764c.49 0 .885.395.885.882"/><path fill="#6DD627" d="M62.315 29.51a.883.883 0 0 1-.885.882.883.883 0 1 1 0-1.764c.489 0 .885.395.885.882"/><path fill="#DAEDF7" d="M82.458 16.895H47.791a1.28 1.28 0 0 0-1.284 1.277 1.28 1.28 0 0 0 1.284 1.277h34.667a1.28 1.28 0 0 0 1.285-1.277c0-.705-.575-1.277-1.285-1.277"/><path fill="#FFF" d="M47.79 18.172h34.67c.474 0 .888.257 1.111.64.11-.189.172-.406.172-.64a1.28 1.28 0 0 0-1.284-1.277H47.791a1.28 1.28 0 0 0-1.284 1.277c0 .234.062.451.172.64a1.284 1.284 0 0 1 1.112-.64"/><path d="M82.458 16.895H47.791a1.28 1.28 0 0 0-1.284 1.277 1.28 1.28 0 0 0 1.284 1.277h34.667a1.28 1.28 0 0 0 1.285-1.277c0-.705-.575-1.277-1.285-1.277z"/><path fill="#DAEDF7" d="M82.458 51.383H47.791a1.28 1.28 0 0 0-1.284 1.277 1.28 1.28 0 0 0 1.284 1.277h34.667c.71 0 1.285-.572 1.285-1.277a1.28 1.28 0 0 0-1.285-1.277"/><path fill="#FFF" d="M47.79 52.66h34.67c.474 0 .888.257 1.111.64a1.28 1.28 0 0 0-1.112-1.916H47.791a1.28 1.28 0 0 0-1.112 1.915 1.284 1.284 0 0 1 1.112-.639"/><path d="M82.458 51.383H47.791a1.28 1.28 0 0 0-1.284 1.277 1.28 1.28 0 0 0 1.284 1.277h34.667c.71 0 1.285-.572 1.285-1.277a1.28 1.28 0 0 0-1.285-1.277z"/><path stroke="#008BCC" stroke-linecap="round" stroke-linejoin="round" stroke-width="1.27" d="M58.063 16.895l7.061-5.748 7.063 5.748"/><path fill="#F0F0F0" d="M67.051 11.147a1.923 1.923 0 0 1-1.927 1.917 1.92 1.92 0 0 1-1.925-1.917 1.92 1.92 0 0 1 1.925-1.915 1.92 1.92 0 0 1 1.927 1.915"/><path fill="#FFF" d="M65.125 10.935c.756 0 1.41.433 1.725 1.064a1.9 1.9 0 0 0 .202-.852 1.92 1.92 0 0 0-1.927-1.915 1.92 1.92 0 0 0-1.926 1.915c0 .306.073.596.201.852a1.925 1.925 0 0 1 1.725-1.064"/><path fill="#FFCEBF" d="M48.162 39.424l5.432-13.054"/><path stroke="#1A1816" stroke-linecap="round" stroke-linejoin="round" stroke-width="1.27" d="M47 40.652l9.386-10.574"/><path fill="#020202" d="M44.778 75.197c0 1.01-5.494 1.831-12.271 1.831-6.778 0-12.27-.82-12.27-1.83 0-1.012 5.492-1.833 12.27-1.833 6.777 0 12.27.82 12.27 1.832" opacity=".15"/><path fill="#FFD0A9" d="M26.092 51.993l2.098 22.594h8.59l2.194-22.594z"/><path stroke="#FFF" stroke-linecap="round" stroke-linejoin="round" stroke-width="1.27" d="M32.485 55.887v17.688"/><path fill="#0C4560" d="M32.507 74.587c0-2.022-1.649-3.662-3.681-3.662h-.614a3.683 3.683 0 0 0-3.19 1.83 1.219 1.219 0 0 0 1.064 1.832h6.421zm0 0a3.671 3.671 0 0 1 3.68-3.662h.614a3.68 3.68 0 0 1 3.189 1.83 1.219 1.219 0 0 1-1.063 1.832h-6.42z"/><path fill="#006898" d="M25.736 50.119l.636 12.871h12.271l.59-12.871.022-2.129H25.758z"/><path fill="#4ACFFF" d="M43.55 40.408c0-6.068-4.944-10.986-11.043-10.986-6.1 0-11.044 4.918-11.067 10.986v3.051h4.318v9.155l5.521.61 1.228-3.661 1.227 3.662 5.521-.61V41.627h4.295v-1.22z"/><path fill="#83DEFF" d="M43.55 40.408c0-6.068-4.944-10.986-11.045-10.986-6.098 0-11.042 4.918-11.065 10.986v2.43c.023-6.07 4.967-10.988 11.065-10.988 5.26 0 9.652 3.66 10.765 8.557h.28z"/><path fill="#FFF" d="M36.216 30.057l-3.73 12.182-3.302-9.875-.725-2.174a10.92 10.92 0 0 1 4.05-.768c1.313 0 2.54.208 3.707.635"/><path stroke="#F0F0F0" stroke-linecap="round" stroke-linejoin="round" d="M36.057 30.428l-3.548 10.931-3.325-8.995-.513-1.729c1.252-.5 2.414-1.213 3.838-1.213 1.313 0 2.382.579 3.548 1.006z"/><path fill="#FFD0A9" d="M21.44 40.42v12.499c0 1.185.98 2.137 2.17 2.137s2.148-.952 2.148-2.137l-.022-12.5H21.44z"/><path d="M25.732 40.42a3.644 3.644 0 0 0-.65-1.685c-.33-.463-.552-1.233-.552-2.001"/><path stroke="#3CBEED" stroke-linecap="round" stroke-linejoin="round" d="M32.485 41.5v8.058"/><path d="M39.261 40.403a3.642 3.642 0 0 1 .648-1.668c.332-.464.552-1.232.552-2"/><path fill="#3CBEED" d="M27.724 37.918l.22-3.296-2.392.146-.172-2.734a10.481 10.481 0 0 1 3.08-1.843l4.025 12.047-4.761-4.32zm11.534-6.189l-.147 2.307-.05.744-2.393-.146.234 3.296-4.417 4.308 3.73-12.181c1.104.39 2.135.952 3.043 1.672z"/><path d="M32.298 29.422l-2.121 5.913-1.718-5.144m7.757-.134l-1.72 5.615-1.312-3.796-.883-2.454h.208c1.301 0 2.553.218 3.707.635z"/><path fill="#FFD0A9" d="M43.522 40.236c.045.682.573 1.387 1.25 1.387.678 0 1.227-.545 1.227-1.22 0-1.174.962-2.132 2.147-2.132 1.187 0 2.148.958 2.148 2.137 0 3.028-2.472 5.488-5.522 5.488-2.702 0-5.021-1.722-5.513-4.273-.063-.327-.091-.875-.091-1.22l4.354-.167z"/><path fill="#FFD0A9" d="M49.51 42.207l-1.825-.747a1.856 1.856 0 0 1-1.016-2.425l.213-.516a1.872 1.872 0 0 1 2.438-1.01l1.825.748c.546.222.805.843.58 1.385l-.822 1.988c-.224.542-.847.8-1.392.577"/><g><path fill="#804BB5" d="M36 11c-.99-.631-2.16-.903-3-1-2.325-.09-3.917.317-5 1-3.284 1.75-5 4.88-5 8v11c0 .737.288 1.025 1 1 2.056-.201 3.073-1.586 3-4v-5c.327-2.008 1.618-3.308 3-3h4c1.382-.308 2.673.992 3 3v5c-.074 2.414.944 3.799 3 4 .712.025 1-.263 1-1V19c0-3.146-1.745-6.265-5-8"/><path fill="#B973FF" d="M36 11c-.99-.615-2.16-.9-3-1-2.325-.094-3.917.33-5 1-3.284 1.866-5 5.13-5 8v4c0-3.31 1.716-6.573 5-8 1.083-1.11 2.675-1.535 5-1 .84-.34 2.01-.055 3 1 3.255 1.411 5 4.663 5 8v-4c0-2.897-1.745-6.15-5-8"/><path fill="#FFD0A9" d="M28 18c-.603-.142-1.383.28-2 1l-1 3c-2.63.142-2.486 3.833 0 4 .848 2.82 3.65 5 7 5s6.153-2.18 7-5c2.485-.167 2.63-3.858 0-4l-1-3c-.639-.723-1.416-1.142-2-1h-8z"/><path d="M28.5 24.75a.75.75 0 1 1-1.499.002.75.75 0 0 1 1.499-.003m8.5 0a.75.75 0 1 1-1.499.003.75.75 0 0 1 1.499-.003" fill="#FFC147"/><path stroke="#494035" stroke-linecap="round" stroke-linejoin="round" d="M29.5 27c1.514.696 3.486.696 5 0m-5.965-4.438a.87.87 0 0 1 1.226 0m4.682 0a.872.872 0 0 1 1.227 0"/><path fill="#804BB5" d="M38.632 17.134v1.83c0 .675-.55 1.221-1.226 1.221h-9.818a1.224 1.224 0 0 1-1.227-1.22v-1.831"/></g></g></svg>