<svg xmlns="http://www.w3.org/2000/svg" width="94" height="72" viewBox="0 0 94 72">
  <defs>
    <linearGradient id="illustration-books-a" x1="50%" x2="50%" y1="0%" y2="100%">
      <stop offset="0%" stop-color="#F5FAFD"/>
      <stop offset="100%" stop-color="#C5ECFF"/>
    </linearGradient>
  </defs>
  <g fill="none" fill-rule="evenodd">
    <path fill="url(#illustration-books-a)" d="M89.6753191,43 C89.6753191,19.5515173 70.5659321,0.542016807 46.9942381,0.542016807 C23.422544,0.542016807 4.31315697,19.5515173 4.31315697,43 C4.31315697,49.2466308 5.68108562,55.1727038 8.1160413,60.5139181 L85.8724348,60.5139181 C88.3084575,55.1727038 89.6753191,49.2466308 89.6753191,43"/>
    <path d="M8.1160413,60.5139181 C14.8223062,75.2213634 29.7019981,85.4579832 46.9942381,85.4579832 C64.2864781,85.4579832 79.1661699,75.2213634 85.8724348,60.5139181 L8.1160413,60.5139181 Z"/>
    <polygon fill="#D18660" points="68.595 60.441 73.676 60.441 73.676 54.118 68.595 54.118"/>
    <polygon fill="#D18660" points="43.189 60.441 48.27 60.441 48.27 54.118 43.189 54.118"/>
    <path fill="#F0F0F0" d="M58.1980218,35.8358718 C49.0632035,35.8358718 41.6591029,43.2012705 41.6591029,52.2883403 L41.6591029,53.3497899 C41.6591029,53.9357101 42.137131,54.4112395 42.7261299,54.4112395 L48.0612651,54.4112395 L48.0612651,60.2492122 L68.3347786,60.2492122 L68.3347786,54.4112395 L73.6699137,54.4112395 C74.2589126,54.4112395 74.7369408,53.9357101 74.7369408,53.3497899 L74.7369408,52.2883403 C74.7369408,43.2012705 67.3328402,35.8358718 58.1980218,35.8358718"/>
    <path fill="#FFF" d="M58.1980218,35.8358718 C49.0632035,35.8358718 41.6591029,43.2012705 41.6591029,52.2883403 L41.6591029,53.3497899 C41.6591029,53.5397894 41.7092532,53.7170515 41.7967494,53.8709617 C42.847771,45.7922689 49.7898489,39.5509454 58.1980218,39.5509454 C66.6061948,39.5509454 73.5482726,45.7922689 74.5992943,53.8709617 C74.6867905,53.7170515 74.7369408,53.5397894 74.7369408,53.3497899 L74.7369408,52.2883403 C74.7369408,43.2012705 67.3328402,35.8358718 58.1980218,35.8358718"/>
    <path d="M58.1980218,35.8358718 C49.0632035,35.8358718 41.6591029,43.2012705 41.6591029,52.2883403 L41.6591029,53.3497899 C41.6591029,53.9357101 42.137131,54.4112395 42.7261299,54.4112395 L48.0612651,54.4112395 L48.0612651,60.2492122 L68.3347786,60.2492122 L68.3347786,54.4112395 L73.6699137,54.4112395 C74.2589126,54.4112395 74.7369408,53.9357101 74.7369408,53.3497899 L74.7369408,52.2883403 C74.7369408,43.2012705 67.3328402,35.8358718 58.1980218,35.8358718 Z"/>
    <polygon fill="#D18660" points="61.933 38.489 58.198 42.205 54.463 38.489 54.463 32.652 61.933 32.652"/>
    <path fill="#BD704A" d="M54.4634272,36.3515241 C55.6478272,36.7028639 56.8994499,36.8971091 58.1980218,36.8971091 C59.4965937,36.8971091 60.7482164,36.7028639 61.9326164,36.3515241 L61.9326164,32.6513108 L54.4634272,32.6513108 L54.4634272,36.3515241 Z"/>
    <polygon points="61.933 38.489 58.198 42.205 54.463 38.489 54.463 32.652 61.933 32.652"/>
    <path d="M48.0612651,51.9608718 L48.0612651,55.6759454"/>
    <path d="M68.3347786,51.9608718 L68.3347786,55.6759454"/>
    <path fill="#FFF" d="M58.1980218,42.2045693 C61.9368845,44.527021 60.7556856,43.8052353 61.6061062,44.3285299 C62.1054748,44.6374118 62.7648975,44.4898703 63.0786035,43.9952348 C64.8039862,41.2821696 65.666144,37.4301691 65.666144,37.4301691 L61.9326164,34.7744223 C61.3670921,37.6191071 60.4387786,40.2727311 58.1980218,42.2045693"/>
    <path d="M58.1980218,42.2045693 C61.9368845,44.527021 60.7556856,43.8052353 61.6061062,44.3285299 C62.1054748,44.6374118 62.7648975,44.4898703 63.0786035,43.9952348 C64.8039862,41.2821696 65.666144,37.4301691 65.666144,37.4301691 L61.9326164,34.7744223 C61.3670921,37.6191071 60.4387786,40.2727311 58.1980218,42.2045693 Z"/>
    <path fill="#FFF" d="M58.1980218,42.2045693 C54.4591591,44.527021 55.6403581,43.8052353 54.7899375,44.3285299 C54.2905689,44.6374118 53.6311462,44.4898703 53.3174402,43.9952348 C51.5920575,41.2821696 50.7298997,37.4301691 50.7298997,37.4301691 L54.4634272,34.7744223 C55.0289516,37.6191071 55.9572651,40.2727311 58.1980218,42.2045693"/>
    <path d="M58.1980218,42.2045693 C54.4591591,44.527021 55.6403581,43.8052353 54.7899375,44.3285299 C54.2905689,44.6374118 53.6311462,44.4898703 53.3174402,43.9952348 C51.5920575,41.2821696 50.7298997,37.4301691 50.7298997,37.4301691 L54.4634272,34.7744223 C55.0289516,37.6191071 55.9572651,40.2727311 58.1980218,42.2045693 Z"/>
    <path fill="#C08DF2" d="M58.1980218,41.7899671 C57.2056867,41.2475664 54.1710618,39.9069556 52.3251051,39.5694146 C51.7595808,39.466454 51.1897883,39.8082408 51.0446726,40.361256 C50.6818835,41.7506935 50.7213635,43.7907996 51.0862867,46.0198437 C51.2079278,46.7586126 52.0007289,47.1874382 52.6868272,46.8806793 C54.5487894,46.0474414 57.2686413,44.7630874 58.1980218,44.0582849 L58.1980218,41.7899671 Z"/>
    <path fill="#C08DF2" d="M58.1980218,41.7899671 C59.190357,41.2475664 62.2249818,39.9069556 64.0709386,39.5694146 C64.6364629,39.466454 65.2062554,39.8082408 65.351371,40.361256 C65.7141602,41.7506935 65.6746802,43.7907996 65.309757,46.0198437 C65.1881159,46.7586126 64.3953148,47.1874382 63.7092164,46.8806793 C61.8472543,46.0474414 59.1274024,44.7630874 58.1980218,44.0582849 L58.1980218,41.7899671 Z"/>
    <path stroke="#9164BE" stroke-linecap="round" stroke-linejoin="round" stroke-width="1.27" d="M54.4634272,43.2660189 L61.9326164,43.2660189"/>
    <path fill="#AB77DE" d="M59.2650489,45.3889181 L57.1309948,45.3889181 C56.8364954,45.3889181 56.5974813,45.1511534 56.5974813,44.8581933 L56.5974813,41.6738445 C56.5974813,41.3808845 56.8364954,41.1431197 57.1309948,41.1431197 L59.2650489,41.1431197 C59.5595483,41.1431197 59.7985624,41.3808845 59.7985624,41.6738445 L59.7985624,44.8581933 C59.7985624,45.1511534 59.5595483,45.3889181 59.2650489,45.3889181"/>
    <path d="M58.1980218,45.3889181 L58.1980218,60.2492122"/>
    <g stroke="#008BCC" stroke-linecap="round" stroke-linejoin="round" transform="translate(0 60)">
      <path d="M5.380184,0.513918067 L88.6082921,0.513918067"/>
      <path d="M0.578562378,0.513918067 L3.24612995,0.513918067"/>
      <path d="M90.7423462,0.513918067 L93.4099137,0.513918067"/>
    </g>
    <path fill="#66EED1" d="M45.927211,67.3518908 C45.927211,67.9378109 45.4491829,68.4133403 44.860184,68.4133403 L18.7180218,68.4133403 C18.1290229,68.4133403 17.6509948,67.9378109 17.6509948,67.3518908 L17.6509948,65.7597164 C17.6509948,65.1737962 18.1290229,64.6982668 18.7180218,64.6982668 L44.860184,64.6982668 C45.4491829,64.6982668 45.927211,65.1737962 45.927211,65.7597164 L45.927211,67.3518908 Z"/>
    <path fill="#006898" d="M43.793157,60.9831933 C43.793157,61.5691134 43.3151289,62.0446429 42.7261299,62.0446429 L20.8520759,62.0446429 C20.263077,62.0446429 19.7850489,61.5691134 19.7850489,60.9831933 L19.7850489,59.3910189 C19.7850489,58.8050987 20.263077,58.3295693 20.8520759,58.3295693 L42.7261299,58.3295693 C43.3151289,58.3295693 43.793157,58.8050987 43.793157,59.3910189 L43.793157,60.9831933 Z"/>
    <path fill="#804BB5" d="M43.793157,54.6144958 C43.793157,55.200416 43.3151289,55.6759454 42.7261299,55.6759454 L21.9191029,55.6759454 C21.330104,55.6759454 20.8520759,55.200416 20.8520759,54.6144958 L20.8520759,51.4301471 C20.8520759,50.8442269 21.330104,50.3686975 21.9191029,50.3686975 L42.7261299,50.3686975 C43.3151289,50.3686975 43.793157,50.8442269 43.793157,51.4301471 L43.793157,54.6144958 Z"/>
    <path fill="#00B8F0" d="M43.793157,46.6536239 C43.793157,47.2395441 43.3151289,47.7150735 42.7261299,47.7150735 L21.9191029,47.7150735 C21.330104,47.7150735 20.8520759,47.2395441 20.8520759,46.6536239 L20.8520759,43.4692752 C20.8520759,42.883355 21.330104,42.4078256 21.9191029,42.4078256 L42.7261299,42.4078256 C43.3151289,42.4078256 43.793157,42.883355 43.793157,43.4692752 L43.793157,46.6536239 Z"/>
    <path fill="#020202" d="M16.5839678,69.4747899 C16.5839678,70.3547316 23.2720932,71.0669643 31.5223462,71.0669643 C39.7725991,71.0669643 46.4607245,70.3547316 46.4607245,69.4747899 C46.4607245,68.5948482 39.7725991,67.8826155 31.5223462,67.8826155 C23.2720932,67.8826155 16.5839678,68.5948482 16.5839678,69.4747899" opacity=".15"/>
    <path fill="#35C4A5" d="M44.860184,66.821166 L18.7180218,66.821166 C18.1290229,66.821166 17.6509948,66.3456366 17.6509948,65.7597164 L17.6509948,67.3518908 C17.6509948,67.9378109 18.1290229,68.4133403 18.7180218,68.4133403 L44.860184,68.4133403 C45.4491829,68.4133403 45.927211,67.9378109 45.927211,67.3518908 L45.927211,65.7597164 C45.927211,66.3456366 45.4491829,66.821166 44.860184,66.821166"/>
    <path fill="#0DB2E5" d="M42.7261299,58.3295693 L20.8520759,58.3295693 C20.263077,58.3295693 19.7850489,58.8050987 19.7850489,59.3910189 L19.7850489,60.9831933 C19.7850489,60.3972731 20.263077,59.9217437 20.8520759,59.9217437 L42.7261299,59.9217437 C43.3151289,59.9217437 43.793157,60.3972731 43.793157,60.9831933 L43.793157,59.3910189 C43.793157,58.8050987 43.3151289,58.3295693 42.7261299,58.3295693"/>
    <path fill="#66EED1" d="M42.7261299,50.3686975 L21.9191029,50.3686975 C21.330104,50.3686975 20.8520759,50.8442269 20.8520759,51.4301471 L20.8520759,53.5530462 C20.8520759,52.9671261 21.330104,52.4915966 21.9191029,52.4915966 L42.7261299,52.4915966 C43.3151289,52.4915966 43.793157,52.9671261 43.793157,53.5530462 L43.793157,51.4301471 C43.793157,50.8442269 43.3151289,50.3686975 42.7261299,50.3686975"/>
    <path fill="#4ACFFF" d="M42.7261299,42.4078256 L21.9191029,42.4078256 C21.330104,42.4078256 20.8520759,42.883355 20.8520759,43.4692752 L20.8520759,45.5921744 C20.8520759,45.0062542 21.330104,44.5307248 21.9191029,44.5307248 L42.7261299,44.5307248 C43.3151289,44.5307248 43.793157,45.0062542 43.793157,45.5921744 L43.793157,43.4692752 C43.793157,42.883355 43.3151289,42.4078256 42.7261299,42.4078256"/>
    <path d="M43.793157,46.6536239 C43.793157,47.2395441 43.3151289,47.7150735 42.7261299,47.7150735 L21.9191029,47.7150735 C21.330104,47.7150735 20.8520759,47.2395441 20.8520759,46.6536239 L20.8520759,43.4692752 C20.8520759,42.883355 21.330104,42.4078256 21.9191029,42.4078256 L42.7261299,42.4078256 C43.3151289,42.4078256 43.793157,42.883355 43.793157,43.4692752 L43.793157,46.6536239 Z"/>
    <path fill="#B973FF" d="M43.793157,63.6368172 C43.793157,64.2227374 43.3151289,64.6982668 42.7261299,64.6982668 L20.8520759,64.6982668 C20.263077,64.6982668 19.7850489,64.2227374 19.7850489,63.6368172 L19.7850489,63.1060924 C19.7850489,62.5201723 20.263077,62.0446429 20.8520759,62.0446429 L42.7261299,62.0446429 C43.3151289,62.0446429 43.793157,62.5201723 43.793157,63.1060924 L43.793157,63.6368172 Z"/>
    <path fill="#35C4A5" d="M42.7261299,57.2681197 C42.7261299,57.8540399 42.2481018,58.3295693 41.6591029,58.3295693 L20.8520759,58.3295693 C20.263077,58.3295693 19.7850489,57.8540399 19.7850489,57.2681197 L19.7850489,56.737395 C19.7850489,56.1514748 20.263077,55.6759454 20.8520759,55.6759454 L41.6591029,55.6759454 C42.2481018,55.6759454 42.7261299,56.1514748 42.7261299,56.737395 L42.7261299,57.2681197 Z"/>
    <path fill="#00DFEB" d="M41.6591029,49.3072479 C41.6591029,49.8931681 41.1810748,50.3686975 40.5920759,50.3686975 L20.8520759,50.3686975 C20.263077,50.3686975 19.7850489,49.8931681 19.7850489,49.3072479 L19.7850489,48.7765231 C19.7850489,48.1906029 20.263077,47.7150735 20.8520759,47.7150735 L40.5920759,47.7150735 C41.1810748,47.7150735 41.6591029,48.1906029 41.6591029,48.7765231 L41.6591029,49.3072479 Z"/>
    <path fill="#804BB5" d="M40.0585624,41.3463761 C40.0585624,41.9322962 39.5805343,42.4078256 38.9915354,42.4078256 L19.2515354,42.4078256 C18.6625364,42.4078256 18.1845083,41.9322962 18.1845083,41.3463761 L18.1845083,40.8156513 C18.1845083,40.2297311 18.6625364,39.7542017 19.2515354,39.7542017 L38.9915354,39.7542017 C39.5805343,39.7542017 40.0585624,40.2297311 40.0585624,40.8156513 L40.0585624,41.3463761 Z"/>
    <path d="M21.9191029,64.6982668 L21.9191029,68.4133403"/>
    <path d="M24.5866705,50.3686975 L24.5866705,55.6759454"/>
    <polygon fill="#FFF" points="24.054 47.715 26.188 47.715 26.188 42.408 24.054 42.408"/>
    <polygon fill="#FFF" points="29.389 47.715 31.523 47.715 31.523 42.408 29.389 42.408"/>
    <path fill="#D18660" d="M68.8682921,21.5063025 L68.8682921,18.8526786 C68.8682921,12.9902925 64.0912121,8.23818277 58.1980218,8.23818277 C52.3048316,8.23818277 47.5277516,12.9902925 47.5277516,18.8526786 L47.5277516,21.5063025 C46.3497537,21.5063025 45.3936975,22.4573613 45.3936975,23.6292017 C45.3936975,24.801042 46.3497537,25.7521008 47.5277516,25.7521008 C47.5725667,25.7521008 47.6141808,25.7414863 47.6589959,25.7393634 C48.4272554,30.8502432 52.8458143,34.7744223 58.1980218,34.7744223 C63.5502294,34.7744223 67.9687883,30.8502432 68.7370478,25.7393634 C68.7818629,25.7414863 68.823477,25.7521008 68.8682921,25.7521008 C70.0462899,25.7521008 71.0023462,24.801042 71.0023462,23.6292017 C71.0023462,22.4573613 70.0462899,21.5063025 68.8682921,21.5063025"/>
    <path d="M68.8682921,21.5063025 L68.8682921,18.8526786 C68.8682921,12.9902925 64.0912121,8.23818277 58.1980218,8.23818277 C52.3048316,8.23818277 47.5277516,12.9902925 47.5277516,18.8526786 L47.5277516,21.5063025 C46.3497537,21.5063025 45.3936975,22.4573613 45.3936975,23.6292017 C45.3936975,24.801042 46.3497537,25.7521008 47.5277516,25.7521008 C47.5725667,25.7521008 47.6141808,25.7414863 47.6589959,25.7393634 C48.4272554,30.8502432 52.8458143,34.7744223 58.1980218,34.7744223 C63.5502294,34.7744223 67.9687883,30.8502432 68.7370478,25.7393634 C68.7818629,25.7414863 68.823477,25.7521008 68.8682921,25.7521008 C70.0462899,25.7521008 71.0023462,24.801042 71.0023462,23.6292017 C71.0023462,22.4573613 70.0462899,21.5063025 68.8682921,21.5063025 Z"/>
    <path fill="#BD704A" d="M53.3964002,26.0174632 C53.3964002,26.7498634 52.7988651,27.3442752 52.0626164,27.3442752 C51.3263678,27.3442752 50.7288326,26.7498634 50.7288326,26.0174632 C50.7288326,25.285063 51.3263678,24.6906513 52.0626164,24.6906513 C52.7988651,24.6906513 53.3964002,25.285063 53.3964002,26.0174632"/>
    <path fill="#BD704A" d="M62.9996435,26.0174632 C62.9996435,26.7498634 63.5971786,27.3442752 64.3334272,27.3442752 C65.0696759,27.3442752 65.667211,26.7498634 65.667211,26.0174632 C65.667211,25.285063 65.0696759,24.6906513 64.3334272,24.6906513 C63.5971786,24.6906513 62.9996435,25.285063 62.9996435,26.0174632"/>
    <path stroke="#723D3D" stroke-linecap="round" stroke-linejoin="round" stroke-width="1.27" d="M54.9880844,28.7131206 C56.9322077,30.4156857 59.4642628,30.4156857 61.4083861,28.7131206"/>
    <path fill="#724F3D" d="M67.9060471,11.2297723 C68.1813401,10.4580984 68.295512,9.7702791 68.3371261,9.2501688 C68.3520644,9.06759947 68.2709704,8.89033739 68.1226536,8.78100809 C67.9743369,8.67167878 67.781205,8.64726544 67.6094136,8.71413676 C67.2540936,8.85424811 66.7771325,8.93067248 66.2009379,8.76933214 C65.7453174,8.64089674 65.3579866,8.47637206 65.0378785,8.31503172 C62.8728806,6.76637679 60.1647661,5.92146292 57.2432461,6.15285893 C51.0907682,6.64218718 46.4609379,11.9812786 46.4609379,18.1207029 L46.4609379,22.0374519 L47.0510039,22.330412 C47.7605769,22.6838747 48.594992,22.1701331 48.594992,21.3804146 L48.594992,20.9760023 C48.594992,17.5018778 50.4644234,14.4714393 53.2514979,12.7985947 C54.0368298,14.1678647 55.9510763,15.1380296 58.1982352,15.1380296 C59.0828006,15.1380296 59.9054785,14.9735049 60.6406601,14.7070811 C61.1176212,15.5880842 62.1088893,16.1994792 63.2666136,16.1994792 C64.2824234,16.1994792 65.175525,15.7324414 65.7026363,15.0244545 C67.0129455,16.656964 67.8014785,18.7236063 67.8014785,20.9760023 L67.8014785,21.3804146 C67.8014785,22.1701331 68.6358936,22.6838747 69.3454666,22.330412 L69.9355325,22.0374519 L69.9355325,17.7916536 C69.9355325,15.3588111 69.1854125,13.1000464 67.9060471,11.2297723"/>
    <path fill="#A86C4E" d="M46.4607245,20.3675794 C46.4607245,14.228155 51.0905548,8.88906366 57.2430326,8.40079685 C60.1645526,8.16727794 62.8726672,9.01325326 65.0376651,10.5619082 C65.3577732,10.7232485 65.745104,10.8867118 66.2007245,11.0151472 C67.088491,11.2656493 67.7319083,10.9503987 68.0680218,10.7094497 C68.2259418,10.1511272 68.3017008,9.6522459 68.3347786,9.25207941 C68.349717,9.06951008 68.2686229,8.89118655 68.1203062,8.78185725 C67.9730564,8.67358939 67.7788575,8.6481146 67.6070662,8.71498592 C67.2517462,8.85509727 66.7758521,8.93152164 66.2007245,8.76911985 C65.745104,8.64068445 65.3577732,8.47615977 65.0376651,8.31588088 C62.8726672,6.7661645 60.1645526,5.92125063 57.2430326,6.15370809 C51.0905548,6.64197489 46.4607245,11.9810663 46.4607245,18.1204907 L46.4607245,20.3675794 Z"/>
    <path d="M67.9060471,11.2297723 C68.1813401,10.4580984 68.295512,9.7702791 68.3371261,9.2501688 C68.3520644,9.06759947 68.2709704,8.89033739 68.1226536,8.78100809 C67.9743369,8.67167878 67.781205,8.64726544 67.6094136,8.71413676 C67.2540936,8.85424811 66.7771325,8.93067248 66.2009379,8.76933214 C65.7453174,8.64089674 65.3579866,8.47637206 65.0378785,8.31503172 C62.8728806,6.76637679 60.1647661,5.92146292 57.2432461,6.15285893 C51.0907682,6.64218718 46.4609379,11.9812786 46.4609379,18.1207029 L46.4609379,22.0374519 L47.0510039,22.330412 C47.7605769,22.6838747 48.594992,22.1701331 48.594992,21.3804146 L48.594992,20.9760023 C48.594992,17.5018778 50.4644234,14.4714393 53.2514979,12.7985947 C54.0368298,14.1678647 55.9510763,15.1380296 58.1982352,15.1380296 C59.0828006,15.1380296 59.9054785,14.9735049 60.6406601,14.7070811 C61.1176212,15.5880842 62.1088893,16.1994792 63.2666136,16.1994792 C64.2824234,16.1994792 65.175525,15.7324414 65.7026363,15.0244545 C67.0129455,16.656964 67.8014785,18.7236063 67.8014785,20.9760023 L67.8014785,21.3804146 C67.8014785,22.1701331 68.6358936,22.6838747 69.3454666,22.330412 L69.9355325,22.0374519 L69.9355325,17.7916536 C69.9355325,15.3588111 69.1854125,13.1000464 67.9060471,11.2297723 Z"/>
    <path stroke="#0DB2E5" stroke-linecap="round" stroke-linejoin="round" stroke-width="1.27" d="M57.1309948,20.9755777 L59.2650489,20.9755777"/>
    <path fill="#00B8F0" d="M65.667211,24.6906513 L61.3991029,24.6906513 C60.2211051,24.6906513 59.2650489,23.7395924 59.2650489,22.5677521 L59.2650489,20.4448529 C59.2650489,20.1518929 59.5040629,19.9141282 59.7985624,19.9141282 L66.2007245,19.9141282 C66.495224,19.9141282 66.7342381,20.1518929 66.7342381,20.4448529 L66.7342381,23.6292017 C66.7342381,24.2151218 66.2562099,24.6906513 65.667211,24.6906513"/>
    <path fill="#4ACFFF" d="M60.7363724,24.5755901 L64.7526622,19.9137036 L59.7984557,19.9137036 C59.5039562,19.9137036 59.2649422,20.1525297 59.2649422,20.4444284 L59.2649422,22.5673275 C59.2649422,23.5088333 59.8848849,24.2974903 60.7363724,24.5755901"/>
    <path fill="#00B8F0" d="M54.9969408,24.6906513 L50.7288326,24.6906513 C50.1398337,24.6906513 49.6618056,24.2151218 49.6618056,23.6292017 L49.6618056,20.4448529 C49.6618056,20.1518929 49.9008197,19.9141282 50.1953191,19.9141282 L56.5974813,19.9141282 C56.8919808,19.9141282 57.1309948,20.1518929 57.1309948,20.4448529 L57.1309948,22.5677521 C57.1309948,23.7395924 56.1749386,24.6906513 54.9969408,24.6906513"/>
    <path fill="#4ACFFF" d="M50.1974532,19.9141282 C49.9029537,19.9141282 49.6639397,20.1518929 49.6639397,20.4448529 L49.6639397,23.6292017 C49.6639397,24.2151218 50.1419678,24.6906513 50.7309667,24.6906513 L50.9593105,24.6906513 L55.0759008,19.9141282 L50.1974532,19.9141282 Z"/>
    <path stroke="#0DB2E5" stroke-linecap="round" stroke-linejoin="round" stroke-width="1.27" d="M54.9969408,24.6906513 L50.7288326,24.6906513 C50.1398337,24.6906513 49.6618056,24.2151218 49.6618056,23.6292017 L49.6618056,20.4448529 C49.6618056,20.1518929 49.9008197,19.9141282 50.1953191,19.9141282 L56.5974813,19.9141282 C56.8919808,19.9141282 57.1309948,20.1518929 57.1309948,20.4448529 L57.1309948,22.5677521 C57.1309948,23.7395924 56.1749386,24.6906513 54.9969408,24.6906513 Z"/>
    <path stroke="#0DB2E5" stroke-linecap="round" stroke-linejoin="round" stroke-width="1.27" d="M61.3991029,24.6906513 L65.667211,24.6906513 C66.2562099,24.6906513 66.7342381,24.2151218 66.7342381,23.6292017 L66.7342381,20.4448529 C66.7342381,20.1518929 66.495224,19.9141282 66.2007245,19.9141282 L59.7985624,19.9141282 C59.5040629,19.9141282 59.2650489,20.1518929 59.2650489,20.4448529 L59.2650489,22.5677521 C59.2650489,23.7395924 60.2211051,24.6906513 61.3991029,24.6906513 Z"/>
    <path stroke="#4C3327" stroke-linecap="round" stroke-linejoin="round" stroke-width="1.27" d="M64.6090403,22.5677521 C64.2782619,21.9436197 63.6977992,21.5031182 63.0042317,21.5031182 C62.3106641,21.5031182 61.7291344,21.9436197 61.399423,22.5677521"/>
    <path stroke="#4C3327" stroke-linecap="round" stroke-linejoin="round" stroke-width="1.27" d="M54.9969408,22.5677521 C54.6661624,21.9436197 54.0856997,21.5031182 53.3921321,21.5031182 C52.6974975,21.5031182 52.1170348,21.9436197 51.7873235,22.5677521"/>
  </g>
</svg>
