<svg height="70" viewBox="0 0 95 70" width="95" xmlns="http://www.w3.org/2000/svg" xmlns:xlink="http://www.w3.org/1999/xlink"><linearGradient id="a" x1="50%" x2="50%" y1="0%" y2="100%"><stop offset="0" stop-color="#f5fafd"/><stop offset="1" stop-color="#c5ecff"/></linearGradient><mask id="b" fill="#fff"><path d="m0 0h60v43h-60z" fill="none"/></mask><g fill="none" fill-rule="evenodd"><path d="m90.455 43c0-23.748-19.13-43-42.728-43-23.597 0-42.727 19.252-42.727 43a43.063 43.063 0 0 0 3.806 17.737h77.842a43.047 43.047 0 0 0 3.807-17.737" fill="url(#a)"/><g mask="url(#b)" transform="translate(18 18)"><path d="m49.796 45.08h-39.601a2.71 2.71 0 0 1 -2.699-2.707v-26.855h44.999v26.855a2.71 2.71 0 0 1 -2.699 2.706" fill="#1176a5"/><path d="m52.495 15.518h-45v-6.63a2.711 2.711 0 0 1 2.7-2.705h39.602a2.71 2.71 0 0 1 2.698 2.706z" fill="#1da1de"/><path d="m13.703 10.85c0 .86-.694 1.556-1.551 1.556a1.553 1.553 0 0 1 -1.552-1.556c0-.859.694-1.556 1.552-1.556.857 0 1.551.697 1.551 1.556" fill="#ff6242"/><path d="m19.91 10.85c0 .86-.694 1.556-1.552 1.556a1.554 1.554 0 0 1 -1.552-1.556c0-.859.695-1.556 1.552-1.556.858 0 1.552.697 1.552 1.556" fill="#fff48c"/><path d="m26.117 10.85c0 .86-.695 1.556-1.552 1.556a1.553 1.553 0 0 1 -1.552-1.556c0-.859.694-1.556 1.552-1.556.857 0 1.552.697 1.552 1.556" fill="#6dd627"/><path d="m26.544 31.076h-3.959c-.62 0-1.124-.505-1.124-1.127v-3.969c0-.622.504-1.127 1.124-1.127h3.959c.622 0 1.124.505 1.124 1.127v3.969c0 .622-.502 1.127-1.124 1.127" fill="#00dba8"/><path d="m36.63 31.076h-3.958a1.126 1.126 0 0 1 -1.125-1.127v-3.969c0-.622.504-1.127 1.125-1.127h3.958c.621 0 1.124.505 1.124 1.127v3.969c0 .622-.503 1.127-1.124 1.127m-10.086 9.336h-3.959c-.62 0-1.124-.505-1.124-1.128v-3.968c0-.624.504-1.128 1.124-1.128h3.959c.622 0 1.124.504 1.124 1.128v3.968c0 .623-.502 1.128-1.124 1.128" fill="#b973ff"/><path d="m36.63 40.412h-3.958a1.127 1.127 0 0 1 -1.125-1.128v-3.968c0-.624.504-1.128 1.125-1.128h3.958c.621 0 1.124.504 1.124 1.128v3.968c0 .623-.503 1.128-1.124 1.128" fill="#00dba8"/><path d="m17.234 21.742h-3.958c-.62 0-1.125-.506-1.125-1.128v-.857c0-.623.504-1.127 1.125-1.127h3.958c.621 0 1.124.504 1.124 1.127v.857c0 .622-.503 1.128-1.124 1.128m29.482 0h-24.13a1.127 1.127 0 0 1 -1.125-1.128v-.857c0-.623.504-1.127 1.124-1.127h24.131c.62 0 1.125.504 1.125 1.127v.857c0 .622-.504 1.128-1.125 1.128" fill="#00b8f0"/><path d="m12.152 24.853h6.207m-6.207 3.112h6.207m-6.207 3.111h6.207m-6.207 3.112h6.207m-6.207 3.112h6.207m-6.207 3.112h3.88" opacity=".797" stroke="#fff" stroke-linecap="round" stroke-linejoin="round" stroke-width="1.053"/></g><path d="m84 68c0 1.105-6.715 2-15 2s-15-.895-15-2c0-1.104 6.715-2 15-2s15 .896 15 2" fill="#020202" opacity=".096"/><path d="m5.703 60.737h83.317m-88.125 0h2.67m87.591 0h2.67" stroke="#008bcc" stroke-linecap="round" stroke-linejoin="round"/><path d="m79.106 64.622a1.527 1.527 0 0 1 -2.158 2.16l-12.595-12.602 2.16-2.16 12.593 12.603z" fill="#78635e"/><path d="m66.633 50.698a.85.85 0 0 1 0 1.2l-2.4 2.401a.849.849 0 0 1 -1.2 0l-3.116-3.119a.849.849 0 0 1 0-1.201l2.398-2.4a.847.847 0 0 1 1.2 0l3.119 3.12z" fill="#e8f4fa"/><path d="m63.514 47.578a.848.848 0 0 0 -1.2 0l-2.399 2.4a.849.849 0 0 0 0 1.2l1.437 1.438 3.598-3.601z" fill="#fff"/><path d="m60.035 51.299a5.605 5.605 0 0 0 0 7.921.346.346 0 0 0 .59-.266 6.615 6.615 0 0 1 1.929-5.135zm11.018-3.825-1.166 1.167a.703.703 0 0 1 -.993 0l-4.044-4.047a.704.704 0 0 1 0-.994l1.165-1.167a.703.703 0 0 1 .994 0l4.044 4.047a.702.702 0 0 1 0 .994" fill="#e8f4fa"/><path d="m67.112 42.536a.847.847 0 0 0 -1.2 0l-.96.96a.852.852 0 0 0 0 1.2l2.158 2.16 2.16-2.161-2.159-2.159z" fill="#fff"/><path d="m65.073 44.817c-.233 1.173-.451 1.892-1.298 2.738l-.142.142 2.52 2.522.142-.143c.845-.846 1.562-1.064 2.736-1.298z" fill="#a7cbde"/><path d="m65.797 65.79-2.879-2.881 12.954-12.964 2.879 2.882z" fill="#1786ba"/><path d="m75.872 49.945-12.953 12.964 1.439 1.44 12.954-12.963z" fill="#1da1de"/><path d="m62.918 62.909-1.439 4.321 4.318-1.44z" fill="#ffe3cf"/><path d="m78.751 52.826-2.879-2.88 1.44-1.441a2.037 2.037 0 1 1 2.88 2.881l-1.44 1.44z" fill="#ffa9e6"/><path d="m60.733 67.946.78-.78" stroke="#585e67" stroke-linecap="round" stroke-linejoin="round" stroke-width=".6"/><path d="m76.785 23.936c0 3.713-3.071 6.722-6.86 6.722s-6.86-3.01-6.86-6.722c0-3.713 3.071-6.722 6.86-6.722s6.86 3.01 6.86 6.722" fill="#00dba8"/><path d="m69.925 19.735c3.348 0 6.133 2.352 6.735 5.462.08-.41.125-.83.125-1.261 0-3.713-3.071-6.722-6.86-6.722s-6.86 3.01-6.86 6.722c0 .431.045.852.124 1.26.603-3.109 3.387-5.461 6.736-5.461" fill="#29f6c6"/><path d="m67.959 22.838-2.096 1.196 2.096 1.494m3.931 0 2.097-1.494-2.097-1.196m-2.882 3.288 2.096-4.782" stroke="#fff" stroke-linecap="round" stroke-linejoin="round" stroke-width=".7"/><path d="m10.112 46.265h-.32a.827.827 0 0 0 -.584.242l-5.688 5.677c-.79.79-.28 2.58.511 3.368.79.79 2.685 1.401 3.476.612l5.688-5.677a.822.822 0 0 0 .241-.583v-.32c0-.36-.143-.706-.398-.962l-1.963-1.958a1.364 1.364 0 0 0 -.963-.399" fill="#87898c"/><path d="m9.208 46.507a.828.828 0 0 1 .583-.242h.32c.363 0 .71.143.964.4l.943.94-7.974 7.96-.013-.012c-.79-.79-1.302-2.58-.511-3.369z" fill="#bdbec0"/><path d="m13.357 49.126a1.358 1.358 0 0 0 -.32-.504l-1.962-1.958a1.372 1.372 0 0 0 -.51-.321l.112-.078 1.248-.997c.498-.398.77-1.015.727-1.65a.937.937 0 0 1 1.55-.365l2.254 2.25a.934.934 0 0 1 -.367 1.547 1.949 1.949 0 0 0 -1.654.724l-.998 1.247z" fill="#804bb5"/><path d="m11.925 45.268c.498-.398.77-1.015.727-1.65a.937.937 0 0 1 1.55-.365l1.087 1.086-3.271 3.266-.943-.941a1.372 1.372 0 0 0 -.51-.321l.112-.078z" fill="#b973ff"/><path d="m28.382 33.11-1.387 2.216a1.656 1.656 0 0 1 -.73.633l-.896.466c-.184.096-.353.22-.5.367l-8.57 8.555-1.942-1.94 8.57-8.555c.147-.146.27-.314.366-.498l.468-.894c.134-.301.355-.555.634-.73l2.22-1.384a.924.924 0 0 1 1.142.13l.495.493a.92.92 0 0 1 .13 1.14" fill="#daedf7"/><path d="m23.294 34.354.467-.894c.134-.302.355-.555.634-.73l2.22-1.384a.924.924 0 0 1 1.142.13l.209.208-12.677 12.654-.932-.93 8.57-8.556a2.05 2.05 0 0 0 .367-.498" fill="#fff"/><path d="m6.076 54.736 5.316-5.307m-6.542 4.082 5.316-5.307" stroke="#585e67" stroke-linecap="round" stroke-linejoin="round" stroke-width=".5"/></g></svg>