<?xml version="1.0" encoding="UTF-8" standalone="no"?>
<!-- Created with Keyshape -->
<svg xmlns="http://www.w3.org/2000/svg" xmlns:xlink="http://www.w3.org/1999/xlink" width="76px" height="64px" viewBox="0 0 800 600" style="background: #ffffff;">
    <desc>Created with Sketch.</desc>
    <g id="Page-1" stroke="none" stroke-width="1" fill="none" fill-rule="evenodd" transform="translate(135.61,116.334) scale(7,6.93079)">
        <g id="Basketball" transform="translate(1,0)">
            <path id="Ball-Shadow" d="M42,63.0003C42,63.5526,39.7613,64,37,64C34.2383,64,32,63.5526,32,63.0003C32,62.448,34.2383,62,37,62C39.7613,62,42,62.448,42,63.0003" fill-opacity="0.15" fill="#020202"/>
            <path id="Body-Shadow" d="M34,62.5004C34,63.3289,29.5225,64,24,64C18.4767,64,14,63.3289,14,62.5004C14,61.672,18.4767,61,24,61C29.5225,61,34,61.672,34,62.5004" fill-opacity="0.3" fill="#020202"/>
            <g id="116--basketball-male-african-american" opacity="0">
                <g id="Group-64">
                    <path id="Fill-3" d="M6.39418,47.8617C6.85282,48.8722,7.37698,49.845,7.9297,50.7992L66.0703,50.7992C66.623,49.845,67.1472,48.8722,67.6067,47.8617L6.39418,47.8617Z" fill="#FFFFFF"/>
                    <path id="Fill-5" d="M70.6,34.0135C70.6,15.4729,55.5564,0.442084,37,0.442084C18.4427,0.442084,3.4,15.4729,3.4,34.0135C3.4,38.9535,4.47604,43.6384,6.39376,47.8617L67.6071,47.8617C69.524,43.6384,70.6,38.9535,70.6,34.0135" fill="#8BFFFA"/>
                    <path id="Stroke-7" d="M4.24,47.8617L69.76,47.8617" stroke="#1A1816" stroke-linecap="round" stroke-linejoin="round"/>
                    <path id="Stroke-9" d="M0.46,47.8617L2.56,47.8617" stroke="#1A1816" stroke-linecap="round" stroke-linejoin="round"/>
                    <path id="Stroke-11" d="M71.44,47.8617L73.54,47.8617" stroke="#1A1816" stroke-linecap="round" stroke-linejoin="round"/>
                    <path id="Fill-13" d="M57.9106,23.7405L52.6984,25.9721C52.5943,26.0175,52.4817,26.0401,52.3675,26.0401L46.8327,26.0401C46.7193,26.0401,46.6059,26.0175,46.5017,25.9721L41.2895,23.7405C40.9804,23.6087,40.7797,23.3049,40.7797,22.9692L40.7797,20.1651C43.5752,11.6548,55.625,11.6548,58.4197,20.1651L58.4197,22.9692C58.4197,23.3049,58.2197,23.6087,57.9106,23.7405" fill="#E04222"/>
                    <path id="Stroke-15" d="M57.9106,23.7405L52.6984,25.9721C52.5943,26.0175,52.4817,26.0401,52.3675,26.0401L46.8327,26.0401C46.7193,26.0401,46.6059,26.0175,46.5017,25.9721L41.2895,23.7405C40.9804,23.6087,40.7797,23.3049,40.7797,22.9692L40.7797,20.1651C43.5752,11.6548,55.625,11.6548,58.4197,20.1651L58.4197,22.9692C58.4197,23.3049,58.2197,23.6087,57.9106,23.7405Z" stroke="#1A1816" stroke-linecap="round" stroke-linejoin="round"/>
                    <path id="Fill-17" d="M56.3528,22.8782L52.1176,24.545C52.0319,24.5786,51.942,24.5962,51.8504,24.5962L47.3514,24.5962C47.259,24.5962,47.1666,24.5786,47.0818,24.5442L42.8473,22.8782C42.5962,22.78,42.434,22.5526,42.434,22.3016L42.434,20.2076C44.807,13.5663,54.394,13.5663,56.7661,20.2076L56.7661,22.3016C56.7661,22.5526,56.604,22.78,56.3528,22.8782" fill="#FFFFFF"/>
                    <path id="Stroke-19" d="M56.3528,22.8782L52.1176,24.545C52.0319,24.5786,51.942,24.5962,51.8504,24.5962L47.3514,24.5962C47.259,24.5962,47.1666,24.5786,47.0818,24.5442L42.8473,22.8782C42.5962,22.78,42.434,22.5526,42.434,22.3016L42.434,20.2076C44.807,13.5663,54.394,13.5663,56.7661,20.2076L56.7661,22.3016C56.7661,22.5526,56.604,22.78,56.3528,22.8782Z" stroke="#1A1816" stroke-linecap="round" stroke-linejoin="round"/>
                    <path id="Fill-21" fill="#8BA4B8" d="M48.76,31.9152L50.44,31.9152L50.44,26.0402L48.76,26.0402Z"/>
                    <path id="Stroke-23" stroke="#1A1816" stroke-linecap="round" stroke-linejoin="round" d="M48.76,31.9152L50.44,31.9152L50.44,26.0402L48.76,26.0402Z"/>
                    <path id="Fill-24" d="M54.1339,43.2457L45.0661,43.2457C45.0098,43.4144,44.9813,43.5923,44.9804,43.7727L44.9804,47.8617L54.2204,47.8617L54.2204,43.7752C54.2204,43.594,54.1902,43.4152,54.1339,43.2457" fill="#009FD9"/>
                    <path id="Stroke-25" d="M54.1339,43.2457L45.0661,43.2457C45.0098,43.4144,44.9813,43.5923,44.9804,43.7727L44.9804,47.8617L54.2204,47.8617L54.2204,43.7752C54.2204,43.594,54.1902,43.4152,54.1339,43.2457Z" stroke="#1A1816" stroke-linecap="round" stroke-linejoin="round"/>
                    <path id="Fill-26" d="M51.28,39.0492L47.92,39.0492L47.92,32.3349C47.92,32.1033,48.1082,31.9153,48.34,31.9153L50.86,31.9153C51.0918,31.9153,51.28,32.1033,51.28,32.3349L51.28,39.0492Z" fill="#00B8F0"/>
                    <path id="Stroke-27" d="M51.28,39.0492L47.92,39.0492L47.92,32.3349C47.92,32.1033,48.1082,31.9153,48.34,31.9153L50.86,31.9153C51.0918,31.9153,51.28,32.1033,51.28,32.3349L51.28,39.0492Z" stroke="#1A1816" stroke-linecap="round" stroke-linejoin="round"/>
                    <path id="Fill-28" d="M45.0661,43.2457L54.1339,43.2457C54.0827,43.0921,54.0096,42.9469,53.9163,42.8117L51.2796,39.0492L47.9196,39.0492L45.2837,42.8126C45.1896,42.9469,45.1173,43.0921,45.0661,43.2457" fill="#00B8F0"/>
                    <path id="Stroke-29" d="M45.0661,43.2457L54.1339,43.2457C54.0827,43.0921,54.0096,42.9469,53.9163,42.8117L51.2796,39.0492L47.9196,39.0492L45.2837,42.8126C45.1896,42.9469,45.1173,43.0921,45.0661,43.2457Z" stroke="#1A1816" stroke-linecap="round" stroke-linejoin="round"/>
                    <path id="Fill-30" d="M52.54,23.9421L46.66,23.9421C46.1963,23.9421,45.82,23.5669,45.82,23.1028C45.82,22.6395,46.1963,22.2635,46.66,22.2635L52.54,22.2635C53.0045,22.2635,53.38,22.6395,53.38,23.1028C53.38,23.5669,53.0045,23.9421,52.54,23.9421" fill="#FF6242"/>
                    <path id="Stroke-31" d="M52.54,23.9421L46.66,23.9421C46.1963,23.9421,45.82,23.5669,45.82,23.1028C45.82,22.6395,46.1963,22.2635,46.66,22.2635L52.54,22.2635C53.0045,22.2635,53.38,22.6395,53.38,23.1028C53.38,23.5669,53.0045,23.9421,52.54,23.9421Z" stroke="#1A1816" stroke-linecap="round" stroke-linejoin="round"/>
                    <path id="Fill-32" d="M46.66,23.9421C47.2152,25.3277,47.5,26.8074,47.5,28.2997L47.5,28.5582C47.5,28.7898,47.6882,28.9778,47.92,28.9778L51.28,28.9778C51.5118,28.9778,51.7,28.7898,51.7,28.5582L51.7,28.2997C51.7,26.8074,51.9856,25.3277,52.54,23.9421L46.66,23.9421Z" fill="#FFFFFF"/>
                    <path id="Stroke-33" d="M46.66,23.9421C47.2152,25.3277,47.5,26.8074,47.5,28.2997L47.5,28.5582C47.5,28.7898,47.6882,28.9778,47.92,28.9778L51.28,28.9778C51.5118,28.9778,51.7,28.7898,51.7,28.5582L51.7,28.2997C51.7,26.8074,51.9856,25.3277,52.54,23.9421L46.66,23.9421Z" stroke="#1A1816" stroke-linecap="round" stroke-linejoin="round"/>
                    <path id="Fill-34" d="M51.7484,18.9064L47.4526,18.9064C47.0141,18.9064,46.6597,19.2605,46.6597,19.6978L46.6597,22.2635L52.5397,22.2635L52.5397,19.6978C52.5397,19.2605,52.186,18.9064,51.7484,18.9064" fill="#FFFFFF"/>
                    <path id="Stroke-35" d="M51.7484,18.9064L47.4526,18.9064C47.0141,18.9064,46.6597,19.2605,46.6597,19.6978L46.6597,22.2635L52.5397,22.2635L52.5397,19.6978C52.5397,19.2605,52.186,18.9064,51.7484,18.9064Z" stroke="#1A1816" stroke-linecap="round" stroke-linejoin="round"/>
                    <path id="Stroke-36" d="M47.19,25.6207L52.0099,25.6207" stroke="#1A1816" stroke-linecap="round" stroke-linejoin="round"/>
                    <path id="Stroke-37" d="M47.4573,27.2992L51.743,27.2992" stroke="#1A1816" stroke-linecap="round" stroke-linejoin="round"/>
                    <path id="Stroke-38" d="M49.6,23.9421L49.6,28.9778" stroke="#1A1816" stroke-linecap="round" stroke-linejoin="round"/>
                    <path id="Fill-42" d="M14.7818,35.8183C14.7818,30.4872,19.107,26.1665,24.4418,26.1665C29.7775,26.1665,34.1018,30.4872,34.1018,35.8183L34.1018,40.4025C34.1018,41.6085,35.0779,42.5746,36.2758,42.5746C37.2124,42.5746,37.9667,43.3274,37.9667,44.264C37.9667,45.1998,37.2124,45.9527,36.2758,45.9527C32.7503,45.9527,30.7217,42.7961,30.7217,40.8851L30.7217,44.0215L18.1628,44.0215L18.1628,46.677C18.1628,47.6128,17.4094,48.3656,16.4728,48.3656C15.5353,48.3656,14.7818,47.6128,14.7818,46.677L14.7818,35.8183Z" fill="#D18660"/>
                    <path id="Fill-43" d="M24.4418,26.1665C19.1062,26.1665,14.7818,30.4872,14.7818,35.8183L14.7818,38.2313C14.7818,32.9001,19.1062,28.5795,24.4418,28.5795C29.7775,28.5795,34.1018,32.9001,34.1018,38.2313L34.1018,35.8183C34.1018,30.4872,29.7775,26.1665,24.4418,26.1665" fill="#E09F7E"/>
                    <path id="Stroke-44" d="M14.7818,35.8183C14.7818,30.4872,19.107,26.1665,24.4418,26.1665C29.7775,26.1665,34.1018,30.4872,34.1018,35.8183L34.1018,40.4025C34.1018,41.6085,35.0779,42.5746,36.2758,42.5746C37.2124,42.5746,37.9667,43.3274,37.9667,44.264C37.9667,45.1998,37.2124,45.9527,36.2758,45.9527C32.7503,45.9527,30.7217,42.7961,30.7217,40.8851L30.7217,44.0215L18.1628,44.0215L18.1628,46.677C18.1628,47.6128,17.4094,48.3656,16.4728,48.3656C15.5353,48.3656,14.7818,47.6128,14.7818,46.677L14.7818,35.8183Z" stroke="#1A1816" stroke-linecap="round" stroke-linejoin="round"/>
                    <path id="Fill-45" d="M18.1632,44.0218L18.1632,61.8776L22.5102,61.8776L22.8915,49.8658C22.9184,49.0298,23.6047,48.366,24.4422,48.366C25.2796,48.366,25.9659,49.0298,25.992,49.8658L26.3733,61.8776L30.7212,61.8776L30.7212,44.0218L18.1632,44.0218Z" fill="#D18660"/>
                    <path id="Fill-46" d="M22.7708,53.6736L22.8918,49.8658C22.9187,49.0298,23.6041,48.366,24.4416,48.366C25.2791,48.366,25.9662,49.0298,25.9922,49.8658L26.1132,53.6736L30.7214,53.6736L30.7214,44.0218L18.1634,44.0218L18.1634,53.6736L22.7708,53.6736Z" fill="#FFFFFF"/>
                    <path id="Fill-47" fill="#A05AE6" d="M28.7882,53.6737L30.721,53.6737L30.721,44.0219L28.7882,44.0219Z"/>
                    <path id="Stroke-48" d="M18.1632,44.0218L18.1632,61.8776L22.5102,61.8776L22.8915,49.8658C22.9184,49.0298,23.6047,48.366,24.4422,48.366C25.2796,48.366,25.9659,49.0298,25.992,49.8658L26.3733,61.8776L30.7212,61.8776L30.7212,44.0218L18.1632,44.0218Z" stroke="#1A1816" stroke-linecap="round" stroke-linejoin="round"/>
                    <path id="Fill-49" fill="#A05AE6" d="M18.163,53.6737L20.095,53.6737L20.095,44.0219L18.163,44.0219Z"/>
                    <path id="Stroke-51" d="M18.1632,53.6736L22.7706,53.6736" stroke="#1A1816" stroke-linecap="round" stroke-linejoin="round"/>
                    <path id="Stroke-52" d="M26.1128,53.6736L30.7211,53.6736" stroke="#1A1816" stroke-linecap="round" stroke-linejoin="round"/>
                    <path id="Fill-53" fill="#F0F0F0" d="M20.095,46.4349L28.789,46.4349L28.789,44.0219L20.095,44.0219Z"/>
                    <path id="Fill-54" fill="#803EC2" d="M18.163,46.4349L20.095,46.4349L20.095,44.0219L18.163,44.0219Z"/>
                    <path id="Fill-55" fill="#803EC2" d="M28.7882,46.4349L30.721,46.4349L30.721,44.0219L28.7882,44.0219Z"/>
                    <path id="Stroke-56" d="M18.1632,37.7485L18.1632,33.8878" stroke="#1A1816" stroke-linecap="round" stroke-linejoin="round"/>
                    <path id="Stroke-57" d="M30.7213,33.8881L30.7213,37.7488" stroke="#1A1816" stroke-linecap="round" stroke-linejoin="round"/>
                    <path id="Stroke-58" stroke="#1A1816" stroke-linecap="round" stroke-linejoin="round" d="M28.7882,53.6737L30.721,53.6737L30.721,44.0219L28.7882,44.0219Z"/>
                    <path id="Stroke-59" stroke="#1A1816" stroke-linecap="round" stroke-linejoin="round" d="M18.163,53.6737L20.095,53.6737L20.095,44.0219L18.163,44.0219Z"/>
                    <path id="Fill-60" d="M29.2718,35.8864L29.2718,30.5099C29.2718,29.5708,29.6213,28.7222,30.179,28.0525C28.5746,26.8674,26.5906,26.1666,24.4418,26.1666C22.2931,26.1666,20.309,26.8674,18.7046,28.0525C19.2624,28.7222,19.6118,29.5708,19.6118,30.5099L19.6118,35.8864C19.6118,36.7844,18.9953,37.5331,18.1628,37.7488L18.1628,44.0216L30.7217,44.0216L30.7217,37.7488C29.8892,37.5331,29.2718,36.7844,29.2718,35.8864" fill="#FFFFFF"/>
                    <path id="Stroke-61" d="M29.2718,35.8864L29.2718,30.5099C29.2718,29.5708,29.6213,28.7222,30.179,28.0525C28.5746,26.8674,26.5906,26.1666,24.4418,26.1666C22.2931,26.1666,20.309,26.8674,18.7046,28.0525C19.2624,28.7222,19.6118,29.5708,19.6118,30.5099L19.6118,35.8864C19.6118,36.7844,18.9953,37.5331,18.1628,37.7488L18.1628,44.0216L30.7217,44.0216L30.7217,37.7488C29.8892,37.5331,29.2718,36.7844,29.2718,35.8864Z" stroke="#1A1816" stroke-linecap="round" stroke-linejoin="round"/>
                    <path id="Fill-62" d="M24.4418,28.5795C26.2226,28.5795,27.8892,29.0612,29.3222,29.9005C29.4365,29.2039,29.7448,28.5736,30.179,28.0524C28.5746,26.8673,26.5906,26.1665,24.4418,26.1665C22.2931,26.1665,20.309,26.8673,18.7046,28.0524C19.1398,28.5736,19.4472,29.2039,19.5614,29.9005C20.9945,29.0612,22.6619,28.5795,24.4418,28.5795" fill="#A05AE6"/>
                    <path id="Stroke-63" d="M24.4418,28.5795C26.2226,28.5795,27.8892,29.0612,29.3222,29.9005C29.4365,29.2039,29.7448,28.5736,30.179,28.0524C28.5746,26.8673,26.5906,26.1665,24.4418,26.1665C22.2931,26.1665,20.309,26.8673,18.7046,28.0524C19.1398,28.5736,19.4472,29.2039,19.5614,29.9005C20.9945,29.0612,22.6619,28.5795,24.4418,28.5795Z" stroke="#1A1816" stroke-linecap="round" stroke-linejoin="round"/>
                </g>
                <text id="2-2" font-family="'San Francisco Display'" font-size="10.9211" fill="#a100d2" font-weight="900" transform="translate(22,41.517)" style="white-space: pre;">1</text>
                <g id="Group-90" transform="translate(14.32,3.78571)">
                    <path id="Fill-65" fill="#FFFFFF" d="M0.462,41.6848L3.843,41.6848L3.843,39.2719L0.462,39.2719Z"/>
                    <path id="Stroke-67" stroke="#1A1816" stroke-linecap="round" stroke-linejoin="round" d="M0.462,41.6848L3.843,41.6848L3.843,39.2719L0.462,39.2719Z"/>
                    <path id="Fill-68" d="M8.19,58.0923L3.843,58.0923L3.46668,54.3281C3.43896,54.0561,3.528,53.7859,3.71112,53.5844C3.89424,53.3822,4.15464,53.2664,4.42764,53.2664L7.6062,53.2664C7.87836,53.2664,8.13792,53.3822,8.32188,53.5844C8.505,53.7859,8.5932,54.0561,8.56632,54.3281L8.19,58.0923Z" fill="#E0E0E0"/>
                    <path id="Stroke-69" d="M8.19,58.0923L3.843,58.0923L3.46668,54.3281C3.43896,54.0561,3.528,53.7859,3.71112,53.5844C3.89424,53.3822,4.15464,53.2664,4.42764,53.2664L7.6062,53.2664C7.87836,53.2664,8.13792,53.3822,8.32188,53.5844C8.505,53.7859,8.5932,54.0561,8.56632,54.3281L8.19,58.0923Z" stroke="#1A1816" stroke-linecap="round" stroke-linejoin="round"/>
                    <path id="Fill-70" d="M12.0537,58.0923L16.4015,58.0923L16.7778,54.3281C16.8047,54.0561,16.7157,53.7859,16.5325,53.5844C16.3494,53.3822,16.0899,53.2664,15.816,53.2664L12.6383,53.2664C12.3653,53.2664,12.1057,53.3822,11.9226,53.5844C11.7395,53.7859,11.6505,54.0561,11.6773,54.3281L12.0537,58.0923Z" fill="#E0E0E0"/>
                    <path id="Stroke-71" d="M12.0537,58.0923L16.4015,58.0923L16.7778,54.3281C16.8047,54.0561,16.7157,53.7859,16.5325,53.5844C16.3494,53.3822,16.0899,53.2664,15.816,53.2664L12.6383,53.2664C12.3653,53.2664,12.1057,53.3822,11.9226,53.5844C11.7395,53.7859,11.6505,54.0561,11.6773,54.3281L12.0537,58.0923Z" stroke="#1A1816" stroke-linecap="round" stroke-linejoin="round"/>
                    <path id="Fill-72" d="M16.6228,58.575C17.341,58.575,17.8375,57.8029,17.4889,57.1751C16.995,56.2838,16.0449,55.6795,14.9521,55.6795L14.4691,55.6795C13.3771,55.6795,12.4254,56.2838,11.9314,57.1751C11.5837,57.8029,12.0793,58.575,12.7983,58.575L16.6228,58.575Z" fill="#BDBEC0"/>
                    <path id="Stroke-73" d="M16.6228,58.575C17.341,58.575,17.8375,57.8029,17.4889,57.1751C16.995,56.2838,16.0449,55.6795,14.9521,55.6795L14.4691,55.6795C13.3771,55.6795,12.4254,56.2838,11.9314,57.1751C11.5837,57.8029,12.0793,58.575,12.7983,58.575L16.6228,58.575Z" stroke="#1A1816" stroke-linecap="round" stroke-linejoin="round"/>
                    <path id="Fill-74" d="M7.44601,58.575C8.16421,58.575,8.65981,57.8029,8.31205,57.1751C7.81813,56.2838,6.86809,55.6795,5.77525,55.6795L5.29225,55.6795C4.20025,55.6795,3.24853,56.2838,2.75461,57.1751C2.40685,57.8029,2.90245,58.575,3.62065,58.575L7.44601,58.575Z" fill="#BDBEC0"/>
                    <path id="Stroke-75" d="M7.44601,58.575C8.16421,58.575,8.65981,57.8029,8.31205,57.1751C7.81813,56.2838,6.86809,55.6795,5.77525,55.6795L5.29225,55.6795C4.20025,55.6795,3.24853,56.2838,2.75461,57.1751C2.40685,57.8029,2.90245,58.575,3.62065,58.575L7.44601,58.575Z" stroke="#1A1816" stroke-linecap="round" stroke-linejoin="round"/>
                    <path id="Fill-76" d="M13.4515,22.9702C12.4141,22.5891,11.2927,22.381,10.1217,22.381C8.95247,22.381,7.83107,22.5891,6.79199,22.9702C7.07087,24.5547,8.45603,25.7583,10.1217,25.7583C11.7883,25.7583,13.1726,24.5547,13.4515,22.9702" fill="#D18660"/>
                    <path id="Stroke-77" d="M13.4515,22.9702C12.4141,22.5891,11.2927,22.381,10.1217,22.381C8.95247,22.381,7.83107,22.5891,6.79199,22.9702C7.07087,24.5547,8.45603,25.7583,10.1217,25.7583C11.7883,25.7583,13.1726,24.5547,13.4515,22.9702Z" stroke="#1A1816" stroke-linecap="round" stroke-linejoin="round"/>
                    <path id="Fill-78" d="M18.051,8.90877C18.0468,8.88946,18.0401,8.86932,18.0351,8.85002C19.5697,7.47275,18.723,4.82312,16.4088,4.82312C17.0413,2.43703,13.9846,0.870088,12.4029,2.75764C12.2458,1.63216,11.2899,0.763498,10.1223,0.76098C8.95381,0.763498,7.99789,1.63216,7.84081,2.75764C6.25909,0.870088,3.20233,2.43703,3.83569,4.82312C1.52065,4.82312,0.673932,7.47275,2.20861,8.85002C2.20441,8.86932,2.19769,8.88946,2.19265,8.90877C-0.561708,9.38716,-0.242508,13.451,2.55301,13.4971C3.71893,16.5446,6.66313,18.7116,10.1223,18.7133C13.5805,18.7116,16.5256,16.5446,17.6907,13.4971C20.487,13.451,20.8054,9.38716,18.051,8.90877" fill="#724F3D"/>
                    <path id="Fill-79" d="M18.0354,11.6479C18.0404,11.6672,18.0471,11.6874,18.0513,11.7067C18.7183,11.8234,19.2055,12.1507,19.5205,12.5787C20.3009,11.4809,20.0598,9.71255,18.6536,9.08896C18.9779,9.92909,18.8115,10.9513,18.0354,11.6479" fill="#A86C4E"/>
                    <path id="Fill-80" d="M2.19274,11.7069C2.19778,11.6876,2.2045,11.6675,2.2087,11.6482C1.43254,10.9516,1.26538,9.92934,1.58962,9.08921C0.184296,9.7128,-0.057624,11.4803,0.723576,12.579C1.03858,12.1501,1.52494,11.8236,2.19274,11.7069" fill="#A86C4E"/>
                    <path id="Fill-81" d="M3.83578,7.62122C3.20242,5.23513,6.25918,3.66818,7.8409,5.55574C7.99798,4.43109,8.9539,3.56243,10.1215,3.55991C11.2899,3.56243,12.2459,4.43109,12.4029,5.55574C13.9847,3.66818,17.0414,5.23513,16.4089,7.62122C17.2716,7.62122,17.9301,7.98966,18.3384,8.52345C19.4354,7.09415,18.5517,4.82304,16.4089,4.82304C17.0414,2.43695,13.9847,0.870004,12.4029,2.75756C12.2459,1.63208,11.2899,0.763414,10.1215,0.760896C8.9539,0.763414,7.99798,1.63208,7.8409,2.75756C6.25918,0.870004,3.20242,2.43695,3.83578,4.82304C1.6921,4.82304,0.808416,7.09415,1.90546,8.52345C2.3137,7.98966,2.97226,7.62122,3.83578,7.62122" fill="#A86C4E"/>
                    <path id="Stroke-82" d="M18.051,8.90877C18.0468,8.88946,18.0401,8.86932,18.0351,8.85002C19.5697,7.47275,18.723,4.82312,16.4088,4.82312C17.0413,2.43703,13.9846,0.870088,12.4029,2.75764C12.2458,1.63216,11.2899,0.763498,10.1223,0.76098C8.95381,0.763498,7.99789,1.63216,7.84081,2.75764C6.25909,0.870088,3.20233,2.43703,3.83569,4.82312C1.52065,4.82312,0.673932,7.47275,2.20861,8.85002C2.20441,8.86932,2.19769,8.88946,2.19265,8.90877C-0.561708,9.38716,-0.242508,13.451,2.55301,13.4971C3.71893,16.5446,6.66313,18.7116,10.1223,18.7133C13.5805,18.7116,16.5256,16.5446,17.6907,13.4971C20.487,13.451,20.8054,9.38716,18.051,8.90877Z" stroke="#1A1816" stroke-linecap="round" stroke-linejoin="round"/>
                    <path id="Fill-83" d="M15.9182,13.5019L15.9182,12.7289L15.9131,12.7289C15.2394,12.4897,14.7539,11.94,14.7539,11.1847C14.7539,10.9094,14.8236,10.6534,14.9379,10.4226C14.7069,10.5367,14.4498,10.6064,14.1752,10.6064C13.2142,10.6064,12.4355,9.82753,12.4355,8.86823C12.4355,8.86319,12.4372,8.85732,12.4372,8.8506C11.9105,9.55896,11.073,10.0248,10.1222,10.0264C9.17045,10.0248,8.33381,9.55896,7.80629,8.8506C7.80629,8.85732,7.80797,8.86319,7.80797,8.86823C7.80797,9.82753,7.02929,10.6064,6.06917,10.6064C5.79365,10.6064,5.53745,10.5367,5.30561,10.4226C5.41985,10.6534,5.48957,10.9094,5.48957,11.1847C5.48957,11.94,5.00405,12.4897,4.33037,12.7289L4.32617,12.7289L4.32617,13.5019C3.77933,13.6169,3.36017,14.0785,3.36017,14.6593C3.36017,15.2829,3.83981,15.7789,4.44797,15.8419C4.99397,18.473,7.32581,20.4504,10.1222,20.4504C12.9177,20.4504,15.2504,18.473,15.7955,15.8419C16.4037,15.7789,16.8833,15.2829,16.8833,14.6593C16.8833,14.0785,16.4642,13.6169,15.9182,13.5019" fill="#D18660"/>
                    <path id="Stroke-84" d="M15.9182,13.5019L15.9182,12.7289L15.9131,12.7289C15.2394,12.4897,14.7539,11.94,14.7539,11.1847C14.7539,10.9094,14.8236,10.6534,14.9379,10.4226C14.7069,10.5367,14.4498,10.6064,14.1752,10.6064C13.2142,10.6064,12.4355,9.82753,12.4355,8.86823C12.4355,8.86319,12.4372,8.85732,12.4372,8.8506C11.9105,9.55896,11.073,10.0248,10.1222,10.0264C9.17045,10.0248,8.33381,9.55896,7.80629,8.8506C7.80629,8.85732,7.80797,8.86319,7.80797,8.86823C7.80797,9.82753,7.02929,10.6064,6.06917,10.6064C5.79365,10.6064,5.53745,10.5367,5.30561,10.4226C5.41985,10.6534,5.48957,10.9094,5.48957,11.1847C5.48957,11.94,5.00405,12.4897,4.33037,12.7289L4.32617,12.7289L4.32617,13.5019C3.77933,13.6169,3.36017,14.0785,3.36017,14.6593C3.36017,15.2829,3.83981,15.7789,4.44797,15.8419C4.99397,18.473,7.32581,20.4504,10.1222,20.4504C12.9177,20.4504,15.2504,18.473,15.7955,15.8419C16.4037,15.7789,16.8833,15.2829,16.8833,14.6593C16.8833,14.0785,16.4642,13.6169,15.9182,13.5019Z" stroke="#1A1816" stroke-linecap="round" stroke-linejoin="round"/>
                    <path id="Fill-85" d="M7.70683,15.3829C7.70683,15.7833,7.38259,16.1064,6.98275,16.1064C6.58207,16.1064,6.25783,15.7833,6.25783,15.3829C6.25783,14.9834,6.58207,14.6595,6.98275,14.6595C7.38259,14.6595,7.70683,14.9834,7.70683,15.3829" fill="#BD704A"/>
                    <path id="Fill-86" d="M13.9863,15.3829C13.9863,15.7833,13.6613,16.1064,13.2614,16.1064C12.8616,16.1064,12.5365,15.7833,12.5365,15.3829C12.5365,14.9834,12.8616,14.6595,13.2614,14.6595C13.6613,14.6595,13.9863,14.9834,13.9863,15.3829" fill="#BD704A"/>
                    <path id="Stroke-87" d="M11.5713,17.0722C11.1329,17.3651,10.6053,17.5548,10.1215,17.5548C9.6385,17.5548,9.11182,17.3651,8.67334,17.0722" stroke="#1A1816" stroke-linecap="round" stroke-linejoin="round"/>
                    <path id="Fill-88" d="M7.94884,12.729C7.54816,12.729,7.22392,13.053,7.22392,13.4525C7.22392,13.8528,7.54816,14.1768,7.94884,14.1768C8.34868,14.1768,8.67292,13.8528,8.67292,13.4525C8.67292,13.053,8.34868,12.729,7.94884,12.729" fill="#1A1816"/>
                    <path id="Fill-89" d="M12.2957,12.729C11.895,12.729,11.5716,13.053,11.5716,13.4525C11.5716,13.8528,11.895,14.1768,12.2957,14.1768C12.6955,14.1768,13.0197,13.8528,13.0197,13.4525C13.0197,13.053,12.6955,12.729,12.2957,12.729" fill="#1A1816"/>
                </g>
            </g>
            <g id="115--basketball-male-asian" opacity="1">
                <g id="Group-64-2">
                    <path id="Fill-3-2" d="M6.39376,47.8617C6.8524,48.8722,7.37656,49.845,7.93012,50.7992L66.0699,50.7992C66.6234,49.845,67.1476,48.8722,67.6071,47.8617L6.39376,47.8617Z" fill="#FFFFFF"/>
                    <path id="Fill-5-2" d="M37,0.442084C18.4436,0.442084,3.4,15.4729,3.4,34.0135C3.4,38.9535,4.47604,43.6384,6.39376,47.8617L67.6071,47.8617C69.524,43.6384,70.6,38.9535,70.6,34.0135C70.6,15.4729,55.5564,0.442084,37,0.442084Z" fill="#FF9999"/>
                    <path id="Stroke-7-2" d="M4.24,47.8617L69.76,47.8617" stroke="#1A1816" stroke-linecap="round" stroke-linejoin="round"/>
                    <path id="Stroke-9-2" d="M0.46,47.8617L2.56,47.8617" stroke="#1A1816" stroke-linecap="round" stroke-linejoin="round"/>
                    <path id="Stroke-11-2" d="M71.44,47.8617L73.54,47.8617" stroke="#1A1816" stroke-linecap="round" stroke-linejoin="round"/>
                    <path id="Fill-13-2" d="M57.9106,23.7405L52.6984,25.9721C52.5943,26.0175,52.4817,26.0401,52.3675,26.0401L46.8327,26.0401C46.7193,26.0401,46.6059,26.0175,46.5017,25.9721L41.2895,23.7405C40.9804,23.6087,40.7797,23.3049,40.7797,22.9692L40.7797,20.1651C43.5752,11.6548,55.625,11.6548,58.4197,20.1651L58.4197,22.9692C58.4197,23.3049,58.2197,23.6087,57.9106,23.7405" fill="#E04222"/>
                    <path id="Stroke-15-2" d="M57.9106,23.7405L52.6984,25.9721C52.5943,26.0175,52.4817,26.0401,52.3675,26.0401L46.8327,26.0401C46.7193,26.0401,46.6059,26.0175,46.5017,25.9721L41.2895,23.7405C40.9804,23.6087,40.7797,23.3049,40.7797,22.9692L40.7797,20.1651C43.5752,11.6548,55.625,11.6548,58.4197,20.1651L58.4197,22.9692C58.4197,23.3049,58.2197,23.6087,57.9106,23.7405Z" stroke="#1A1816" stroke-linecap="round" stroke-linejoin="round"/>
                    <path id="Fill-17-2" d="M56.3528,22.8782L52.1176,24.545C52.0319,24.5786,51.942,24.5962,51.8504,24.5962L47.3514,24.5962C47.259,24.5962,47.1666,24.5786,47.0818,24.5442L42.8473,22.8782C42.5962,22.78,42.434,22.5526,42.434,22.3016L42.434,20.2076C44.807,13.5663,54.394,13.5663,56.7661,20.2076L56.7661,22.3016C56.7661,22.5526,56.604,22.78,56.3528,22.8782" fill="#FFFFFF"/>
                    <path id="Stroke-19-2" d="M56.3528,22.8782L52.1176,24.545C52.0319,24.5786,51.942,24.5962,51.8504,24.5962L47.3514,24.5962C47.259,24.5962,47.1666,24.5786,47.0818,24.5442L42.8473,22.8782C42.5962,22.78,42.434,22.5526,42.434,22.3016L42.434,20.2076C44.807,13.5663,54.394,13.5663,56.7661,20.2076L56.7661,22.3016C56.7661,22.5526,56.604,22.78,56.3528,22.8782Z" stroke="#1A1816" stroke-linecap="round" stroke-linejoin="round"/>
                    <path id="Fill-21-2" fill="#8BA4B8" d="M48.76,31.9152L50.44,31.9152L50.44,26.0402L48.76,26.0402Z"/>
                    <path id="Stroke-23-2" stroke="#1A1816" stroke-linecap="round" stroke-linejoin="round" d="M48.76,31.9152L50.44,31.9152L50.44,26.0402L48.76,26.0402Z"/>
                    <path id="Fill-24-2" d="M54.1339,43.2457L45.0661,43.2457C45.0098,43.4144,44.9813,43.5923,44.9804,43.7727L44.9804,47.8617L54.2204,47.8617L54.2204,43.7752C54.2204,43.594,54.1902,43.4152,54.1339,43.2457" fill="#009FD9"/>
                    <path id="Stroke-25-2" d="M54.1339,43.2457L45.0661,43.2457C45.0098,43.4144,44.9813,43.5923,44.9804,43.7727L44.9804,47.8617L54.2204,47.8617L54.2204,43.7752C54.2204,43.594,54.1902,43.4152,54.1339,43.2457Z" stroke="#1A1816" stroke-linecap="round" stroke-linejoin="round"/>
                    <path id="Fill-26-2" d="M51.28,39.0492L47.92,39.0492L47.92,32.3349C47.92,32.1033,48.1082,31.9153,48.34,31.9153L50.86,31.9153C51.0918,31.9153,51.28,32.1033,51.28,32.3349L51.28,39.0492Z" fill="#00B8F0"/>
                    <path id="Stroke-27-2" d="M51.28,39.0492L47.92,39.0492L47.92,32.3349C47.92,32.1033,48.1082,31.9153,48.34,31.9153L50.86,31.9153C51.0918,31.9153,51.28,32.1033,51.28,32.3349L51.28,39.0492Z" stroke="#1A1816" stroke-linecap="round" stroke-linejoin="round"/>
                    <path id="Fill-28-2" d="M45.0661,43.2457L54.1339,43.2457C54.0827,43.0921,54.0096,42.9469,53.9163,42.8117L51.2796,39.0492L47.9196,39.0492L45.2837,42.8126C45.1896,42.9469,45.1173,43.0921,45.0661,43.2457" fill="#00B8F0"/>
                    <path id="Stroke-29-2" d="M45.0661,43.2457L54.1339,43.2457C54.0827,43.0921,54.0096,42.9469,53.9163,42.8117L51.2796,39.0492L47.9196,39.0492L45.2837,42.8126C45.1896,42.9469,45.1173,43.0921,45.0661,43.2457Z" stroke="#1A1816" stroke-linecap="round" stroke-linejoin="round"/>
                    <path id="Fill-30-2" d="M52.54,23.9421L46.66,23.9421C46.1963,23.9421,45.82,23.5669,45.82,23.1028C45.82,22.6395,46.1963,22.2635,46.66,22.2635L52.54,22.2635C53.0045,22.2635,53.38,22.6395,53.38,23.1028C53.38,23.5669,53.0045,23.9421,52.54,23.9421" fill="#FF6242"/>
                    <path id="Stroke-31-2" d="M52.54,23.9421L46.66,23.9421C46.1963,23.9421,45.82,23.5669,45.82,23.1028C45.82,22.6395,46.1963,22.2635,46.66,22.2635L52.54,22.2635C53.0045,22.2635,53.38,22.6395,53.38,23.1028C53.38,23.5669,53.0045,23.9421,52.54,23.9421Z" stroke="#1A1816" stroke-linecap="round" stroke-linejoin="round"/>
                    <path id="Fill-32-2" d="M46.66,23.9421C47.2152,25.3277,47.5,26.8074,47.5,28.2997L47.5,28.5582C47.5,28.7898,47.6882,28.9778,47.92,28.9778L51.28,28.9778C51.5118,28.9778,51.7,28.7898,51.7,28.5582L51.7,28.2997C51.7,26.8074,51.9856,25.3277,52.54,23.9421L46.66,23.9421Z" fill="#FFFFFF"/>
                    <path id="Stroke-33-2" d="M46.66,23.9421C47.2152,25.3277,47.5,26.8074,47.5,28.2997L47.5,28.5582C47.5,28.7898,47.6882,28.9778,47.92,28.9778L51.28,28.9778C51.5118,28.9778,51.7,28.7898,51.7,28.5582L51.7,28.2997C51.7,26.8074,51.9856,25.3277,52.54,23.9421L46.66,23.9421Z" stroke="#1A1816" stroke-linecap="round" stroke-linejoin="round"/>
                    <path id="Fill-34-2" d="M51.7484,18.9064L47.4526,18.9064C47.0141,18.9064,46.6597,19.2605,46.6597,19.6978L46.6597,22.2635L52.5397,22.2635L52.5397,19.6978C52.5397,19.2605,52.186,18.9064,51.7484,18.9064" fill="#FFFFFF"/>
                    <path id="Stroke-35-2" d="M51.7484,18.9064L47.4526,18.9064C47.0141,18.9064,46.6597,19.2605,46.6597,19.6978L46.6597,22.2635L52.5397,22.2635L52.5397,19.6978C52.5397,19.2605,52.186,18.9064,51.7484,18.9064Z" stroke="#1A1816" stroke-linecap="round" stroke-linejoin="round"/>
                    <path id="Stroke-36-2" d="M47.19,25.6207L52.0099,25.6207" stroke="#1A1816" stroke-linecap="round" stroke-linejoin="round"/>
                    <path id="Stroke-37-2" d="M47.4573,27.2992L51.743,27.2992" stroke="#1A1816" stroke-linecap="round" stroke-linejoin="round"/>
                    <path id="Stroke-38-2" d="M49.6,23.9421L49.6,28.9778" stroke="#1A1816" stroke-linecap="round" stroke-linejoin="round"/>
                    <path id="Fill-42-2" d="M14.7818,35.8183C14.7818,30.4872,19.107,26.1665,24.4418,26.1665C29.7775,26.1665,34.1018,30.4872,34.1018,35.8183L34.1018,40.4025C34.1018,41.6085,35.0779,42.5746,36.2758,42.5746C37.2124,42.5746,37.9667,43.3274,37.9667,44.264C37.9667,45.1998,37.2124,45.9527,36.2758,45.9527C32.7503,45.9527,30.7217,42.7961,30.7217,40.8851L30.7217,44.0215L18.1628,44.0215L18.1628,46.677C18.1628,47.6128,17.4094,48.3656,16.4728,48.3656C15.5353,48.3656,14.7818,47.6128,14.7818,46.677L14.7818,35.8183Z" fill="#FFDA8F"/>
                    <path id="Fill-43-2" d="M24.4418,26.1665C19.107,26.1665,14.7818,30.4872,14.7818,35.8183L14.7818,38.2313C14.7818,32.9001,19.107,28.5795,24.4418,28.5795C29.7775,28.5795,34.1018,32.9001,34.1018,38.2313L34.1018,35.8183C34.1018,30.4872,29.7775,26.1665,24.4418,26.1665" fill="#FFE9BD"/>
                    <path id="Stroke-44-2" d="M14.7818,35.8183C14.7818,30.4872,19.107,26.1665,24.4418,26.1665C29.7775,26.1665,34.1018,30.4872,34.1018,35.8183L34.1018,40.4025C34.1018,41.6085,35.0779,42.5746,36.2758,42.5746C37.2124,42.5746,37.9667,43.3274,37.9667,44.264C37.9667,45.1998,37.2124,45.9527,36.2758,45.9527C32.7503,45.9527,30.7217,42.7961,30.7217,40.8851L30.7217,44.0215L18.1628,44.0215L18.1628,46.677C18.1628,47.6128,17.4094,48.3656,16.4728,48.3656C15.5353,48.3656,14.7818,47.6128,14.7818,46.677L14.7818,35.8183Z" stroke="#1A1816" stroke-linecap="round" stroke-linejoin="round"/>
                    <path id="Fill-45-2" d="M18.1632,44.0218L18.1632,61.8776L22.5102,61.8776L22.8915,49.8658C22.9184,49.0298,23.6047,48.366,24.4422,48.366C25.2796,48.366,25.9659,49.0298,25.992,49.8658L26.3733,61.8776L30.7212,61.8776L30.7212,44.0218L18.1632,44.0218Z" fill="#FFDA8F"/>
                    <path id="Fill-46-2" d="M22.7708,53.6736L22.8918,49.8658C22.9187,49.0298,23.6041,48.366,24.4416,48.366C25.2791,48.366,25.9662,49.0298,25.9922,49.8658L26.1132,53.6736L30.7214,53.6736L30.7214,44.0218L18.1634,44.0218L18.1634,53.6736L22.7708,53.6736Z" fill="#FFFFFF"/>
                    <path id="Fill-47-2" fill="#FFE600" d="M28.7882,53.6737L30.721,53.6737L30.721,44.0219L28.7882,44.0219Z"/>
                    <path id="Stroke-48-2" d="M18.1632,44.0218L18.1632,61.8776L22.5102,61.8776L22.8915,49.8658C22.9184,49.0298,23.6047,48.366,24.4422,48.366C25.2796,48.366,25.9659,49.0298,25.992,49.8658L26.3733,61.8776L30.7212,61.8776L30.7212,44.0218L18.1632,44.0218Z" stroke="#1A1816" stroke-linecap="round" stroke-linejoin="round"/>
                    <path id="Fill-49-2" fill="#FFE600" d="M18.163,53.6737L20.095,53.6737L20.095,44.0219L18.163,44.0219Z"/>
                    <path id="Stroke-51-2" d="M18.1632,53.6736L22.7706,53.6736" stroke="#1A1816" stroke-linecap="round" stroke-linejoin="round"/>
                    <path id="Stroke-52-2" d="M26.1128,53.6736L30.7211,53.6736" stroke="#1A1816" stroke-linecap="round" stroke-linejoin="round"/>
                    <path id="Fill-53-2" fill="#F0F0F0" d="M20.095,46.4349L28.789,46.4349L28.789,44.0219L20.095,44.0219Z"/>
                    <path id="Fill-54-2" fill="#EBCB00" d="M18.163,46.4349L20.095,46.4349L20.095,44.0219L18.163,44.0219Z"/>
                    <path id="Fill-55-2" fill="#EBCB00" d="M28.7882,46.4349L30.721,46.4349L30.721,44.0219L28.7882,44.0219Z"/>
                    <path id="Stroke-56-2" d="M18.1632,37.7485L18.1632,33.8878" stroke="#1A1816" stroke-linecap="round" stroke-linejoin="round"/>
                    <path id="Stroke-57-2" d="M30.7213,33.8881L30.7213,37.7488" stroke="#1A1816" stroke-linecap="round" stroke-linejoin="round"/>
                    <path id="Stroke-58-2" stroke="#1A1816" stroke-linecap="round" stroke-linejoin="round" d="M28.7882,53.6737L30.721,53.6737L30.721,44.0219L28.7882,44.0219Z"/>
                    <path id="Stroke-59-2" stroke="#1A1816" stroke-linecap="round" stroke-linejoin="round" d="M18.163,53.6737L20.095,53.6737L20.095,44.0219L18.163,44.0219Z"/>
                    <path id="Fill-60-2" d="M29.2718,35.8864L29.2718,30.5099C29.2718,29.5708,29.6213,28.7222,30.179,28.0525C28.5746,26.8674,26.5906,26.1666,24.4418,26.1666C22.2931,26.1666,20.309,26.8674,18.7046,28.0525C19.2624,28.7222,19.6118,29.5708,19.6118,30.5099L19.6118,35.8864C19.6118,36.7844,18.9953,37.5331,18.1628,37.7488L18.1628,44.0216L30.7217,44.0216L30.7217,37.7488C29.8892,37.5331,29.2718,36.7844,29.2718,35.8864" fill="#FFFFFF"/>
                    <path id="Stroke-61-2" d="M29.2718,35.8864L29.2718,30.5099C29.2718,29.5708,29.6213,28.7222,30.179,28.0525C28.5746,26.8674,26.5906,26.1666,24.4418,26.1666C22.2931,26.1666,20.309,26.8674,18.7046,28.0525C19.2624,28.7222,19.6118,29.5708,19.6118,30.5099L19.6118,35.8864C19.6118,36.7844,18.9953,37.5331,18.1628,37.7488L18.1628,44.0216L30.7217,44.0216L30.7217,37.7488C29.8892,37.5331,29.2718,36.7844,29.2718,35.8864Z" stroke="#1A1816" stroke-linecap="round" stroke-linejoin="round"/>
                    <path id="Fill-62-2" d="M24.4418,28.5795C26.2226,28.5795,27.8892,29.0612,29.3222,29.9005C29.4365,29.2039,29.7448,28.5736,30.179,28.0524C28.5746,26.8673,26.5906,26.1665,24.4418,26.1665C22.2931,26.1665,20.309,26.8673,18.7046,28.0524C19.1398,28.5736,19.4472,29.2039,19.5614,29.9005C20.9945,29.0612,22.6619,28.5795,24.4418,28.5795" fill="#FFE600"/>
                    <path id="Stroke-63-2" d="M24.4418,28.5795C26.2226,28.5795,27.8892,29.0612,29.3222,29.9005C29.4365,29.2039,29.7448,28.5736,30.179,28.0524C28.5746,26.8673,26.5906,26.1665,24.4418,26.1665C22.2931,26.1665,20.309,26.8673,18.7046,28.0524C19.1398,28.5736,19.4472,29.2039,19.5614,29.9005C20.9945,29.0612,22.6619,28.5795,24.4418,28.5795Z" stroke="#1A1816" stroke-linecap="round" stroke-linejoin="round"/>
                </g>
                <text id="2" font-family="AvenirNext forINTUIT" font-size="10.9211" font-weight="bold" fill="#1A1816" transform="translate(0,1.51704)">
                    <tspan x="21.026832" y="39.9950868">2</tspan>
                </text>
                <g id="Group-88" transform="translate(14.32,7.98214)">
                    <path id="Fill-65-2" fill="#FFFFFF" d="M0.462,37.4884L3.843,37.4884L3.843,35.0754L0.462,35.0754Z"/>
                    <path id="Stroke-67-2" stroke="#1A1816" stroke-linecap="round" stroke-linejoin="round" d="M0.462,37.4884L3.843,37.4884L3.843,35.0754L0.462,35.0754Z"/>
                    <path id="Fill-68-2" d="M8.19,53.8958L3.843,53.8958L3.46584,50.1316C3.43896,49.8597,3.528,49.5894,3.71112,49.388C3.89424,49.1858,4.15464,49.0699,4.42764,49.0699L7.6062,49.0699C7.87836,49.0699,8.13792,49.1858,8.32188,49.388C8.505,49.5894,8.5932,49.8597,8.56632,50.1316L8.19,53.8958Z" fill="#87898C"/>
                    <path id="Stroke-69-2" d="M8.19,53.8958L3.843,53.8958L3.46584,50.1316C3.43896,49.8597,3.528,49.5894,3.71112,49.388C3.89424,49.1858,4.15464,49.0699,4.42764,49.0699L7.6062,49.0699C7.87836,49.0699,8.13792,49.1858,8.32188,49.388C8.505,49.5894,8.5932,49.8597,8.56632,50.1316L8.19,53.8958Z" stroke="#1A1816" stroke-linecap="round" stroke-linejoin="round"/>
                    <path id="Fill-70-2" d="M12.0537,53.8958L16.4015,53.8958L16.7778,50.1316C16.8047,49.8597,16.7157,49.5894,16.5325,49.388C16.3494,49.1858,16.0899,49.0699,15.816,49.0699L12.6383,49.0699C12.3653,49.0699,12.1057,49.1858,11.9226,49.388C11.7387,49.5894,11.6505,49.8597,11.6773,50.1316L12.0537,53.8958Z" fill="#87898C"/>
                    <path id="Stroke-71-2" d="M12.0537,53.8958L16.4015,53.8958L16.7778,50.1316C16.8047,49.8597,16.7157,49.5894,16.5325,49.388C16.3494,49.1858,16.0899,49.0699,15.816,49.0699L12.6383,49.0699C12.3653,49.0699,12.1057,49.1858,11.9226,49.388C11.7387,49.5894,11.6505,49.8597,11.6773,50.1316L12.0537,53.8958Z" stroke="#1A1816" stroke-linecap="round" stroke-linejoin="round"/>
                    <path id="Fill-72-2" d="M16.6228,54.3786C17.341,54.3786,17.8375,53.6064,17.4889,52.9787C16.995,52.0873,16.0449,51.483,14.9521,51.483L14.4691,51.483C13.3771,51.483,12.4254,52.0873,11.9314,52.9787C11.5837,53.6064,12.0793,54.3786,12.7983,54.3786L16.6228,54.3786Z" fill="#FFFFFF"/>
                    <path id="Stroke-73-2" d="M16.6228,54.3786C17.341,54.3786,17.8375,53.6064,17.4889,52.9787C16.995,52.0873,16.0449,51.483,14.9521,51.483L14.4691,51.483C13.3771,51.483,12.4254,52.0873,11.9314,52.9787C11.5837,53.6064,12.0793,54.3786,12.7983,54.3786L16.6228,54.3786Z" stroke="#1A1816" stroke-linecap="round" stroke-linejoin="round"/>
                    <path id="Fill-74-2" d="M7.44601,54.3786C8.16421,54.3786,8.65981,53.6064,8.31205,52.9787C7.81813,52.0873,6.86809,51.483,5.77525,51.483L5.29225,51.483C4.19941,51.483,3.24853,52.0873,2.75461,52.9787C2.40685,53.6064,2.90245,54.3786,3.62149,54.3786L7.44601,54.3786Z" fill="#FFFFFF"/>
                    <path id="Stroke-75-2" d="M7.44601,54.3786C8.16421,54.3786,8.65981,53.6064,8.31205,52.9787C7.81813,52.0873,6.86809,51.483,5.77525,51.483L5.29225,51.483C4.19941,51.483,3.24853,52.0873,2.75461,52.9787C2.40685,53.6064,2.90245,54.3786,3.62149,54.3786L7.44601,54.3786Z" stroke="#1A1816" stroke-linecap="round" stroke-linejoin="round"/>
                    <path id="Fill-76-2" d="M13.4515,18.7737C12.4141,18.3927,11.2927,18.1846,10.1217,18.1846C8.95247,18.1846,7.83107,18.3927,6.79199,18.7737C7.07087,20.3583,8.45603,21.5618,10.1217,21.5618C11.7883,21.5618,13.1726,20.3583,13.4515,18.7737" fill="#FFDA8F"/>
                    <path id="Stroke-77-2" d="M13.4515,18.7737C12.4141,18.3927,11.2927,18.1846,10.1217,18.1846C8.95247,18.1846,7.83107,18.3927,6.79199,18.7737C7.07087,20.3583,8.45603,21.5618,10.1217,21.5618C11.7883,21.5618,13.1726,20.3583,13.4515,18.7737Z" stroke="#1A1816" stroke-linecap="round" stroke-linejoin="round"/>
                    <path id="Fill-78-2" d="M16.8837,10.4628C16.8837,9.88284,16.4653,9.42039,15.9185,9.30541L15.9185,8.53243C15.9185,5.33475,13.3229,2.74136,10.1217,2.74136C6.92126,2.74136,4.32566,5.33475,4.32566,8.53243L4.32566,9.30541C3.77882,9.42039,3.35966,9.88284,3.35966,10.4628C3.35966,11.0864,3.84014,11.5824,4.44746,11.6453C4.9943,14.2765,7.32614,16.2539,10.1217,16.2539C12.9172,16.2539,15.2507,14.2765,15.7959,11.6453C16.404,11.5824,16.8837,11.0864,16.8837,10.4628" fill="#FFDA8F"/>
                    <path id="Stroke-79" d="M16.8837,10.4628C16.8837,9.88284,16.4653,9.42039,15.9185,9.30541L15.9185,8.53243C15.9185,5.33475,13.3229,2.74136,10.1217,2.74136C6.92126,2.74136,4.32566,5.33475,4.32566,8.53243L4.32566,9.30541C3.77882,9.42039,3.35966,9.88284,3.35966,10.4628C3.35966,11.0864,3.84014,11.5824,4.44746,11.6453C4.9943,14.2765,7.32614,16.2539,10.1217,16.2539C12.9172,16.2539,15.2507,14.2765,15.7959,11.6453C16.404,11.5824,16.8837,11.0864,16.8837,10.4628Z" stroke="#1A1816" stroke-linecap="round" stroke-linejoin="round"/>
                    <path id="Fill-80-2" d="M16.4013,7.08433C16.4013,3.61976,13.5899,0.810666,10.1215,0.810666C6.65398,0.810666,3.84334,3.61976,3.84334,7.08433L3.84334,9.01552C4.7875,8.38186,5.39482,7.56272,5.79634,6.62859C6.14242,5.82288,6.95554,5.33693,7.82326,5.46618C9.35542,5.69447,10.8884,5.69447,12.4197,5.46618C13.2883,5.33777,14.1014,5.82288,14.4475,6.62943C14.8473,7.56272,15.4563,8.3827,16.4013,9.01552L16.4013,7.08433Z" fill="#614B44"/>
                    <path id="Fill-81-2" d="M10.1218,0.811002C6.65431,0.811002,3.84283,3.62009,3.84283,7.08466L3.84283,9.01502C3.84955,9.01082,3.85627,9.00663,3.86215,9.00159C4.11583,5.76866,6.82063,3.22395,10.1218,3.22395C13.423,3.22395,16.1278,5.76866,16.3815,9.00159C16.3882,9.00663,16.3941,9.01082,16.4017,9.01502L16.4017,7.08466C16.4017,3.62009,13.5902,0.811002,10.1218,0.811002" fill="#947063"/>
                    <path id="Stroke-82-2" d="M16.4013,7.08433C16.4013,3.61976,13.5899,0.810666,10.1215,0.810666C6.65398,0.810666,3.84334,3.61976,3.84334,7.08433L3.84334,9.01552C4.7875,8.38186,5.39482,7.56272,5.79634,6.62859C6.14242,5.82288,6.95554,5.33693,7.82326,5.46618C9.35542,5.69447,10.8884,5.69447,12.4197,5.46618C13.2883,5.33777,14.1014,5.82288,14.4475,6.62943C14.8473,7.56272,15.4563,8.3827,16.4013,9.01552L16.4013,7.08433Z" stroke="#1A1816" stroke-linecap="round" stroke-linejoin="round"/>
                    <path id="Fill-83-2" d="M7.70683,11.1865C7.70683,11.5868,7.38259,11.91,6.98275,11.91C6.58207,11.91,6.25783,11.5868,6.25783,11.1865C6.25783,10.787,6.58207,10.463,6.98275,10.463C7.38259,10.463,7.70683,10.787,7.70683,11.1865" fill="#FFBE3D"/>
                    <path id="Fill-84" d="M13.9863,11.1865C13.9863,11.5868,13.6613,11.91,13.2614,11.91C12.8616,11.91,12.5365,11.5868,12.5365,11.1865C12.5365,10.787,12.8616,10.463,13.2614,10.463C13.6613,10.463,13.9863,10.787,13.9863,11.1865" fill="#FFBE3D"/>
                    <path id="Stroke-85" d="M12.7337,9.49727C12.412,9.17667,11.892,9.17667,11.5712,9.49727" stroke="#1A1816" stroke-linecap="round" stroke-linejoin="round"/>
                    <path id="Stroke-86" d="M7.51078,9.49727C7.83166,9.17667,8.35162,9.17667,8.67334,9.49727" stroke="#1A1816" stroke-linecap="round" stroke-linejoin="round"/>
                    <path id="Stroke-87-2" d="M11.5713,12.8757C11.1329,13.1686,10.6053,13.3583,10.1215,13.3583C9.6385,13.3583,9.11182,13.1686,8.67334,12.8757" stroke="#1A1816" stroke-linecap="round" stroke-linejoin="round"/>
                </g>
            </g>
            <g id="117--basketball-male-caucasian" opacity="1">
                <g id="Group-64-3">
                    <path id="Fill-3-3" d="M6.39418,47.8617C6.85282,48.8722,7.37698,49.845,7.9297,50.7992L66.0703,50.7992C66.623,49.845,67.1472,48.8722,67.6067,47.8617L6.39418,47.8617Z" fill="#FFFFFF"/>
                    <path id="Fill-5-3" d="M70.6,34.0135C70.6,15.4729,55.5564,0.442084,37,0.442084C18.4427,0.442084,3.4,15.4729,3.4,34.0135C3.4,38.9535,4.47604,43.6384,6.39376,47.8617L67.6071,47.8617C69.524,43.6384,70.6,38.9535,70.6,34.0135" fill="#00DBA8"/>
                    <path id="Stroke-7-3" d="M4.24,47.8617L69.76,47.8617" stroke="#1A1816" stroke-linecap="round" stroke-linejoin="round"/>
                    <path id="Stroke-9-3" d="M0.46,47.8617L2.56,47.8617" stroke="#1A1816" stroke-linecap="round" stroke-linejoin="round"/>
                    <path id="Stroke-11-3" d="M71.44,47.8617L73.54,47.8617" stroke="#1A1816" stroke-linecap="round" stroke-linejoin="round"/>
                    <path id="Fill-13-3" d="M57.9106,23.7405L52.6984,25.9721C52.5943,26.0175,52.4817,26.0401,52.3675,26.0401L46.8327,26.0401C46.7193,26.0401,46.6059,26.0175,46.5017,25.9721L41.2895,23.7405C40.9804,23.6087,40.7797,23.3049,40.7797,22.9692L40.7797,20.1651C43.5752,11.6548,55.625,11.6548,58.4197,20.1651L58.4197,22.9692C58.4197,23.3049,58.2197,23.6087,57.9106,23.7405" fill="#E04222"/>
                    <path id="Stroke-15-3" d="M57.9106,23.7405L52.6984,25.9721C52.5943,26.0175,52.4817,26.0401,52.3675,26.0401L46.8327,26.0401C46.7193,26.0401,46.6059,26.0175,46.5017,25.9721L41.2895,23.7405C40.9804,23.6087,40.7797,23.3049,40.7797,22.9692L40.7797,20.1651C43.5752,11.6548,55.625,11.6548,58.4197,20.1651L58.4197,22.9692C58.4197,23.3049,58.2197,23.6087,57.9106,23.7405Z" stroke="#1A1816" stroke-linecap="round" stroke-linejoin="round"/>
                    <path id="Fill-17-3" d="M56.3528,22.8782L52.1176,24.545C52.0319,24.5786,51.942,24.5962,51.8504,24.5962L47.3514,24.5962C47.259,24.5962,47.1666,24.5786,47.0818,24.5442L42.8473,22.8782C42.5962,22.78,42.434,22.5526,42.434,22.3016L42.434,20.2076C44.807,13.5663,54.394,13.5663,56.7661,20.2076L56.7661,22.3016C56.7661,22.5526,56.604,22.78,56.3528,22.8782" fill="#FFFFFF"/>
                    <path id="Stroke-19-3" d="M56.3528,22.8782L52.1176,24.545C52.0319,24.5786,51.942,24.5962,51.8504,24.5962L47.3514,24.5962C47.259,24.5962,47.1666,24.5786,47.0818,24.5442L42.8473,22.8782C42.5962,22.78,42.434,22.5526,42.434,22.3016L42.434,20.2076C44.807,13.5663,54.394,13.5663,56.7661,20.2076L56.7661,22.3016C56.7661,22.5526,56.604,22.78,56.3528,22.8782Z" stroke="#1A1816" stroke-linecap="round" stroke-linejoin="round"/>
                    <path id="Fill-21-3" fill="#8BA4B8" d="M48.76,31.9152L50.44,31.9152L50.44,26.0402L48.76,26.0402Z"/>
                    <path id="Stroke-23-3" stroke="#1A1816" stroke-linecap="round" stroke-linejoin="round" d="M48.76,31.9152L50.44,31.9152L50.44,26.0402L48.76,26.0402Z"/>
                    <path id="Fill-24-3" d="M54.1339,43.2457L45.0661,43.2457C45.0098,43.4144,44.9804,43.5923,44.9804,43.7727L44.9804,47.8617L54.2204,47.8617L54.2204,43.7752C54.2204,43.594,54.1902,43.4152,54.1339,43.2457" fill="#009FD9"/>
                    <path id="Stroke-25-3" d="M54.1339,43.2457L45.0661,43.2457C45.0098,43.4144,44.9804,43.5923,44.9804,43.7727L44.9804,47.8617L54.2204,47.8617L54.2204,43.7752C54.2204,43.594,54.1902,43.4152,54.1339,43.2457Z" stroke="#1A1816" stroke-linecap="round" stroke-linejoin="round"/>
                    <path id="Fill-26-3" d="M51.28,39.0492L47.92,39.0492L47.92,32.3349C47.92,32.1033,48.1082,31.9153,48.34,31.9153L50.86,31.9153C51.0918,31.9153,51.28,32.1033,51.28,32.3349L51.28,39.0492Z" fill="#00B8F0"/>
                    <path id="Stroke-27-3" d="M51.28,39.0492L47.92,39.0492L47.92,32.3349C47.92,32.1033,48.1082,31.9153,48.34,31.9153L50.86,31.9153C51.0918,31.9153,51.28,32.1033,51.28,32.3349L51.28,39.0492Z" stroke="#1A1816" stroke-linecap="round" stroke-linejoin="round"/>
                    <path id="Fill-28-3" d="M45.0661,43.2457L54.1339,43.2457C54.0827,43.0921,54.0096,42.9469,53.9163,42.8117L51.2796,39.0492L47.9196,39.0492L45.2837,42.8126C45.1896,42.9469,45.1173,43.0921,45.0661,43.2457" fill="#00B8F0"/>
                    <path id="Stroke-29-3" d="M45.0661,43.2457L54.1339,43.2457C54.0827,43.0921,54.0096,42.9469,53.9163,42.8117L51.2796,39.0492L47.9196,39.0492L45.2837,42.8126C45.1896,42.9469,45.1173,43.0921,45.0661,43.2457Z" stroke="#1A1816" stroke-linecap="round" stroke-linejoin="round"/>
                    <path id="Fill-30-3" d="M52.54,23.9421L46.66,23.9421C46.1963,23.9421,45.82,23.5669,45.82,23.1028C45.82,22.6395,46.1963,22.2635,46.66,22.2635L52.54,22.2635C53.0045,22.2635,53.38,22.6395,53.38,23.1028C53.38,23.5669,53.0045,23.9421,52.54,23.9421" fill="#FF6242"/>
                    <path id="Stroke-31-3" d="M52.54,23.9421L46.66,23.9421C46.1963,23.9421,45.82,23.5669,45.82,23.1028C45.82,22.6395,46.1963,22.2635,46.66,22.2635L52.54,22.2635C53.0045,22.2635,53.38,22.6395,53.38,23.1028C53.38,23.5669,53.0045,23.9421,52.54,23.9421Z" stroke="#1A1816" stroke-linecap="round" stroke-linejoin="round"/>
                    <path id="Fill-32-3" d="M46.66,23.9421C47.2152,25.3277,47.5,26.8074,47.5,28.2997L47.5,28.5582C47.5,28.7898,47.6882,28.9778,47.92,28.9778L51.28,28.9778C51.5118,28.9778,51.7,28.7898,51.7,28.5582L51.7,28.2997C51.7,26.8074,51.9856,25.3277,52.54,23.9421L46.66,23.9421Z" fill="#FFFFFF"/>
                    <path id="Stroke-33-3" d="M46.66,23.9421C47.2152,25.3277,47.5,26.8074,47.5,28.2997L47.5,28.5582C47.5,28.7898,47.6882,28.9778,47.92,28.9778L51.28,28.9778C51.5118,28.9778,51.7,28.7898,51.7,28.5582L51.7,28.2997C51.7,26.8074,51.9856,25.3277,52.54,23.9421L46.66,23.9421Z" stroke="#1A1816" stroke-linecap="round" stroke-linejoin="round"/>
                    <path id="Fill-34-3" d="M51.7484,18.9064L47.4526,18.9064C47.0141,18.9064,46.6597,19.2605,46.6597,19.6978L46.6597,22.2635L52.5397,22.2635L52.5397,19.6978C52.5397,19.2605,52.186,18.9064,51.7484,18.9064" fill="#FFFFFF"/>
                    <path id="Stroke-35-3" d="M51.7484,18.9064L47.4526,18.9064C47.0141,18.9064,46.6597,19.2605,46.6597,19.6978L46.6597,22.2635L52.5397,22.2635L52.5397,19.6978C52.5397,19.2605,52.186,18.9064,51.7484,18.9064Z" stroke="#1A1816" stroke-linecap="round" stroke-linejoin="round"/>
                    <path id="Stroke-36-3" d="M47.19,25.6207L52.0099,25.6207" stroke="#1A1816" stroke-linecap="round" stroke-linejoin="round"/>
                    <path id="Stroke-37-3" d="M47.4573,27.2992L51.743,27.2992" stroke="#1A1816" stroke-linecap="round" stroke-linejoin="round"/>
                    <path id="Stroke-38-3" d="M49.6,23.9421L49.6,28.9778" stroke="#1A1816" stroke-linecap="round" stroke-linejoin="round"/>
                    <path id="Fill-42-3" d="M14.7818,35.8183C14.7818,30.4872,19.107,26.1665,24.4418,26.1665C29.7775,26.1665,34.1018,30.4872,34.1018,35.8183L34.1018,40.4025C34.1018,41.6085,35.0779,42.5746,36.2758,42.5746C37.2124,42.5746,37.9667,43.3274,37.9667,44.264C37.9667,45.1998,37.2124,45.9527,36.2758,45.9527C32.7503,45.9527,30.7217,42.7961,30.7217,40.8851L30.7217,44.0215L18.1628,44.0215L18.1628,46.677C18.1628,47.6128,17.4094,48.3656,16.4728,48.3656C15.5353,48.3656,14.7818,47.6128,14.7818,46.677L14.7818,35.8183Z" fill="#FFCEBF"/>
                    <path id="Fill-43-3" d="M24.4418,26.1665C19.1062,26.1665,14.7818,30.4872,14.7818,35.8183L14.7818,38.2313C14.7818,32.9001,19.1062,28.5795,24.4418,28.5795C29.7775,28.5795,34.1018,32.9001,34.1018,38.2313L34.1018,35.8183C34.1018,30.4872,29.7775,26.1665,24.4418,26.1665" fill="#FFDCD1"/>
                    <path id="Stroke-44-3" d="M14.7818,35.8183C14.7818,30.4872,19.107,26.1665,24.4418,26.1665C29.7775,26.1665,34.1018,30.4872,34.1018,35.8183L34.1018,40.4025C34.1018,41.6085,35.0779,42.5746,36.2758,42.5746C37.2124,42.5746,37.9667,43.3274,37.9667,44.264C37.9667,45.1998,37.2124,45.9527,36.2758,45.9527C32.7503,45.9527,30.7217,42.7961,30.7217,40.8851L30.7217,44.0215L18.1628,44.0215L18.1628,46.677C18.1628,47.6128,17.4094,48.3656,16.4728,48.3656C15.5353,48.3656,14.7818,47.6128,14.7818,46.677L14.7818,35.8183Z" stroke="#1A1816" stroke-linecap="round" stroke-linejoin="round"/>
                    <path id="Fill-45-3" d="M18.1632,44.0218L18.1632,61.8776L22.5102,61.8776L22.8915,49.8658C22.9184,49.0298,23.6047,48.366,24.4422,48.366C25.2796,48.366,25.9659,49.0298,25.992,49.8658L26.3733,61.8776L30.7212,61.8776L30.7212,44.0218L18.1632,44.0218Z" fill="#FFCEBF"/>
                    <path id="Fill-46-3" d="M22.7708,53.6736L22.8918,49.8658C22.9187,49.0298,23.6041,48.366,24.4416,48.366C25.2791,48.366,25.9662,49.0298,25.9922,49.8658L26.1132,53.6736L30.7214,53.6736L30.7214,44.0218L18.1634,44.0218L18.1634,53.6736L22.7708,53.6736Z" fill="#FFFFFF"/>
                    <path id="Fill-47-3" fill="#00DBA8" d="M28.7882,53.6737L30.721,53.6737L30.721,44.0219L28.7882,44.0219Z"/>
                    <path id="Stroke-48-3" d="M18.1632,44.0218L18.1632,61.8776L22.5102,61.8776L22.8915,49.8658C22.9184,49.0298,23.6047,48.366,24.4422,48.366C25.2796,48.366,25.9659,49.0298,25.992,49.8658L26.3733,61.8776L30.7212,61.8776L30.7212,44.0218L18.1632,44.0218Z" stroke="#1A1816" stroke-linecap="round" stroke-linejoin="round"/>
                    <path id="Fill-49-3" fill="#00DBA8" d="M18.163,53.6737L20.095,53.6737L20.095,44.0219L18.163,44.0219Z"/>
                    <path id="Stroke-51-3" d="M18.1632,53.6736L22.7706,53.6736" stroke="#1A1816" stroke-linecap="round" stroke-linejoin="round"/>
                    <path id="Stroke-52-3" d="M26.1128,53.6736L30.7211,53.6736" stroke="#1A1816" stroke-linecap="round" stroke-linejoin="round"/>
                    <path id="Fill-53-3" fill="#F0F0F0" d="M20.095,46.4349L28.789,46.4349L28.789,44.0219L20.095,44.0219Z"/>
                    <path id="Fill-54-3" fill="#00AD85" d="M18.163,46.4349L20.095,46.4349L20.095,44.0219L18.163,44.0219Z"/>
                    <path id="Fill-55-3" fill="#00AD85" d="M28.7882,46.4349L30.721,46.4349L30.721,44.0219L28.7882,44.0219Z"/>
                    <path id="Stroke-56-3" d="M18.1632,37.7485L18.1632,33.8878" stroke="#1A1816" stroke-linecap="round" stroke-linejoin="round"/>
                    <path id="Stroke-57-3" d="M30.7213,33.8881L30.7213,37.7488" stroke="#1A1816" stroke-linecap="round" stroke-linejoin="round"/>
                    <path id="Stroke-58-3" stroke="#1A1816" stroke-linecap="round" stroke-linejoin="round" d="M28.7882,53.6737L30.721,53.6737L30.721,44.0219L28.7882,44.0219Z"/>
                    <path id="Stroke-59-3" stroke="#1A1816" stroke-linecap="round" stroke-linejoin="round" d="M18.163,53.6737L20.095,53.6737L20.095,44.0219L18.163,44.0219Z"/>
                    <path id="Fill-60-3" d="M29.2718,35.8864L29.2718,30.5099C29.2718,29.5708,29.6213,28.7222,30.179,28.0525C28.5746,26.8674,26.5906,26.1666,24.4418,26.1666C22.2931,26.1666,20.309,26.8674,18.7046,28.0525C19.2624,28.7222,19.6118,29.5708,19.6118,30.5099L19.6118,35.8864C19.6118,36.7844,18.9953,37.5331,18.1628,37.7488L18.1628,44.0216L30.7217,44.0216L30.7217,37.7488C29.8892,37.5331,29.2718,36.7844,29.2718,35.8864" fill="#FFFFFF"/>
                    <path id="Stroke-61-3" d="M29.2718,35.8864L29.2718,30.5099C29.2718,29.5708,29.6213,28.7222,30.179,28.0525C28.5746,26.8674,26.5906,26.1666,24.4418,26.1666C22.2931,26.1666,20.309,26.8674,18.7046,28.0525C19.2624,28.7222,19.6118,29.5708,19.6118,30.5099L19.6118,35.8864C19.6118,36.7844,18.9953,37.5331,18.1628,37.7488L18.1628,44.0216L30.7217,44.0216L30.7217,37.7488C29.8892,37.5331,29.2718,36.7844,29.2718,35.8864Z" stroke="#1A1816" stroke-linecap="round" stroke-linejoin="round"/>
                    <path id="Fill-62-3" d="M24.4418,28.5795C26.2226,28.5795,27.8892,29.0612,29.3222,29.9005C29.4365,29.2039,29.7448,28.5736,30.179,28.0524C28.5746,26.8673,26.5906,26.1665,24.4418,26.1665C22.2931,26.1665,20.309,26.8673,18.7046,28.0524C19.1398,28.5736,19.4472,29.2039,19.5614,29.9005C20.9945,29.0612,22.6619,28.5795,24.4418,28.5795" fill="#00DBA8"/>
                    <path id="Stroke-63-3" d="M24.4418,28.5795C26.2226,28.5795,27.8892,29.0612,29.3222,29.9005C29.4365,29.2039,29.7448,28.5736,30.179,28.0524C28.5746,26.8673,26.5906,26.1665,24.4418,26.1665C22.2931,26.1665,20.309,26.8673,18.7046,28.0524C19.1398,28.5736,19.4472,29.2039,19.5614,29.9005C20.9945,29.0612,22.6619,28.5795,24.4418,28.5795Z" stroke="#1A1816" stroke-linecap="round" stroke-linejoin="round"/>
                </g>
                <text id="3" font-family="Superclarendon" font-size="10.9211" font-weight="bold" fill="#FF6242" transform="translate(0,-0.297369)">
                    <tspan x="21" y="41">3</tspan>
                </text>
                <g id="Group-89" transform="translate(14.32,7.98214)">
                    <path id="Fill-65-3" fill="#FFFFFF" d="M0.462,37.4884L3.843,37.4884L3.843,35.0754L0.462,35.0754Z"/>
                    <path id="Stroke-67-3" stroke="#1A1816" stroke-linecap="round" stroke-linejoin="round" d="M0.462,37.4884L3.843,37.4884L3.843,35.0754L0.462,35.0754Z"/>
                    <path id="Fill-68-3" d="M8.19,53.8958L3.843,53.8958L3.46668,50.1316C3.43896,49.8597,3.528,49.5894,3.71112,49.388C3.89424,49.1858,4.15464,49.0699,4.42764,49.0699L7.6062,49.0699C7.87836,49.0699,8.13792,49.1858,8.32188,49.388C8.505,49.5894,8.5932,49.8597,8.56632,50.1316L8.19,53.8958Z" fill="#FF6242"/>
                    <path id="Stroke-69-3" d="M8.19,53.8958L3.843,53.8958L3.46668,50.1316C3.43896,49.8597,3.528,49.5894,3.71112,49.388C3.89424,49.1858,4.15464,49.0699,4.42764,49.0699L7.6062,49.0699C7.87836,49.0699,8.13792,49.1858,8.32188,49.388C8.505,49.5894,8.5932,49.8597,8.56632,50.1316L8.19,53.8958Z" stroke="#1A1816" stroke-linecap="round" stroke-linejoin="round"/>
                    <path id="Fill-70-3" d="M12.0537,53.8958L16.4015,53.8958L16.7778,50.1316C16.8047,49.8597,16.7157,49.5894,16.5325,49.388C16.3494,49.1858,16.0899,49.0699,15.816,49.0699L12.6383,49.0699C12.3653,49.0699,12.1057,49.1858,11.9226,49.388C11.7387,49.5894,11.6505,49.8597,11.6773,50.1316L12.0537,53.8958Z" fill="#FF6242"/>
                    <path id="Stroke-71-3" d="M12.0537,53.8958L16.4015,53.8958L16.7778,50.1316C16.8047,49.8597,16.7157,49.5894,16.5325,49.388C16.3494,49.1858,16.0899,49.0699,15.816,49.0699L12.6383,49.0699C12.3653,49.0699,12.1057,49.1858,11.9226,49.388C11.7387,49.5894,11.6505,49.8597,11.6773,50.1316L12.0537,53.8958Z" stroke="#1A1816" stroke-linecap="round" stroke-linejoin="round"/>
                    <path id="Fill-72-3" d="M16.6228,54.3786C17.341,54.3786,17.8375,53.6064,17.4889,52.9787C16.995,52.0873,16.0449,51.483,14.9521,51.483L14.4691,51.483C13.3771,51.483,12.4254,52.0873,11.9314,52.9787C11.5837,53.6064,12.0793,54.3786,12.7983,54.3786L16.6228,54.3786Z" fill="#FFFFFF"/>
                    <path id="Stroke-73-3" d="M16.6228,54.3786C17.341,54.3786,17.8375,53.6064,17.4889,52.9787C16.995,52.0873,16.0449,51.483,14.9521,51.483L14.4691,51.483C13.3771,51.483,12.4254,52.0873,11.9314,52.9787C11.5837,53.6064,12.0793,54.3786,12.7983,54.3786L16.6228,54.3786Z" stroke="#1A1816" stroke-linecap="round" stroke-linejoin="round"/>
                    <path id="Fill-74-3" d="M7.44601,54.3786C8.16421,54.3786,8.65981,53.6064,8.31205,52.9787C7.81813,52.0873,6.86809,51.483,5.77525,51.483L5.29225,51.483C4.20025,51.483,3.24853,52.0873,2.75461,52.9787C2.40685,53.6064,2.90245,54.3786,3.62065,54.3786L7.44601,54.3786Z" fill="#FFFFFF"/>
                    <path id="Stroke-75-3" d="M7.44601,54.3786C8.16421,54.3786,8.65981,53.6064,8.31205,52.9787C7.81813,52.0873,6.86809,51.483,5.77525,51.483L5.29225,51.483C4.20025,51.483,3.24853,52.0873,2.75461,52.9787C2.40685,53.6064,2.90245,54.3786,3.62065,54.3786L7.44601,54.3786Z" stroke="#1A1816" stroke-linecap="round" stroke-linejoin="round"/>
                    <path id="Fill-76-3" d="M13.4515,18.7737C12.4141,18.3927,11.2927,18.1846,10.1217,18.1846C8.95247,18.1846,7.83107,18.3927,6.79199,18.7737C7.07087,20.3583,8.45603,21.5618,10.1217,21.5618C11.7883,21.5618,13.1726,20.3583,13.4515,18.7737" fill="#FFCEBF"/>
                    <path id="Stroke-77-3" d="M13.4515,18.7737C12.4141,18.3927,11.2927,18.1846,10.1217,18.1846C8.95247,18.1846,7.83107,18.3927,6.79199,18.7737C7.07087,20.3583,8.45603,21.5618,10.1217,21.5618C11.7883,21.5618,13.1726,20.3583,13.4515,18.7737Z" stroke="#1A1816" stroke-linecap="round" stroke-linejoin="round"/>
                    <g id="Head" transform="translate(10.1221,8.29126) translate(-6.76242,-7.9626)">
                        <path id="Fill-78-3" d="M16.8845,10.4628C16.8845,9.88284,16.4653,9.42039,15.9185,9.30541L15.9185,8.53243C15.9185,5.33475,13.3237,2.74136,10.1217,2.74136C6.92126,2.74136,4.3265,5.33475,4.3265,8.53243L4.3265,9.30541C3.77882,9.42039,3.35966,9.88284,3.35966,10.4628C3.35966,11.0864,3.84014,11.5824,4.44746,11.6453C4.9943,14.2765,7.32698,16.2539,10.1217,16.2539C12.9172,16.2539,15.2507,14.2765,15.7967,11.6453C16.404,11.5824,16.8845,11.0864,16.8845,10.4628" fill="#FFCEBF" transform="translate(-3.35966,-0.328664)"/>
                        <path id="Stroke-79-2" d="M16.8845,10.4628C16.8845,9.88284,16.4653,9.42039,15.9185,9.30541L15.9185,8.53243C15.9185,5.33475,13.3237,2.74136,10.1217,2.74136C6.92126,2.74136,4.3265,5.33475,4.3265,8.53243L4.3265,9.30541C3.77882,9.42039,3.35966,9.88284,3.35966,10.4628C3.35966,11.0864,3.84014,11.5824,4.44746,11.6453C4.9943,14.2765,7.32698,16.2539,10.1217,16.2539C12.9172,16.2539,15.2507,14.2765,15.7967,11.6453C16.404,11.5824,16.8845,11.0864,16.8845,10.4628Z" stroke="#1A1816" stroke-linecap="round" stroke-linejoin="round" transform="translate(-3.35966,-0.328664)"/>
                        <path id="Fill-80-3" d="M7.70683,11.1865C7.70683,11.5868,7.38259,11.91,6.98275,11.91C6.58207,11.91,6.25783,11.5868,6.25783,11.1865C6.25783,10.787,6.58207,10.463,6.98275,10.463C7.38259,10.463,7.70683,10.787,7.70683,11.1865" fill="#FFB59E" transform="translate(-3.35966,-0.328664)"/>
                        <path id="Fill-81-3" d="M13.9863,11.1865C13.9863,11.5868,13.6613,11.91,13.2623,11.91C12.8616,11.91,12.5365,11.5868,12.5365,11.1865C12.5365,10.787,12.8616,10.463,13.2623,10.463C13.6613,10.463,13.9863,10.787,13.9863,11.1865" fill="#FFB59E" transform="translate(-3.35966,-0.328664)"/>
                        <path id="Stroke-82-3" d="M11.5713,12.8757C11.1329,13.1686,10.6053,13.3583,10.1215,13.3583C9.63934,13.3583,9.11182,13.1686,8.67334,12.8757" stroke="#1A1816" stroke-linecap="round" stroke-linejoin="round" transform="translate(-3.35966,-0.328664)"/>
                        <path id="Fill-83-3" d="M7.94884,8.5326C7.54816,8.5326,7.22392,8.85656,7.22392,9.25606C7.22392,9.6564,7.54816,9.98037,7.94884,9.98037C8.34868,9.98037,8.67292,9.6564,8.67292,9.25606C8.67292,8.85656,8.34868,8.5326,7.94884,8.5326" fill="#1A1816" transform="translate(-3.35966,-0.328664)"/>
                        <path id="Fill-84-2" d="M12.2957,8.5326C11.895,8.5326,11.5716,8.85656,11.5716,9.25606C11.5716,9.6564,11.895,9.98037,12.2957,9.98037C12.6955,9.98037,13.0197,9.6564,13.0197,9.25606C13.0197,8.85656,12.6955,8.5326,12.2957,8.5326" fill="#1A1816" transform="translate(-3.35966,-0.328664)"/>
                        <path id="Fill-85-2" d="M14.6688,2.61991C14.5084,2.50074,14.4,2.33707,14.3177,2.15495C13.8465,1.10668,12.1564,0.328664,10.1219,0.328664C8.08828,0.328664,6.39736,1.10668,5.92696,2.15495C5.84464,2.33707,5.73544,2.50074,5.575,2.61991C4.52668,3.39541,3.84292,4.63168,3.84292,6.03497L3.84292,8.82307C3.84292,9.08913,4.05964,9.30566,4.32592,9.30566L4.96516,9.30566C5.41204,9.30566,5.77492,8.94225,5.77492,8.49575C5.77492,6.76599,7.23736,4.99509,8.46796,5.37949C8.87032,5.50538,9.15676,5.87802,9.15676,6.36061C9.15676,6.76347,8.95348,7.11429,8.64856,7.33166C8.61832,7.35349,8.60236,7.39125,8.60908,7.42818C8.6158,7.46427,8.64352,7.49449,8.67964,7.50372C8.83168,7.544,8.99044,7.5675,9.15676,7.5675C10.2219,7.5675,11.1324,6.69297,11.0795,5.5507C11.5844,5.29304,12.085,5.20072,12.5176,5.36857C13.6583,5.81088,14.4698,7.20074,14.4698,8.49575C14.4698,8.94225,14.8318,9.30566,15.2795,9.30566L15.9179,9.30566C16.185,9.30566,16.4018,9.08913,16.4018,8.82307L16.4018,6.03497C16.4018,4.63168,15.7172,3.39541,14.6688,2.61991" fill="#FFDF3D" transform="translate(-3.35966,-0.328664)"/>
                        <path id="Fill-86-2" d="M14.6688,2.61991C14.5084,2.50074,14.4,2.33707,14.3177,2.15495C13.8465,1.10668,12.1564,0.328664,10.1219,0.328664C8.08828,0.328664,6.39736,1.10668,5.92696,2.15495C5.84464,2.33707,5.73544,2.50074,5.575,2.61991C4.52668,3.39541,3.84292,4.63168,3.84292,6.03497L3.84292,7.96532C3.84292,6.56288,4.52668,5.32577,5.575,4.55027C5.73544,4.43193,5.8438,4.26743,5.92612,4.08531C6.39736,3.03704,8.08828,2.25818,10.1219,2.25818C12.1564,2.25818,13.8465,3.03704,14.3177,4.08531C14.4,4.26743,14.5084,4.43109,14.6688,4.55027C15.7172,5.32577,16.4009,6.56288,16.4009,7.96532L16.4018,6.03497C16.4018,4.63168,15.7172,3.39541,14.6688,2.61991" fill="#FFEF9E" transform="translate(-3.35966,-0.328664)"/>
                        <path id="Stroke-87-3" d="M14.6688,2.61991C14.5084,2.50074,14.4,2.33707,14.3177,2.15495C13.8465,1.10668,12.1564,0.328664,10.1219,0.328664C8.08828,0.328664,6.39736,1.10668,5.92696,2.15495C5.84464,2.33707,5.73544,2.50074,5.575,2.61991C4.52668,3.39541,3.84292,4.63168,3.84292,6.03497L3.84292,8.82307C3.84292,9.08913,4.05964,9.30566,4.32592,9.30566L4.96516,9.30566C5.41204,9.30566,5.77492,8.94225,5.77492,8.49575C5.77492,6.76599,7.23736,4.99509,8.46796,5.37949C8.87032,5.50538,9.15676,5.87802,9.15676,6.36061C9.15676,6.76347,8.95348,7.11429,8.64856,7.33166C8.61832,7.35349,8.60236,7.39125,8.60908,7.42818C8.6158,7.46427,8.64352,7.49449,8.67964,7.50372C8.83168,7.544,8.99044,7.5675,9.15676,7.5675C10.2219,7.5675,11.1324,6.69297,11.0795,5.5507C11.5844,5.29304,12.085,5.20072,12.5176,5.36857C13.6583,5.81088,14.4698,7.20074,14.4698,8.49575C14.4698,8.94225,14.8318,9.30566,15.2795,9.30566L15.9179,9.30566C16.185,9.30566,16.4018,9.08913,16.4018,8.82307L16.4018,6.03497C16.4018,4.63168,15.7172,3.39541,14.6688,2.61991Z" stroke="#1A1816" stroke-linecap="round" stroke-linejoin="round" transform="translate(-3.35966,-0.328664)"/>
                        <path id="Stroke-88" d="M11.0792,5.55087C11.0792,5.55087,11.1682,4.45056,10.6054,3.70696" stroke="#1A1816" stroke-linecap="round" stroke-linejoin="round" transform="translate(-3.35966,-0.328664)"/>
                    </g>
                </g>
            </g>
            <g id="Ball" transform="translate(32,46) translate(0,0)">
                <ellipse id="Fill" fill="#FF8A14" rx="5" ry="5" transform="translate(0,0) translate(5,5)"/>
                <ellipse id="Oval" stroke="#1A1816" rx="4.5" ry="4.5" transform="translate(0,0) translate(5,5)"/>
                <path id="Stroke-41" d="M1,4.75C3.18054,6.91035,6.75887,6.93009,9,4.75C6.79358,2.91824,3.21175,2.91892,1,4.75Z" stroke="#1A1816" stroke-linecap="round" stroke-linejoin="round"/>
            </g>
        </g>
    </g>
    <script><![CDATA[window.ks=function(){function z(a){return"undefined"!==typeof a}function v(a,b){return a&&0==a.indexOf(b)}function N(a){if(!isFinite(a))throw"non-finite value";}function O(a){if(14>=a)return 16;(a=X[a])||(a=0);return a}function D(a){return 0<=a?Math.pow(a,1/3):-Math.pow(-a,1/3)}function Y(a,b,c,d){if(0==a)return 0==b?b=-d/c:(a=Math.sqrt(c*c-4*b*d),d=(-c+a)/(2*b),0<=d&&1>=d?b=d:(d=(-c-a)/(2*b),b=0<=d&&1>=d?d:0)),b;var e=c/a-b*b/(a*a)/3;c=b*b*b/(a*a*a)/13.5-b*c/(a*a)/3+d/a;var k=c*c/4+e*e*e/27;b=-b/
(3*a);if(0>=k){if(0==e&&0==c)return-D(d/a);a=Math.sqrt(c*c/4-k);d=Math.acos(-c/2/a);c=Math.cos(d/3);d=Math.sqrt(3)*Math.sin(d/3);a=D(a);e=2*a*c+b;if(0<=e&&1>=e)return e;e=-a*(c+d)+b;if(0<=e&&1>=e)return e;e=a*(d-c)+b;if(0<=e&&1>=e)return e}else{a=D(-c/2+Math.sqrt(k));c=D(-c/2-Math.sqrt(k));d=a+c+b;if(0<=d&&1>=d)return d;d=-(a+c)/2+b;if(0<=d&&1>=d)return d}return 0}function Z(a,b){if(48==a&&"number"===typeof b)return"#"+("000000"+b.toString(16)).substr(-6);if(64==a)return b=b.map(function(a){return a+
"px"}),b.join(",");if(96==a){a="";for(var c=b.length,d=0;d<c;d+=2)a+=b[d],a+=b[d+1].join(",");return a}if(80==a){if(0==b[0])return"none";a="";c=b.length;for(d=0;d<c;)a+=R[b[d]],1==b[d]?a+="("+b[d+1]+") ":5==b[d]?(a+="("+b[d+1]+"px "+b[d+2]+"px "+b[d+3]+"px rgba("+(b[d+4]>>>24)+","+(b[d+4]>>16&255)+","+(b[d+4]>>8&255)+","+(b[d+4]&255)/255+")) ",d+=3):a=2==b[d]?a+("("+b[d+1]+"px) "):7==b[d]?a+("("+b[d+1]+"deg) "):a+("("+(0>b[d+1]?0:b[d+1])+") "),d+=2;return a}return 32==a?b+"px":b}function w(a){return 0>=
a?0:255<=a?255:a}function aa(a,b,c,d){if(16==a||32==a)return(c-b)*d+b;if(0==a)return.5>d?b:c;if(48==a){if("number"===typeof b&&"number"===typeof c){var e=1-d;return w(e*(b>>16)+d*(c>>16))<<16|w(e*(b>>8&255)+d*(c>>8&255))<<8|w(e*(b&255)+d*(c&255))}return.5>d?b:c}if(64==a){0==b.length&&(b=[0]);0==c.length&&(c=[0]);var k=b.length;b.length!=c.length&&(k=b.length*c.length);var h=[];for(a=0;a<k;++a){var f=b[a%b.length];var g=(c[a%c.length]-f)*d+f;0>g&&(g=0);h.push(g)}return h}if(96==a){if(b.length!=c.length)return.5>
d?b:c;k=b.length;h=[];for(a=0;a<k;a+=2){if(b[a]!==c[a])return.5>d?b:c;h[a]=b[a];h[a+1]=[];for(f=0;f<b[a+1].length;++f)h[a+1].push((c[a+1][f]-b[a+1][f])*d+b[a+1][f])}return h}if(80==a){k=b.length;if(k!=c.length)return.5>d?b:c;h=[];for(a=0;a<k;){if(b[a]!=c[a]||1==b[a])return.5>d?b:c;h[a]=b[a];h[a+1]=(c[a+1]-b[a+1])*d+b[a+1];if(5==b[a]){h[a+2]=(c[a+2]-b[a+2])*d+b[a+2];h[a+3]=(c[a+3]-b[a+3])*d+b[a+3];e=1-d;var l=b[a+4],q=c[a+4];g=e*(l>>>24)+d*(q>>>24);var n=e*(l>>16&255)+d*(q>>16&255);f=e*(l>>8&255)+
d*(q>>8&255);h[a+4]=(w(n)<<16|w(f)<<8|w(e*(l&255)+d*(q&255)))+16777216*(w(g)|0);a+=3}a+=2}return h}return 0}function S(a,b){a:{var c=a+b[2];var d=b[4].length;for(var e=0;e<d;++e)if(c<b[4][e]){c=e;break a}c=d-1}d=b[2];e=b[4][c-1]-d;a=(a-e)/(b[4][c]-d-e);if(b[6]&&b[6].length>c-1)if(d=b[6][c-1],1==d[0])if(0>=a)a=0;else if(1<=a)a=1;else{e=d[1];var k=d[3];a=Y(3*e-3*k+1,-6*e+3*k,3*e,-a);a=3*a*(1-a)*(1-a)*d[2]+3*a*a*(1-a)*d[4]+a*a*a}else 2==d[0]?(d=d[1],a=Math.ceil(a*d)/d):3==d[0]&&(d=d[1],a=Math.floor(a*
d)/d);return aa(b[1]&240,b[5][c-1],b[5][c],a)}function P(){A=(new Date).getTime()}function J(a){for(var b=!1,c=0;c<x.length;++c)x[c].F(a)&&(b=!0);a&&x.forEach(function(a){a.l&&(a.l=!1,a.onfinish&&(a.onfinish(),b=!0))});return b}function T(){P();J(!0)?(K=!0,L(T)):K=!1}function Q(){K||(K=!0,L(T))}function U(a,b){var c=[];a.split(b).forEach(function(a){c.push(parseFloat(a))});return c}function t(a){-1==a.indexOf(",")&&(a=a.replace(" ",","));return U(a,",")}function V(a){a._ks||(a._ks={H:M},++M);if(!a._ks.transform){for(var b=
a._ks.transform=[],c=0;14>=c;++c)b[c]=0;b[10]=1;b[11]=1;if(c=a.getAttribute("transform")){for(c=c.trim().split(") ");0<a._ks.w;)c.shift(),--a._ks.w;a=c.shift();v(a,"translate(")&&(a=t(a.substring(10)),b[1]=a[0],b[2]=z(a[1])?a[1]:0,a=c.shift());v(a,"rotate(")&&(a=t(a.substring(7)),b[6]=a[0],a=c.shift());v(a,"skewX(")&&(a=t(a.substring(6)),b[7]=a[0],a=c.shift());v(a,"skewY(")&&(a=t(a.substring(6)),b[8]=a[0],a=c.shift());v(a,"scale(")&&(a=t(a.substring(6)),b[10]=a[0],b[11]=z(a[1])?a[1]:0,a=c.shift());
v(a,"translate(")&&(a=t(a.substring(10)),b[13]=a[0],b[14]=z(a[1])?a[1]:0)}}}function W(a){this.C=a;this.v=[];this.o=[];this.g=0;this.i=this.a=this.b=null;this.f=this.A=this.l=this.h=!1}function G(a,b,c){b=a[b];void 0===b&&(b=a[c]);return b}function ba(a){return Array.isArray(a)?a:v(a,"cubic-bezier(")?(a=a.substring(13,a.length-1).split(","),[1,parseFloat(a[0]),parseFloat(a[1]),parseFloat(a[2]),parseFloat(a[3])]):v(a,"steps(")?(a=a.substring(6,a.length-1).split(","),[a[1]&&"start"==a[1].trim()?2:3,
parseFloat(a[0])]):[0]}function ca(a){a=a.trim();return v(a,"#")?(parseInt(a.substring(1),16)<<8)+255:v(a,"rgba(")?(a=a.substring(5,a.length-1),a=a.split(","),(parseInt(a[0],10)<<24)+(parseInt(a[1],10)<<16)+(parseInt(a[2],10)<<8)+255*parseFloat(a[3])<<0):a}var da=" translate translate    rotate skewX skewY  scale scale  translate translate".split(" "),R="none url blur brightness contrast drop-shadow grayscale hue-rotate invert opacity saturate sepia".split(" "),L=window.requestAnimationFrame||window.webkitRequestAnimationFrame||
window.mozRequestAnimationFrame||window.oRequestAnimationFrame||window.msRequestAnimationFrame||null;L||(L=function(a){window.setTimeout(a,16)});var M=0,X={d:97,fill:48,fillOpacity:16,filter:80,height:33,opacity:16,stroke:48,strokeDasharray:64,strokeDashoffset:32,strokeOpacity:16,strokeWidth:32,transform:1,width:33},K=!1,A=(new Date).getTime(),x=[];W.prototype={j:function(a){var b=!1;if(null!==this.b){var c=this.c();null!==c&&c>=this.g?(b=!0,a?this.a=c:this.a=this.i?Math.max(this.i,this.g):this.g):
null!==c&&(a&&null!==this.a&&(this.b=A-this.a/1),this.a=null)}this.i=this.c();return b},F:function(a){a&&(this.h&&(this.h=!1,null===this.b&&(null!==this.a?(this.b=A-this.a/1,this.a=null):this.b=A)),null===this.a&&null!==this.b&&this.j(!1)&&(this.l=!0));a=this.c();if(null===a)return!1;for(var b=this.v,c=this.o,d=0;d<b.length;++d){for(var e=b[d],k=!1,h=0;h<c[d].length;++h){var f=c[d][h],g=f[0];if(null!==g){var l=f[2];var q=f[4].length,n=f[4][q-1]-l;l=0==n?f[5][q-1]:a<=l?f[5][0]:a>=l+f[3]?0==f[3]%n?
f[5][q-1]:S(f[3]%n,f):S((a-l)%n,f);0==g?(e._ks.mpath=f[8],e._ks.transform[g]=l,k=!0):14>=g?(e._ks.transform[g]=l,k=!0):(l=Z(f[1]&240,l),f[1]&1?e.setAttribute(g,l):e.style[g]=l)}}if(k){V(e);k=e._ks.transform;h="";if(f=e._ks.mpath)l=k[0]*f[2]/100,g=f[1].getPointAtLength(l),h="translate("+g.x+","+g.y+") ",f[0]&&(.5>l?(l=g,g=f[1].getPointAtLength(.5)):l=f[1].getPointAtLength(l-.5),h+="rotate("+180*Math.atan2(g.y-l.y,g.x-l.x)/Math.PI+") ");for(f=1;f<k.length;++f)g=k[f],g!=(10==f||11==f?1:0)&&(h+=" "+da[f]+
"(",h=2>=f?h+(1==f?g+",0":"0,"+g):13<=f?h+(13==f?g+",0":"0,"+g):10<=f?h+(10==f?g+",1":"1,"+g):h+g,h+=")");e.setAttribute("transform",h)}}return"running"==this.B()},s:function(){if(!this.A){this.A=!0;for(var a=this.v,b=this.o,c=0;c<a.length;++c)for(var d=a[c],e=!1,k=0;k<b[c].length;++k){var h=b[c][k][0];14>=h?d._ks.G||(V(d),d._ks.G=d._ks.transform.slice()):(d._ks.m||(d._ks.m={}),z(d._ks.m[h])||(e||(e=getComputedStyle(d)),d._ks.m[h]=O(h)&1?d.getAttribute(h):e[h]))}}},play:function(a){z(a)&&this.u(a,
!0);if(!this.f)return this;a=this.c();if(null===a||0>a||a>=this.g)this.a=0;if(null===this.a)return this;this.b=null;this.h=!0;this.s();Q();return this},pause:function(a){z(a)&&this.u(a,!0);if(!this.f||"paused"==this.B())return this;z(a)||P();a=this.c();null===a&&(this.a=0);null!==this.b&&null===this.a&&(this.a=a);this.b=null;this.h=!1;this.j(!1);this.s();J(!1);return this},c:function(){return null!==this.a?this.a:null===this.b?null:1*(A-this.b)},u:function(a,b){N(a);b&&P();null!==a&&(this.s(),null!==
this.a||null===this.b?(this.a=a,J(!1)):this.b=A-a/1,this.f||(this.b=null),this.i=null,this.j(!0),Q())},I:function(){return this.c()},time:function(a){return z(a)?(this.f&&this.u(a,!0),this):this.I()},startTime:function(a){if(z(a)){N(a);if(!this.f)return this;this.i=this.c();this.b=a;null!==a?this.a=null:this.a=this.i;this.h=!1;this.j(!0);J(!1);Q();return this}return this.D?this.D[0].startTime:this.b},B:function(){var a=this.c();return this.h?"running":null===a?"idle":null===this.b?"paused":a>=this.g?
"finished":"running"}};return{setmptr:function(a){for(var b in a){var c=document.getElementById(b);c._ks||(c._ks={});c._ks.w=a[b]}},animate:function(){if(0<x.length)throw"data already set";var a={};if(1==arguments.length%2){a=arguments[arguments.length-1];var b={};for(c in a)b[c]=a[c];a=b}var c=new W(a);a=arguments;for(var d=b=0;d<a.length-1;d+=2){var e=a[d];var k=e instanceof Element?e:document.getElementById(e.substring(1));if(!k)throw"invalid target: "+e;e=k;k=a[d+1];e._ks||(e._ks={H:M},++M);for(var h=
[],f=0;f<k.length;++f){var g=k[f],l=G(g,"p","property");14>=l||-1==l.indexOf("-")||(l=null);var q=O(l);q||(q=0);var n=G(g,"t","times");if(!n||2>n.length)throw"not enough times";n=n.slice();if(!isFinite(n[0])||0>n[0])throw"bad time: "+n[0];for(var y=1;y<n.length;++y)if(!isFinite(n[y])||0>n[y]||n[y]<n[y-1])throw"bad time: "+n[y];y=n[0];var w=n[n.length-1]-y,A=g.iterations||0;1>A&&(A=1);w*=A;b<w+y&&(b=w+y);var t=G(g,"v","values");if(!t||t.length!=n.length)throw"values don't match times";t=t.slice();
for(var B=l,m=t,H=O(B)&240,p=0;p<m.length;++p)if(96==H){for(var F=m[p].substring(6,m[p].length-2).match(/[A-DF-Za-df-z][-+0-9eE., ]*/ig),I=[],r=0;r<F.length;++r){I.push(F[r][0]);for(var u=1<F[r].trim().length?F[r].substring(1).split(","):[],E=0;E<u.length;++E)u[E]=parseFloat(u[E]);I.push(u)}m[p]=I}else if(48==H)v(m[p],"#")?m[p]=parseInt(m[p].substring(1),16):v(m[p],"url(")||"none"==m[p]||(console.warn("unsupported color: "+m[p]),m[p]=0);else if(80==H){F=m;I=p;r=m[p];if("none"==r)r=[0];else{u=[];for(var C=
r.indexOf("(");0<C;)if(E=R.indexOf(r.substring(0,C)),0<=E){u.push(E);var D=r.indexOf(") ");0>D&&(D=r.length-1);C=r.substring(C+1,D).split(" ");5==E?(u.push(parseFloat(C[0])),u.push(parseFloat(C[1])),u.push(parseFloat(C[2])),u.push(ca(C[3]))):1==E?u.push(C[0]):u.push(parseFloat(C[0]));r=r.substring(D+1).trim();C=r.indexOf("(")}else break;r=u}F[I]=r}else 64==H?"none"!=m[p]?/^[0-9 .]*$/.test(m[p])?m[p]=U(m[p]," "):(console.warn("unsupported value: "+m[p]),m[p]=[0]):m[p]=[0]:32==H?(N(m[p]),m[p]=parseFloat(m[p])):
0===B&&(m[p]=parseFloat(m[p]));B=G(g,"e","easing");m=n.length;for(B||(B=[]);B.length<m;)B.push([1,0,0,.58,1]);for(m=0;m<B.length;++m)B[m]=ba(B[m]);q=[l,q,y,w,n,t,B,A];n=G(g,"m","motionPath");z(n)&&0===l&&(q[8]=[],q[8][0]=g.motionRotate,g=document.createElementNS("http://www.w3.org/2000/svg","path"),n||(n="M0,0"),g.setAttribute("d",n),q[8][1]=g,q[8][2]=g.getTotalLength());h.push(q)}0<h.length&&(c.v.push(e),c.o.push(h))}c.g=b;!1===c.f&&(x.push(c),c.f=!0,!1!==c.C.autoplay&&c.play());return c},_priv_list:function(){return x.slice()},
play:function(){return x[0]?x[0].play():this},pause:function(){return x[0]?x[0].pause():this},time:function(a){return x[0]?x[0].time(a):z(a)?this:null}}}();
document.ks=ks;(function(ks){
ks.setmptr({'Ball':1});ks.animate("#Ball-Shadow",[{p:'d',t:[0,200,500,501,700,1000,1001,1200,1400],v:["path('M42,63.0003C42,63.5526,39.7613,64,37,64C34.2383,64,32,63.5526,32,63.0003C32,62.448,34.2383,62,37,62C39.7613,62,42,62.448,42,63.0003')","path('M40,63.5002C40,63.7763,38.6568,64,37,64C35.343,64,34,63.7763,34,63.5002C34,63.224,35.343,63,37,63C38.6568,63,40,63.224,40,63.5002')","path('M42,63.0003C42,63.5526,39.7613,64,37,64C34.2383,64,32,63.5526,32,63.0003C32,62.448,34.2383,62,37,62C39.7613,62,42,62.448,42,63.0003')","path('M42,63.0003C42,63.5526,39.7613,64,37,64C34.2383,64,32,63.5526,32,63.0003C32,62.448,34.2383,62,37,62C39.7613,62,42,62.448,42,63.0003')","path('M40,63.5002C40,63.7763,38.6568,64,37,64C35.343,64,34,63.7763,34,63.5002C34,63.224,35.343,63,37,63C38.6568,63,40,63.224,40,63.5002')","path('M42,63.0003C42,63.5526,39.7613,64,37,64C34.2383,64,32,63.5526,32,63.0003C32,62.448,34.2383,62,37,62C39.7613,62,42,62.448,42,63.0003')","path('M42,63.0003C42,63.5526,39.7613,64,37,64C34.2383,64,32,63.5526,32,63.0003C32,62.448,34.2383,62,37,62C39.7613,62,42,62.448,42,63.0003')","path('M40,63.5002C40,63.7763,38.6568,64,37,64C35.343,64,34,63.7763,34,63.5002C34,63.224,35.343,63,37,63C38.6568,63,40,63.224,40,63.5002')","path('M41.5365,63.1162C41.5365,63.6044,39.5053,64,37,64C34.4943,64,32.4635,63.6044,32.4635,63.1162C32.4635,62.6279,34.4943,62.2318,37,62.2318C39.5053,62.2318,41.5365,62.6279,41.5365,63.1162')"],e:[[1,0.42,0,0.58,1],[1,0.42,0,0.58,1],[3,1],[1,0.42,0,0.58,1],[1,0.42,0,0.58,1],[3,1],[1,0.42,0,0.58,1],[1,0.433203,0,0.682003,0.615478],[0]],iterations:Infinity}],
"#116--basketball-male-african-american",[{p:'opacity',t:[0,600,700,900,1100,1200,1400],v:[0,0,1,1,1,0,0],e:[[3,1],[3,1],[3,1],[3,1],[3,1],[0],[0]],iterations:Infinity}],
"#Fill-42",[{p:'d',t:[0,700,900,1200,1400],v:["path('M14.7818,35.8183C14.7818,30.4872,19.107,26.1665,24.4418,26.1665C29.7775,26.1665,34.1018,30.4872,34.1018,35.8183L34.1018,40.4025C34.1018,41.6085,35.0779,42.5746,36.2758,42.5746C37.2124,42.5746,37.9667,43.3274,37.9667,44.264C37.9667,45.1998,37.2124,45.9527,36.2758,45.9527C32.7503,45.9527,30.7217,42.7961,30.7217,40.8851L30.7217,44.0215L18.1628,44.0215L18.1628,46.677C18.1628,47.6128,17.4094,48.3656,16.4728,48.3656C15.5353,48.3656,14.7818,47.6128,14.7818,46.677L14.7818,35.8183Z')","path('M14.7818,35.8183C14.7818,30.4872,19.107,26.1665,24.4418,26.1665C29.7775,26.1665,35,28.6689,35,34L35,39C35,40.2061,35.5,43,36,44.0215C36.9366,44.0215,38,48.3656,37,49C37,49.9358,35,49.5,34,48.3656C35,48.3656,30.7217,42.7961,30.7217,40.8851L30.7217,44.0215L18.1628,44.0215L18.1628,46.677C18.1628,47.6128,17.4094,48.3656,16.4728,48.3656C15.5353,48.3656,14.7818,47.6128,14.7818,46.677L14.7818,35.8183Z')","path('M14.7818,35.8183C14.7818,30.4872,19.107,26.1665,24.4418,26.1665C29.7775,26.1665,34.1018,30.4872,34.1018,35.8183L34.1018,40.4025C34.1018,41.6085,35.0779,42.5746,36.2758,42.5746C37.2124,42.5746,37.9667,43.3274,37.9667,44.264C37.9667,45.1998,37.2124,45.9527,36.2758,45.9527C32.7503,45.9527,30.7217,42.7961,30.7217,40.8851L30.7217,44.0215L18.1628,44.0215L18.1628,46.677C18.1628,47.6128,17.4094,48.3656,16.4728,48.3656C15.5353,48.3656,14.7818,47.6128,14.7818,46.677L14.7818,35.8183Z')","path('M14.7818,35.8183C14.7818,30.4872,19.107,26.1665,24.4418,26.1665C29.7775,26.1665,35,28.6689,35,34L35,39C35,40.2061,35.5,43,36,44.0215C36.9366,44.0215,38,48.3656,37,49C37,49.9358,35,49.5,34,48.3656C35,48.3656,30.7217,42.7961,30.7217,40.8851L30.7217,44.0215L18.1628,44.0215L18.1628,46.677C18.1628,47.6128,17.4094,48.3656,16.4728,48.3656C15.5353,48.3656,14.7818,47.6128,14.7818,46.677L14.7818,35.8183Z')","path('M14.7818,35.8183C14.7818,30.4872,19.107,26.1665,24.4418,26.1665C29.7775,26.1665,35,28.6689,35,34L35,39C35,40.2061,35.5,43,36,44.0215C36.9366,44.0215,38,48.3656,37,49C37,49.9358,35,49.5,34,48.3656C35,48.3656,30.7217,42.7961,30.7217,40.8851L30.7217,44.0215L18.1628,44.0215L18.1628,46.677C18.1628,47.6128,17.4094,48.3656,16.4728,48.3656C15.5353,48.3656,14.7818,47.6128,14.7818,46.677L14.7818,35.8183Z')"],e:[[0],[0],[0],[0],[0]],iterations:Infinity}],
"#Stroke-44",[{p:'d',t:[0,700,900,1200,1400],v:["path('M14.7818,35.8183C14.7818,30.4872,19.107,26.1665,24.4418,26.1665C29.7775,26.1665,34.1018,30.4872,34.1018,35.8183L34.1018,40.4025C34.1018,41.6085,35.0779,42.5746,36.2758,42.5746C37.2124,42.5746,37.9667,43.3274,37.9667,44.264C37.9667,45.1998,37.2124,45.9527,36.2758,45.9527C32.7503,45.9527,30.7217,42.7961,30.7217,40.8851L30.7217,44.0215L18.1628,44.0215L18.1628,46.677C18.1628,47.6128,17.4094,48.3656,16.4728,48.3656C15.5353,48.3656,14.7818,47.6128,14.7818,46.677L14.7818,35.8183Z')","path('M14.7818,35.8183C14.7818,30.4872,19.107,26.1665,24.4418,26.1665C29.7775,26.1665,34.5,28.1689,34.5,33.5L34.5,37.5C34.5,38.706,35.5,42.5,35.5,42.5C35.5,42.5,37.5,47.429,37.5,48.3656C37.5,49.3014,36.5,51,34.5,48.3656C32.5,44.0215,30.7217,40.411,30.7217,38.5L30.7217,44.0215L18.1628,44.0215L18.1628,46.677C18.1628,47.6128,17.4094,48.3656,16.4728,48.3656C15.5353,48.3656,14.7818,47.6128,14.7818,46.677L14.7818,35.8183Z')","path('M14.7818,35.8183C14.7818,30.4872,19.107,26.1665,24.4418,26.1665C29.7775,26.1665,34.1018,30.4872,34.1018,35.8183L34.1018,40.4025C34.1018,41.6085,35.0779,42.5746,36.2758,42.5746C37.2124,42.5746,37.9667,43.3274,37.9667,44.264C37.9667,45.1998,37.2124,45.9527,36.2758,45.9527C32.7503,45.9527,30.7217,42.7961,30.7217,40.8851L30.7217,44.0215L18.1628,44.0215L18.1628,46.677C18.1628,47.6128,17.4094,48.3656,16.4728,48.3656C15.5353,48.3656,14.7818,47.6128,14.7818,46.677L14.7818,35.8183Z')","path('M14.7818,35.8183C14.7818,30.4872,19.107,26.1665,24.4418,26.1665C29.7775,26.1665,34.5,28.1689,34.5,33.5L34.5,37.5C34.5,38.706,35.5,42.5,35.5,42.5C35.5,42.5,37.5,47.429,37.5,48.3656C37.5,49.3014,36.5,51,34.5,48.3656C32.5,44.0215,30.7217,40.411,30.7217,38.5L30.7217,44.0215L18.1628,44.0215L18.1628,46.677C18.1628,47.6128,17.4094,48.3656,16.4728,48.3656C15.5353,48.3656,14.7818,47.6128,14.7818,46.677L14.7818,35.8183Z')","path('M14.7818,35.8183C14.7818,30.4872,19.107,26.1665,24.4418,26.1665C29.7775,26.1665,34.5,28.1689,34.5,33.5L34.5,37.5C34.5,38.706,35.5,42.5,35.5,42.5C35.5,42.5,37.5,47.429,37.5,48.3656C37.5,49.3014,36.5,51,34.5,48.3656C32.5,44.0215,30.7217,40.411,30.7217,38.5L30.7217,44.0215L18.1628,44.0215L18.1628,46.677C18.1628,47.6128,17.4094,48.3656,16.4728,48.3656C15.5353,48.3656,14.7818,47.6128,14.7818,46.677L14.7818,35.8183Z')"],e:[[0],[0],[0],[0],[0]],iterations:Infinity}],
"#115--basketball-male-asian",[{p:'opacity',t:[0,600,700,1400],v:[1,1,0,0],e:[[0],[3,1],[0],[0]],iterations:Infinity}],
"#Fill-42-2",[{p:'d',t:[0,200,400,700,1400],v:["path('M14.7818,35.8183C14.7818,30.4872,19.107,26.1665,24.4418,26.1665C29.7775,26.1665,34.1018,30.4872,34.1018,35.8183L34.1018,40.4025C34.1018,41.6085,35.0779,42.5746,36.2758,42.5746C37.2124,42.5746,37.9667,43.3274,37.9667,44.264C37.9667,45.1998,37.2124,45.9527,36.2758,45.9527C32.7503,45.9527,30.7217,42.7961,30.7217,40.8851L30.7217,44.0215L18.1628,44.0215L18.1628,46.677C18.1628,47.6128,17.4094,48.3656,16.4728,48.3656C15.5353,48.3656,14.7818,47.6128,14.7818,46.677L14.7818,35.8183Z')","path('M14.7818,35.8183C14.7818,30.4872,19.107,26.1665,24.4418,26.1665C29.7775,26.1665,34.1018,30.4872,34.1018,35.8183L34.7,40C34.7,41,35.3776,42.4597,35.3776,42.4597C35.3776,42.4597,38,48,37.1018,48.8851C36.2036,49.7702,35.3776,51,34.1018,48.3656C32.826,45.7312,30.9495,40.7009,30.7217,41L30.7217,44.0215L18.1628,44.0215L18.1628,46.677C18.1628,47.6128,17.4094,48.3656,16.4728,48.3656C15.5353,48.3656,14.7818,47.6128,14.7818,46.677L14.7818,35.8183Z')","path('M14.7818,35.8183C14.7818,30.4872,19.107,26.1665,24.4418,26.1665C29.7775,26.1665,34.1018,30.4872,34.1018,35.8183L34.1018,40.4025C34.1018,41.6085,35.0779,42.5746,36.2758,42.5746C37.2124,42.5746,37.9667,43.3274,37.9667,44.264C37.9667,45.1998,37.2124,45.9527,36.2758,45.9527C32.7503,45.9527,30.7217,42.7961,30.7217,40.8851L30.7217,44.0215L18.1628,44.0215L18.1628,46.677C18.1628,47.6128,17.4094,48.3656,16.4728,48.3656C15.5353,48.3656,14.7818,47.6128,14.7818,46.677L14.7818,35.8183Z')","path('M14.7818,35.8183C14.7818,30.4872,19.107,26.1665,24.4418,26.1665C29.7775,26.1665,34.1018,30.4872,34.1018,35.8183L34.7,40C34.7,41,35.3776,42.4597,35.3776,42.4597C35.3776,42.4597,38,48,37.1018,48.8851C36.2036,49.7702,35.3776,51,34.1018,48.3656C32.826,45.7312,30.9495,40.7009,30.7217,41L30.7217,44.0215L18.1628,44.0215L18.1628,46.677C18.1628,47.6128,17.4094,48.3656,16.4728,48.3656C15.5353,48.3656,14.7818,47.6128,14.7818,46.677L14.7818,35.8183Z')","path('M14.7818,35.8183C14.7818,30.4872,19.107,26.1665,24.4418,26.1665C29.7775,26.1665,34.1018,30.4872,34.1018,35.8183L34.7,40C34.7,41,35.3776,42.4597,35.3776,42.4597C35.3776,42.4597,38,48,37.1018,48.8851C36.2036,49.7702,35.3776,51,34.1018,48.3656C32.826,45.7312,30.9495,40.7009,30.7217,41L30.7217,44.0215L18.1628,44.0215L18.1628,46.677C18.1628,47.6128,17.4094,48.3656,16.4728,48.3656C15.5353,48.3656,14.7818,47.6128,14.7818,46.677L14.7818,35.8183Z')"],e:[[0],[0],[0],[0],[0]],iterations:Infinity}],
"#Stroke-44-2",[{p:'d',t:[0,200,400,700,1400],v:["path('M14.7818,35.8183C14.7818,30.4872,19.107,26.1665,24.4418,26.1665C29.7775,26.1665,34.1018,30.4872,34.1018,35.8183L34.1018,40.4025C34.1018,41.6085,35.0779,42.5746,36.2758,42.5746C37.2124,42.5746,37.9667,43.3274,37.9667,44.264C37.9667,45.1998,37.2124,45.9527,36.2758,45.9527C32.7503,45.9527,30.7217,42.7961,30.7217,40.8851L30.7217,44.0215L18.1628,44.0215L18.1628,46.677C18.1628,47.6128,17.4094,48.3656,16.4728,48.3656C15.5353,48.3656,14.7818,47.6128,14.7818,46.677L14.7818,35.8183Z')","path('M14.7818,35.8183C14.7818,30.4872,19.107,26.1665,24.4418,26.1665C29.7775,26.1665,34.1018,30.4872,34.1018,35.8183L34.5,38.5C34.5,39.706,35,42,36.5,44.5C36.5,44.5,37.5516,45.7846,37.5,48.3656C37.4484,50.9466,34.5,49.5,33.5,46.677C32.5,43.854,30.7217,42.7961,30.7217,40.8851L30.7217,44.0215L18.1628,44.0215L18.1628,46.677C18.1628,47.6128,17.4094,48.3656,16.4728,48.3656C15.5353,48.3656,14.7818,47.6128,14.7818,46.677L14.7818,35.8183Z')","path('M14.7818,35.8183C14.7818,30.4872,19.107,26.1665,24.4418,26.1665C29.7775,26.1665,34.1018,30.4872,34.1018,35.8183L34.1018,40.4025C34.1018,41.6085,35.0779,42.5746,36.2758,42.5746C37.2124,42.5746,37.9667,43.3274,37.9667,44.264C37.9667,45.1998,37.2124,45.9527,36.2758,45.9527C32.7503,45.9527,30.7217,42.7961,30.7217,40.8851L30.7217,44.0215L18.1628,44.0215L18.1628,46.677C18.1628,47.6128,17.4094,48.3656,16.4728,48.3656C15.5353,48.3656,14.7818,47.6128,14.7818,46.677L14.7818,35.8183Z')","path('M14.7818,35.8183C14.7818,30.4872,19.107,26.1665,24.4418,26.1665C29.7775,26.1665,34.1018,30.4872,34.1018,35.8183L34.5,38.5C34.5,39.706,35,42,36.5,44.5C36.5,44.5,37.5516,45.7846,37.5,48.3656C37.4484,50.9466,34.5,49.5,33.5,46.677C32.5,43.854,30.7217,42.7961,30.7217,40.8851L30.7217,44.0215L18.1628,44.0215L18.1628,46.677C18.1628,47.6128,17.4094,48.3656,16.4728,48.3656C15.5353,48.3656,14.7818,47.6128,14.7818,46.677L14.7818,35.8183Z')","path('M14.7818,35.8183C14.7818,30.4872,19.107,26.1665,24.4418,26.1665C29.7775,26.1665,34.1018,30.4872,34.1018,35.8183L34.5,38.5C34.5,39.706,35,42,36.5,44.5C36.5,44.5,37.5516,45.7846,37.5,48.3656C37.4484,50.9466,34.5,49.5,33.5,46.677C32.5,43.854,30.7217,42.7961,30.7217,40.8851L30.7217,44.0215L18.1628,44.0215L18.1628,46.677C18.1628,47.6128,17.4094,48.3656,16.4728,48.3656C15.5353,48.3656,14.7818,47.6128,14.7818,46.677L14.7818,35.8183Z')"],e:[[0],[0],[0],[0],[0]],iterations:Infinity}],
"#117--basketball-male-caucasian",[{p:'opacity',t:[0,100,200,1100,1200,1400],v:[1,1,0,0,1,1],e:[[0],[3,1],[3,1],[3,1],[3,1],[0]],iterations:Infinity}],
"#Fill-42-3",[{p:'d',t:[0,200,300,400,700,1400],v:["path('M14.7818,35.8183C14.7818,30.4872,19.107,26.1665,24.4418,26.1665C29.7775,26.1665,34.1018,30.4872,34.1018,35.8183L34.1018,40.4025C34.1018,41.6085,35.0779,42.5746,36.2758,42.5746C37.2124,42.5746,37.9667,43.3274,37.9667,44.264C37.9667,45.1998,37.2124,45.9527,36.2758,45.9527C32.7503,45.9527,30.7217,42.7961,30.7217,40.8851L30.7217,44.0215L18.1628,44.0215L18.1628,46.677C18.1628,47.6128,17.4094,48.3656,16.4728,48.3656C15.5353,48.3656,14.7818,47.6128,14.7818,46.677L14.7818,35.8183Z')","path('M14.7818,35.8183C14.7818,30.4872,19.107,26.1665,24.4418,26.1665C29.7775,26.1665,34.1018,30.4872,34.1018,35.8183L34.1018,40.4025C34.7845,41.1224,36.8836,44.5672,36.2758,45C36.2758,45,38,48,38,48C38,48,36.2758,50,36.2758,50C34.1018,49.5,31.4507,42.1858,30.7217,40.8851L30.7217,44.0215L18.1628,44.0215L18.1628,46.677C18.1628,47.6128,17.4094,48.3656,16.4728,48.3656C15.5353,48.3656,14.7818,47.6128,14.7818,46.677L14.7818,35.8183Z')","path('M14.7818,35.8183C14.7818,30.4872,19.107,26.1665,24.4418,26.1665C29.7775,26.1665,34.1018,30.4872,34.1018,35.8183L34.1018,40.4025C34.4432,41.3655,35.9808,43.5709,36.2758,43.7873C36.7441,43.7873,37.9834,45.6637,37.9834,46.132C37.9834,46.5999,38,47,36,47C34,47,31.0862,42.491,30.7217,40.8851L30.7217,44.0215L18.1628,44.0215L18.1628,46.677C18.1628,47.6128,17.4094,48.3656,16.4728,48.3656C15.5353,48.3656,14.7818,47.6128,14.7818,46.677L14.7818,35.8183Z')","path('M14.7818,35.8183C14.7818,30.4872,19.107,26.1665,24.4418,26.1665C29.7775,26.1665,34.1018,30.4872,34.1018,35.8183L34.1018,40.4025C34.1018,41.6085,35.0779,42.5746,36.2758,42.5746C37.2124,42.5746,37.9667,43.3274,37.9667,44.264C37.9667,45.1998,37.2124,45.9527,36.2758,45.9527C32.7503,45.9527,30.7217,42.7961,30.7217,40.8851L30.7217,44.0215L18.1628,44.0215L18.1628,46.677C18.1628,47.6128,17.4094,48.3656,16.4728,48.3656C15.5353,48.3656,14.7818,47.6128,14.7818,46.677L14.7818,35.8183Z')","path('M14.7818,35.8183C14.7818,30.4872,19.107,26.1665,24.4418,26.1665C29.7775,26.1665,34.1018,30.4872,34.1018,35.8183L35,40C35,41.206,36,43,36,43C36,44.4469,37.7,48.0634,37.7,49C36.7,50,36.2758,49.5,35,49C33,44.264,30.7217,42.7961,30.7217,40.8851L30.7217,44.0215L18.1628,44.0215L18.1628,46.677C18.1628,47.6128,17.4094,48.3656,16.4728,48.3656C15.5353,48.3656,14.7818,47.6128,14.7818,46.677L14.7818,35.8183Z')","path('M14.7818,35.8183C14.7818,30.4872,19.107,26.1665,24.4418,26.1665C29.7775,26.1665,34.1018,30.4872,34.1018,35.8183L34.1018,40.4025C34.1018,41.6085,35.0779,42.5746,36.2758,42.5746C37.2124,42.5746,37.9667,43.3274,37.9667,44.264C37.9667,45.1998,37.2124,45.9527,36.2758,45.9527C32.7503,45.9527,30.7217,42.7961,30.7217,40.8851L30.7217,44.0215L18.1628,44.0215L18.1628,46.677C18.1628,47.6128,17.4094,48.3656,16.4728,48.3656C15.5353,48.3656,14.7818,47.6128,14.7818,46.677L14.7818,35.8183Z')"],e:[[0],[0],[0],[0],[0],[0]],iterations:Infinity}],
"#Stroke-44-3",[{p:'d',t:[0,100,200,300,400,700,1400],v:["path('M14.7818,35.8183C14.7818,30.4872,19.107,26.1665,24.4418,26.1665C29.7775,26.1665,34.1018,30.4872,34.1018,35.8183C34.1018,35.8183,34.1018,40.4025,34.1018,40.4025C34.1018,41.6085,35.0779,42.5746,36.2758,42.5746C37.2124,42.5746,37.9667,43.3274,37.9667,44.264C37.9667,45.1998,37.2124,45.9527,36.2758,45.9527C32.7503,45.9527,30.7217,42.7961,30.7217,40.8851L30.7217,44.0215L18.1628,44.0215L18.1628,46.677C18.1628,47.6128,17.4094,48.3656,16.4728,48.3656C15.5353,48.3656,14.7818,47.6128,14.7818,46.677L14.7818,35.8183Z')","path('M14.7818,35.8183C14.7818,30.4872,19.107,26.1665,24.4418,26.1665C29.7775,26.1665,34.1018,30.4872,34.1018,35.8183C34.1018,35.8183,34.1018,39.7995,34.1018,40.4025C34.1018,41.6085,35.0386,43.3078,35.8879,44.0215C36.7372,44.7352,37.7334,44.9454,37.7334,45.882C37.7334,46.8178,37.1062,47.9763,35.8879,47.7263C33.4261,47.1591,30.7217,42.1035,30.7217,40.1925L30.7217,44.0215L18.1628,44.0215L18.1628,46.677C18.1628,47.6128,17.4094,48.3656,16.4728,48.3656C15.5353,48.3656,14.7818,47.6128,14.7818,46.677L14.7818,35.8183Z')","path('M14.7818,35.8183C14.7818,30.4872,19.107,26.1665,24.4418,26.1665C29.7775,26.1665,34.1018,30.4872,34.1018,35.8183C34.1018,35.8183,34.1018,37.294,34.1018,38.5C34.1018,39.706,34.5,40,35.5,42.5C36.5,45,37.5,46.5638,37.5,47.5C37.5,48.4362,37.5,50,35.5,49.5C33.5,49,30.7217,39.411,30.7217,37.5L30.7217,44.0215L18.1628,44.0215L18.1628,46.677C18.1628,47.6128,17.4094,48.3656,16.4728,48.3656C15.5353,48.3656,14.7818,47.6128,14.7818,46.677L14.7818,35.8183Z')","path('M14.7818,35.8183C14.7818,30.4872,19.107,26.1665,24.4418,26.1665C29.7775,26.1665,34.5,31.1689,34.5,36.5C34.5,36.5,34.1018,39.7995,34.1018,40.4025C34.1018,41.6085,35.0776,42.2998,35.8879,43.0373C36.6982,43.7748,37.7334,44.9458,37.7334,45.882C37.7334,46.8182,36,47.854,34.5,46.677C33,45.5,30.7217,42.1035,30.7217,40.1925L30.7217,44.0215L18.1628,44.0215L18.1628,46.677C18.1628,47.6128,17.4094,48.3656,16.4728,48.3656C15.5353,48.3656,14.7818,47.6128,14.7818,46.677L14.7818,35.8183Z')","path('M14.7818,35.8183C14.7818,30.4872,19.107,26.1665,24.4418,26.1665C29.7775,26.1665,34.1018,30.4872,34.1018,35.8183C34.1018,35.8183,34.1018,40.4025,34.1018,40.4025C34.1018,41.6085,35.0779,42.5746,36.2758,42.5746C37.2124,42.5746,37.9667,43.3274,37.9667,44.264C37.9667,45.1998,37.2124,45.9527,36.2758,45.9527C32.7503,45.9527,30.7217,42.7961,30.7217,40.8851L30.7217,44.0215L18.1628,44.0215L18.1628,46.677C18.1628,47.6128,17.4094,48.3656,16.4728,48.3656C15.5353,48.3656,14.7818,47.6128,14.7818,46.677L14.7818,35.8183Z')","path('M14.7818,35.8183C14.7818,30.4872,19.107,26.1665,24.4418,26.1665C29.7775,26.1665,34.1018,30.4872,34.1018,35.8183C34.1018,35.8183,34.5,38.294,34.5,39.5C34.5,40.706,35.8982,43.5,35.8982,43.5C35.8982,43.5,38.2964,46.2312,37.8982,48.3656C37.5,50.5,36,51.2312,34.5,48.3656C33,45.5,30.7217,40.411,30.7217,38.5L30.7217,44.0215L18.1628,44.0215L18.1628,46.677C18.1628,47.6128,17.4094,48.3656,16.4728,48.3656C15.5353,48.3656,14.7818,47.6128,14.7818,46.677L14.7818,35.8183Z')","path('M14.7818,35.8183C14.7818,30.4872,19.107,26.1665,24.4418,26.1665C29.7775,26.1665,34.1018,30.4872,34.1018,35.8183C34.1018,35.8183,34.1018,40.4025,34.1018,40.4025C34.1018,41.6085,35.0779,42.5746,36.2758,42.5746C37.2124,42.5746,37.9667,43.3274,37.9667,44.264C37.9667,45.1998,37.2124,45.9527,36.2758,45.9527C32.7503,45.9527,30.7217,42.7961,30.7217,40.8851L30.7217,44.0215L18.1628,44.0215L18.1628,46.677C18.1628,47.6128,17.4094,48.3656,16.4728,48.3656C15.5353,48.3656,14.7818,47.6128,14.7818,46.677L14.7818,35.8183Z')"],e:[[1,0.42,0,0.71,0.5],[1,0.29,0.5,0.58,1],[1,0.42,0,0.71,0.5],[1,0.29,0.5,0.58,1],[0],[0],[0]],iterations:Infinity}],
"#Ball",[{p:0,t:[0,200,400,500,501,700,900,1000,1001,1200,1400],v:['0%','15.38467%','32.307721%','33.846142%','33.846142%','49.230813%','66.153863%','67.692285%','67.692285%','83.076955%','100%'],e:[[1,0.507749,0,0,1],[1,1,0,0.431641,1],[0],[3,1],[1,0.507749,0,0,1],[1,1,0,0.431641,1],[0],[3,1],[1,0.507749,0,0,1],[1,1,0,0.431641,1],[0]],iterations:Infinity,m:"M32,46L31.9229,56L32,45L32,46L32,46L31.9229,56L32,45L32,46L32,46L31.9229,56L32,45"},{p:10,t:[0,200,400,500,501,700,900,1000,1001,1200,1400],v:[1,1,1,1,1,1,1,1,1,1,1],e:[[0],[0],[0],[3,1],[0],[0],[0],[3,1],[0],[0],[0]],iterations:Infinity},{p:11,t:[0,200,400,500,501,700,900,1000,1001,1200,1400],v:[1,0.8,1.1,1,1,0.8,1.1,1,1,0.8,1.1],e:[[0],[0],[0],[3,1],[0],[0],[0],[3,1],[0],[0],[0]],iterations:Infinity}],
{autoplay:document.location.search.substr(1).split('&').indexOf('autoplay=false')<0})
})(ks);
]]></script>
</svg>
