<svg height="100" viewBox="0 0 200 100" width="200" xmlns="http://www.w3.org/2000/svg"><g fill="none" fill-rule="evenodd"><path d="m0 0h200v100h-200z" fill="#dae5ec"/><rect fill="#fff" height="100" rx="4" width="180" x="10" y="24"/><g fill="#e7edf0"><rect height="39" rx="2" width="76" x="19" y="34"/><rect height="39" rx="2" width="76" x="105" y="34"/></g><rect fill="#effaff" height="14" rx="2" width="40" x="10" y="5"/><g fill="#fff"><rect height="3" rx="1" width="23" x="84" y="10"/><rect height="3" rx="1" width="23" x="111" y="10"/><rect height="3" rx="1" width="23" x="138" y="10"/><rect height="3" rx="1" width="23" x="165" y="10"/></g><g fill="#e6edf0"><rect height="2" rx="1" width="76" x="19" y="78"/><rect height="2" rx="1" width="67" x="19" y="83"/><rect height="2" rx="1" width="73" x="19" y="88"/><rect height="2" rx="1" width="63" x="105" y="78"/><rect height="2" rx="1" width="71" x="105" y="83"/><rect height="2" rx="1" width="67" x="105" y="88"/></g></g></svg>