<svg xmlns="http://www.w3.org/2000/svg" xmlns:xlink="http://www.w3.org/1999/xlink" width="95" height="70" viewBox="0 0 95 70"><defs><linearGradient id="a" x1="50%" x2="50%" y1="0%" y2="100%"><stop offset="0%" stop-color="#F5FAFD"/><stop offset="100%" stop-color="#C5ECFF"/></linearGradient><path id="b" d="M0 0h60v43H0z"/></defs><g fill="none" fill-rule="evenodd"><path fill="url(#a)" d="M90.455 43c0-23.748-19.13-43-42.728-43C24.13 0 5 19.252 5 43a43.063 43.063 0 0 0 3.806 17.737h77.842A43.047 43.047 0 0 0 90.455 43"/><g transform="translate(18 18)"><mask id="c" fill="#fff"><use xlink:href="#b"/></mask><g mask="url(#c)"><path fill="#1176A5" d="M49.796 45.08H10.195a2.71 2.71 0 0 1-2.699-2.707V15.518h44.999v26.855a2.71 2.71 0 0 1-2.699 2.706"/><path fill="#1DA1DE" d="M52.495 15.518h-45v-6.63a2.711 2.711 0 0 1 2.7-2.705h39.602a2.71 2.71 0 0 1 2.698 2.706v6.629z"/><path fill="#FF6242" d="M13.703 10.85c0 .86-.694 1.556-1.551 1.556A1.553 1.553 0 0 1 10.6 10.85c0-.859.694-1.556 1.552-1.556.857 0 1.551.697 1.551 1.556"/><path fill="#FFF48C" d="M19.91 10.85c0 .86-.694 1.556-1.552 1.556a1.554 1.554 0 0 1-1.552-1.556c0-.859.695-1.556 1.552-1.556.858 0 1.552.697 1.552 1.556"/><path fill="#6DD627" d="M26.117 10.85c0 .86-.695 1.556-1.552 1.556a1.553 1.553 0 0 1-1.552-1.556c0-.859.694-1.556 1.552-1.556.857 0 1.552.697 1.552 1.556"/><path fill="#00DBA8" d="M26.544 31.076h-3.959c-.62 0-1.124-.505-1.124-1.127V25.98c0-.622.504-1.127 1.124-1.127h3.959c.622 0 1.124.505 1.124 1.127v3.969c0 .622-.502 1.127-1.124 1.127"/><path fill="#B973FF" d="M36.63 31.076h-3.958a1.126 1.126 0 0 1-1.125-1.127V25.98c0-.622.504-1.127 1.125-1.127h3.958c.621 0 1.124.505 1.124 1.127v3.969c0 .622-.503 1.127-1.124 1.127m-10.086 9.336h-3.959c-.62 0-1.124-.505-1.124-1.128v-3.968c0-.624.504-1.128 1.124-1.128h3.959c.622 0 1.124.504 1.124 1.128v3.968c0 .623-.502 1.128-1.124 1.128"/><path fill="#00DBA8" d="M36.63 40.412h-3.958a1.127 1.127 0 0 1-1.125-1.128v-3.968c0-.624.504-1.128 1.125-1.128h3.958c.621 0 1.124.504 1.124 1.128v3.968c0 .623-.503 1.128-1.124 1.128"/><path fill="#00B8F0" d="M17.234 21.742h-3.958c-.62 0-1.125-.506-1.125-1.128v-.857c0-.623.504-1.127 1.125-1.127h3.958c.621 0 1.124.504 1.124 1.127v.857c0 .622-.503 1.128-1.124 1.128m29.482 0h-24.13a1.127 1.127 0 0 1-1.125-1.128v-.857c0-.623.504-1.127 1.124-1.127h24.131c.62 0 1.125.504 1.125 1.127v.857c0 .622-.504 1.128-1.125 1.128"/><path stroke="#FFF" stroke-linecap="round" stroke-linejoin="round" stroke-width="1.053" d="M12.152 24.853h6.207m-6.207 3.112h6.207m-6.207 3.111h6.207m-6.207 3.112h6.207M12.152 37.3h6.207m-6.207 3.112h3.88" opacity=".797"/></g></g><path fill="#020202" d="M84 68c0 1.105-6.715 2-15 2s-15-.895-15-2c0-1.104 6.715-2 15-2s15 .896 15 2" opacity=".096"/><path stroke="#008BCC" stroke-linecap="round" stroke-linejoin="round" d="M5.703 60.737H89.02m-88.125 0h2.67m87.591 0h2.67"/><path fill="#78635E" d="M79.106 64.622a1.527 1.527 0 0 1-2.158 2.16L64.353 54.18l2.16-2.16 12.593 12.603z"/><path fill="#E8F4FA" d="M66.633 50.698a.85.85 0 0 1 0 1.2l-2.4 2.401a.849.849 0 0 1-1.2 0l-3.116-3.119a.849.849 0 0 1 0-1.201l2.398-2.4a.847.847 0 0 1 1.2 0l3.119 3.12z"/><path fill="#FFF" d="M63.514 47.578a.848.848 0 0 0-1.2 0l-2.399 2.4a.849.849 0 0 0 0 1.2l1.437 1.438 3.598-3.601-1.436-1.437z"/><path fill="#E8F4FA" d="M60.035 51.299a5.605 5.605 0 0 0 0 7.921.346.346 0 0 0 .59-.266 6.615 6.615 0 0 1 1.929-5.135l-2.519-2.52zm11.018-3.825l-1.166 1.167a.703.703 0 0 1-.993 0l-4.044-4.047a.704.704 0 0 1 0-.994l1.165-1.167a.703.703 0 0 1 .994 0l4.044 4.047a.702.702 0 0 1 0 .994"/><path fill="#FFF" d="M67.112 42.536a.847.847 0 0 0-1.2 0l-.96.96a.852.852 0 0 0 0 1.2l2.158 2.16 2.16-2.161-2.159-2.159z"/><path fill="#A7CBDE" d="M65.073 44.817c-.233 1.173-.451 1.892-1.298 2.738l-.142.142 2.52 2.522.142-.143c.845-.846 1.562-1.064 2.736-1.298l-3.958-3.961z"/><path fill="#1786BA" d="M65.797 65.79l-2.879-2.881 12.954-12.964 2.879 2.882z"/><path fill="#1DA1DE" d="M75.872 49.945L62.919 62.909l1.439 1.44 12.954-12.963z"/><path fill="#FFE3CF" d="M62.918 62.909l-1.439 4.321 4.318-1.44z"/><path fill="#FFA9E6" d="M78.751 52.826l-2.879-2.88 1.44-1.441a2.037 2.037 0 1 1 2.88 2.881l-1.44 1.44z"/><path stroke="#585E67" stroke-linecap="round" stroke-linejoin="round" stroke-width=".6" d="M60.733 67.946l.78-.78"/><g><path fill="#00DBA8" d="M76.785 23.936c0 3.713-3.071 6.722-6.86 6.722s-6.86-3.01-6.86-6.722c0-3.713 3.071-6.722 6.86-6.722s6.86 3.01 6.86 6.722"/><path fill="#29F6C6" d="M69.925 19.735c3.348 0 6.133 2.352 6.735 5.462.08-.41.125-.83.125-1.261 0-3.713-3.071-6.722-6.86-6.722s-6.86 3.01-6.86 6.722c0 .431.045.852.124 1.26.603-3.109 3.387-5.461 6.736-5.461"/><path stroke="#FFF" stroke-linecap="round" stroke-linejoin="round" stroke-width=".7" d="M67.959 22.838l-2.096 1.196 2.096 1.494m3.931 0l2.097-1.494-2.097-1.196m-2.882 3.288l2.096-4.782"/></g><path fill="#87898C" d="M10.112 46.265h-.32a.827.827 0 0 0-.584.242L3.52 52.184c-.79.79-.28 2.58.511 3.368.79.79 2.685 1.401 3.476.612l5.688-5.677a.822.822 0 0 0 .241-.583v-.32c0-.36-.143-.706-.398-.962l-1.963-1.958a1.364 1.364 0 0 0-.963-.399"/><path fill="#BDBEC0" d="M9.208 46.507a.828.828 0 0 1 .583-.242h.32c.363 0 .71.143.964.4l.943.94-7.974 7.96-.013-.012c-.79-.79-1.302-2.58-.511-3.369l5.688-5.677z"/><path fill="#804BB5" d="M13.357 49.126a1.358 1.358 0 0 0-.32-.504l-1.962-1.958a1.372 1.372 0 0 0-.51-.321l.112-.078 1.248-.997c.498-.398.77-1.015.727-1.65a.937.937 0 0 1 1.55-.365l2.254 2.25a.934.934 0 0 1-.367 1.547 1.949 1.949 0 0 0-1.654.724l-.998 1.247-.08.105z"/><path fill="#B973FF" d="M11.925 45.268c.498-.398.77-1.015.727-1.65a.937.937 0 0 1 1.55-.365l1.087 1.086-3.271 3.266-.943-.941a1.372 1.372 0 0 0-.51-.321l.112-.078 1.248-.997z"/><path fill="#DAEDF7" d="M28.382 33.11l-1.387 2.216a1.656 1.656 0 0 1-.73.633l-.896.466c-.184.096-.353.22-.5.367l-8.57 8.555-1.942-1.94 8.57-8.555c.147-.146.27-.314.366-.498l.468-.894c.134-.301.355-.555.634-.73l2.22-1.384a.924.924 0 0 1 1.142.13l.495.493a.92.92 0 0 1 .13 1.14"/><path fill="#FFF" d="M23.294 34.354l.467-.894c.134-.302.355-.555.634-.73l2.22-1.384a.924.924 0 0 1 1.142.13l.209.208-12.677 12.654-.932-.93 8.57-8.556a2.05 2.05 0 0 0 .367-.498"/><path stroke="#585E67" stroke-linecap="round" stroke-linejoin="round" stroke-width=".5" d="M6.076 54.736l5.316-5.307M4.85 53.511l5.316-5.307"/></g></svg>